# This file uses centimeters as units for non-parametric coordinates.

mtllib Cheese.mtl
g default
v 6.596846 1.308341 -6.188087
v 6.592390 1.306584 -6.179011
v 6.597309 1.301120 -6.171852
v 6.606684 1.297412 -6.173768
v 6.611139 1.299169 -6.182844
v 6.606221 1.304633 -6.190003
v 6.596294 1.318646 -6.190610
v 6.588576 1.315603 -6.174891
v 6.597096 1.306139 -6.162491
v 6.613334 1.299717 -6.165810
v 6.621051 1.302759 -6.181530
v 6.612532 1.312224 -6.193930
v 6.596873 1.326109 -6.190833
v 6.586693 1.321630 -6.171361
v 6.597020 1.309035 -6.155948
v 6.617525 1.300918 -6.160007
v 6.627705 1.305397 -6.179479
v 6.617378 1.317992 -6.194892
v 6.600649 1.300569 -6.181922
v 6.589606 1.344278 -6.247409
v 6.594888 1.344679 -6.254761
v 6.594412 1.348890 -6.262771
v 6.588457 1.354444 -6.266746
v 6.580511 1.358087 -6.264359
v 6.575229 1.357686 -6.257007
v 6.575705 1.353475 -6.248997
v 6.581660 1.347921 -6.245021
v 6.596461 1.342775 -6.237828
v 6.606222 1.343516 -6.251413
v 6.605342 1.351296 -6.266213
v 6.594339 1.361559 -6.273559
v 6.579656 1.368291 -6.269148
v 6.569896 1.367550 -6.255563
v 6.570775 1.359769 -6.240763
v 6.581779 1.349507 -6.233417
v 6.603529 1.343859 -6.226784
v 6.618338 1.345956 -6.246045
v 6.617019 1.357146 -6.267673
v 6.600346 1.370873 -6.278998
v 6.578084 1.379097 -6.273386
v 6.563275 1.377000 -6.254124
v 6.564593 1.365810 -6.232497
v 6.581267 1.352083 -6.221172
v 6.583933 1.349324 -6.256794
v 6.476188 1.284410 -6.257717
v 6.496869 1.398138 -6.231611
v 6.606480 1.289053 -6.118503
v 6.470124 1.321756 -6.260542
v 6.564672 1.320470 -6.353407
v 6.480637 1.370141 -6.250509
v 6.575184 1.368855 -6.343374
v 6.558318 1.283740 -6.339718
v 6.567112 1.294539 -6.350564
v 6.678272 1.298117 -6.237438
v 6.692424 1.287884 -6.202918
v 6.587513 1.388441 -6.331093
v 6.582813 1.396970 -6.316025
v 6.554795 1.320604 -6.343706
v 6.565308 1.368989 -6.333673
v 6.613423 1.314888 -6.303695
v 6.597905 1.309624 -6.319421
v 6.587083 1.326126 -6.330667
v 6.591781 1.347891 -6.326186
v 6.607299 1.353154 -6.310459
v 6.618120 1.336653 -6.299214
v 6.603370 1.353208 -6.306601
v 6.579317 1.327733 -6.310364
v 6.582102 1.340551 -6.307706
v 6.591251 1.343628 -6.298434
v 6.597614 1.333887 -6.291821
v 6.594829 1.321069 -6.294479
v 6.585681 1.317992 -6.303750
v 6.578926 1.325855 -6.320721
v 6.583349 1.346215 -6.316500
v 6.597881 1.351102 -6.301773
v 6.607988 1.335630 -6.291268
v 6.603565 1.315270 -6.295490
v 6.589034 1.310382 -6.310216
v 6.585908 1.330845 -6.298579
vt 0.520643 0.076453
vt 0.516401 0.057623
vt 0.525209 0.040465
vt 0.543143 0.033664
vt 0.561087 0.040780
vt 0.570370 0.057935
vt 0.567373 0.077131
vt 0.503997 0.087540
vt 0.496758 0.055132
vt 0.511888 0.025495
vt 0.543227 0.013650
vt 0.574134 0.025799
vt 0.589797 0.054525
vt 0.585077 0.087121
vt 0.491289 0.093668
vt 0.483517 0.052184
vt 0.503414 0.015121
vt 0.542560 0.000055
vt 0.582094 0.014330
vt 0.603612 0.050849
vt 0.598036 0.092917
vt 0.535541 0.063180
vt 0.536300 0.057071
vt 0.540370 0.053380
vt 0.545752 0.053472
vt 0.550386 0.057673
vt 0.551650 0.064713
vt 0.218825 0.097238
vt 0.215317 0.119711
vt 0.188006 0.104800
vt 0.203804 0.088995
vt 0.174462 0.077480
vt 0.195925 0.073497
vt 0.178761 0.047160
vt 0.198225 0.056320
vt 0.200627 0.025024
vt 0.210173 0.044036
vt 0.231881 0.021095
vt 0.227013 0.041848
vt 0.258661 0.037886
vt 0.241376 0.050786
vt 0.268674 0.067760
vt 0.246789 0.066862
vt 0.257869 0.097241
vt 0.240908 0.082819
vt 0.211731 0.144156
vt 0.170797 0.123178
vt 0.149928 0.081555
vt 0.158543 0.035942
vt 0.192235 0.004764
vt 0.237581 0.000062
vt 0.276336 0.024030
vt 0.292116 0.066846
vt 0.278647 0.110565
vt 0.221258 0.074631
vt 0.218522 0.071629
vt 0.217870 0.067766
vt 0.219147 0.064915
vt 0.221196 0.063770
vt 0.223105 0.064139
vt 0.224209 0.065581
vt 0.224149 0.067593
vt 0.000000 0.659816
vt 0.071692 0.599406
vt 0.077717 0.625891
vt 0.034093 0.653382
vt 0.240788 0.369252
vt 0.118194 0.000000
vt 0.173936 0.597385
vt 0.170018 0.622220
vt 0.244012 0.596632
vt 0.216455 0.644091
vt 0.605306 0.593628
vt 0.140749 0.918836
vt 0.153754 0.749092
vt 0.111462 0.753017
vt 0.414525 0.551409
vt 0.377313 0.578342
vt 0.001718 0.380349
vt 0.331870 0.570999
vt 0.148697 0.677341
vt 0.106740 0.678132
vt 0.169556 0.373626
vt 0.073547 0.374550
vt 0.488395 0.409673
vt 0.530284 0.403068
vt 0.311867 0.488245
vt 0.349106 0.461301
vt 0.394657 0.468639
vt 0.473262 0.449200
vt 0.556894 0.435900
vt 0.499916 0.482073
vt 0.541700 0.475454
vt 0.304755 0.533681
vt 0.421736 0.505971
vt 0.088192 0.717512
vt 0.172912 0.712898
vt 0.164378 0.713074
vt 0.334617 0.078197
vt 0.314143 0.076468
vt 0.332608 0.042821
vt 0.346807 0.055561
vt 0.363613 0.023110
vt 0.369455 0.042062
vt 0.400137 0.023194
vt 0.395915 0.042157
vt 0.431621 0.039888
vt 0.419334 0.054807
vt 0.452626 0.068218
vt 0.435143 0.076242
vt 0.462034 0.105041
vt 0.440634 0.101621
vt 0.292359 0.063505
vt 0.316077 0.025696
vt 0.359109 0.008817
vt 0.404505 0.000059
vt 0.445682 0.020497
vt 0.474535 0.057001
vt 0.486172 0.099718
vt 0.361097 0.077465
vt 0.369665 0.068675
vt 0.382461 0.065078
vt 0.396292 0.068462
vt 0.408354 0.078601
vt 0.415268 0.092927
vt 0.145520 1.000000
vt 0.251604 0.646286
vt 0.001664 0.600098
vt 0.603627 0.365633
vt 0.233398 0.343086
vt 0.009014 0.343437
vn 0.873621 0.159365 0.459771
vn 0.873621 0.159365 0.459771
vn 0.873621 0.159365 0.459771
vn 0.873621 0.159365 0.459771
vn 0.853927 0.466471 -0.230681
vn 0.853927 0.466471 -0.230680
vn 0.853927 0.466471 -0.230680
vn 0.853927 0.466471 -0.230680
vn 0.246019 0.856551 -0.453645
vn 0.246019 0.856551 -0.453645
vn 0.246019 0.856551 -0.453645
vn 0.246019 0.856551 -0.453645
vn -0.342200 0.939525 0.013845
vn -0.342200 0.939525 0.013845
vn -0.342200 0.939525 0.013845
vn -0.342200 0.939525 0.013845
vn -0.322501 0.632420 0.704300
vn -0.322501 0.632420 0.704300
vn -0.322501 0.632420 0.704300
vn -0.322501 0.632420 0.704300
vn 0.285404 0.242331 0.927265
vn 0.285404 0.242331 0.927265
vn 0.285404 0.242331 0.927265
vn 0.285404 0.242331 0.927265
vn 0.893144 -0.023738 0.449145
vn 0.893144 -0.023738 0.449145
vn 0.893144 -0.023738 0.449145
vn 0.893144 -0.023738 0.449145
vn 0.863758 0.448631 -0.229460
vn 0.863758 0.448632 -0.229460
vn 0.863758 0.448631 -0.229460
vn 0.863758 0.448632 -0.229460
vn 0.272141 0.882485 -0.383612
vn 0.272141 0.882485 -0.383612
vn 0.272141 0.882485 -0.383613
vn 0.272141 0.882485 -0.383613
vn -0.348412 0.937057 0.023087
vn -0.348412 0.937057 0.023087
vn -0.348412 0.937057 0.023087
vn -0.348412 0.937057 0.023087
vn -0.451574 0.524360 0.721892
vn -0.451574 0.524360 0.721892
vn -0.451574 0.524360 0.721892
vn -0.451574 0.524360 0.721892
vn 0.199212 0.006139 0.979937
vn 0.199212 0.006139 0.979937
vn 0.199212 0.006139 0.979937
vn 0.199212 0.006139 0.979937
vn 0.625449 0.649263 0.432749
vn 0.625449 0.649263 0.432749
vn 0.625449 0.649263 0.432749
vn 0.617760 0.769337 0.162771
vn 0.617760 0.769337 0.162771
vn 0.617760 0.769337 0.162771
vn 0.380049 0.921872 0.075592
vn 0.380049 0.921872 0.075592
vn 0.380049 0.921872 0.075592
vn 0.150050 0.954317 0.258386
vn 0.150050 0.954317 0.258386
vn 0.150050 0.954317 0.258386
vn 0.157748 0.834233 0.528366
vn 0.157748 0.834233 0.528366
vn 0.157748 0.834233 0.528366
vn 0.395444 0.681708 0.615547
vn 0.395444 0.681708 0.615547
vn 0.395444 0.681708 0.615547
vn 0.070785 0.991953 0.104970
vn 0.070785 0.991953 0.104970
vn 0.070785 0.991953 0.104970
vn 0.070785 0.991953 0.104970
vn -0.047350 0.882988 0.467001
vn -0.047350 0.882988 0.467001
vn -0.047350 0.882988 0.467001
vn -0.047350 0.882988 0.467001
vn 0.096409 0.645642 0.757530
vn 0.096409 0.645642 0.757530
vn 0.096409 0.645642 0.757530
vn 0.096409 0.645642 0.757530
vn 0.430453 0.412762 0.802706
vn 0.430453 0.412762 0.802706
vn 0.430453 0.412762 0.802706
vn 0.430453 0.412762 0.802706
vn 0.758695 0.327758 0.562989
vn 0.758695 0.327758 0.562989
vn 0.758695 0.327758 0.562989
vn 0.758695 0.327758 0.562989
vn 0.875797 0.446719 0.182815
vn 0.875797 0.446719 0.182815
vn 0.875797 0.446719 0.182815
vn 0.875797 0.446719 0.182815
vn 0.714044 0.692634 -0.101976
vn 0.714044 0.692634 -0.101976
vn 0.714044 0.692634 -0.101976
vn 0.714044 0.692634 -0.101976
vn 0.381038 0.915513 -0.129017
vn 0.381038 0.915513 -0.129017
vn 0.381038 0.915513 -0.129017
vn 0.381038 0.915513 -0.129017
vn -0.155122 0.987418 -0.030713
vn -0.155122 0.987418 -0.030713
vn -0.155122 0.987418 -0.030713
vn -0.155122 0.987418 -0.030713
vn -0.358853 0.818820 0.448061
vn -0.358853 0.818820 0.448061
vn -0.358853 0.818820 0.448061
vn -0.358853 0.818820 0.448061
vn -0.117756 0.521743 0.844936
vn -0.117756 0.521743 0.844936
vn -0.117756 0.521743 0.844936
vn -0.117756 0.521743 0.844936
vn 0.370641 0.334946 0.866277
vn 0.370641 0.334946 0.866277
vn 0.370641 0.334946 0.866277
vn 0.370641 0.334946 0.866277
vn 0.726973 0.373695 0.576075
vn 0.726973 0.373695 0.576075
vn 0.726973 0.373695 0.576075
vn 0.726973 0.373695 0.576075
vn 0.815805 0.531640 0.227642
vn 0.815805 0.531640 0.227642
vn 0.815805 0.531640 0.227642
vn 0.815805 0.531640 0.227642
vn 0.683645 0.725242 -0.081566
vn 0.683645 0.725242 -0.081566
vn 0.683645 0.725242 -0.081566
vn 0.683645 0.725242 -0.081566
vn 0.310219 0.921875 -0.232189
vn 0.310219 0.921874 -0.232189
vn 0.310219 0.921874 -0.232189
vn 0.310219 0.921874 -0.232189
vn 0.328815 0.900251 0.285359
vn 0.328815 0.900251 0.285359
vn 0.328814 0.900251 0.285359
vn 0.282576 0.855874 0.433162
vn 0.282576 0.855874 0.433162
vn 0.282576 0.855874 0.433162
vn 0.344439 0.761946 0.548452
vn 0.344439 0.761946 0.548452
vn 0.344439 0.761946 0.548452
vn 0.478190 0.673442 0.563747
vn 0.478190 0.673441 0.563747
vn 0.478190 0.673442 0.563747
vn 0.605454 0.642249 0.470045
vn 0.605454 0.642249 0.470045
vn 0.605454 0.642249 0.470045
vn 0.651688 0.686629 0.322247
vn 0.651688 0.686629 0.322247
vn 0.651688 0.686629 0.322247
vn 0.589829 0.780564 0.206934
vn 0.589829 0.780564 0.206934
vn 0.589829 0.780564 0.206934
vn 0.456087 0.869053 0.191656
vn 0.456087 0.869053 0.191656
vn 0.456087 0.869053 0.191656
vn -0.695960 -0.153655 -0.701448
vn -0.697173 0.104867 -0.709191
vn -0.694408 0.124573 -0.708717
vn -0.694548 -0.142651 -0.705162
vn -0.620001 0.457281 -0.637568
vn -0.625039 0.443301 -0.642504
vn -0.519271 0.664115 -0.537875
vn -0.519267 0.664117 -0.537875
vn 0.451404 -0.788018 -0.418643
vn 0.451405 -0.788018 -0.418643
vn 0.451405 -0.788018 -0.418643
vn 0.451405 -0.788018 -0.418643
vn 0.713393 -0.009701 -0.700697
vn 0.713394 -0.009700 -0.700696
vn 0.713394 -0.009699 -0.700696
vn 0.760998 0.636956 -0.123165
vn 0.760997 0.636956 -0.123165
vn 0.760997 0.636956 -0.123165
vn 0.760997 0.636956 -0.123165
vn 0.436342 0.821221 0.367697
vn 0.436342 0.821221 0.367697
vn 0.402596 0.827416 0.391534
vn 0.426806 0.823346 0.374083
vn -0.728359 -0.024216 0.684768
vn -0.728352 -0.024215 0.684775
vn -0.729497 -0.024255 0.683554
vn 0.713395 -0.009701 -0.700695
vn 0.713395 -0.009701 -0.700695
vn 0.713395 -0.009700 -0.700695
vn 0.713395 -0.009700 -0.700695
vn -0.702653 -0.023333 0.711150
vn -0.702653 -0.023333 0.711150
vn 0.405183 0.820135 0.403986
vn 0.413051 0.844269 0.341464
vn 0.475039 0.817971 0.324440
vn 0.450124 0.812341 0.370797
vn 0.397558 0.826305 0.398959
vn 0.397729 0.827923 0.395417
vn 0.392536 0.800574 0.452766
vn 0.396405 0.800435 0.449629
vn 0.358509 0.863538 0.354646
vn -0.696038 -0.154277 -0.701235
vn -0.697003 0.107943 -0.708897
vn -0.618210 0.462126 -0.635811
vn -0.519271 0.664114 -0.537875
vn 0.380176 0.796089 0.470859
vn 0.379260 0.830736 0.407479
vn 0.359288 0.856436 0.370714
vn 0.389577 0.802305 0.452256
vn 0.399785 0.828701 0.391696
vn 0.408889 0.819641 0.401245
vn 0.408889 0.819641 0.401245
vn 0.713395 -0.009700 -0.700696
vn 0.713394 -0.009699 -0.700696
vn 0.713394 -0.009701 -0.700696
vn 0.713393 -0.009702 -0.700697
vn -0.513880 -0.687066 -0.513681
vn -0.513880 -0.687066 -0.513681
vn -0.513880 -0.687066 -0.513681
vn 0.155666 -0.972728 0.171954
vn 0.155666 -0.972728 0.171954
vn 0.155666 -0.972728 0.171954
vn 0.977130 -0.212634 0.001641
vn 0.977130 -0.212634 0.001641
vn 0.977130 -0.212634 0.001641
vn 0.977130 -0.212634 0.001641
vn 0.608493 -0.703655 -0.366887
vn 0.608493 -0.703655 -0.366887
vn 0.608493 -0.703655 -0.366887
vn 0.608493 -0.703655 -0.366887
vn 0.129319 -0.497786 -0.857605
vn 0.129319 -0.497786 -0.857605
vn 0.129318 -0.497786 -0.857605
vn 0.129319 -0.497786 -0.857605
vn 0.018773 0.199089 -0.979802
vn 0.018773 0.199089 -0.979802
vn 0.018773 0.199089 -0.979802
vn 0.018773 0.199089 -0.979802
vn 0.387403 0.690105 -0.611288
vn 0.387403 0.690105 -0.611288
vn 0.387403 0.690105 -0.611288
vn 0.387403 0.690105 -0.611288
vn 0.866581 0.484253 -0.120567
vn 0.866581 0.484253 -0.120567
vn 0.866581 0.484253 -0.120567
vn 0.866581 0.484253 -0.120567
vn 0.745752 -0.285799 0.601808
vn 0.745752 -0.285799 0.601808
vn 0.745752 -0.285799 0.601808
vn 0.745752 -0.285799 0.601808
vn 0.308125 -0.950134 0.048002
vn 0.308125 -0.950134 0.048002
vn 0.308125 -0.950134 0.048002
vn 0.308125 -0.950134 0.048002
vn -0.391073 -0.661187 -0.640230
vn -0.391073 -0.661187 -0.640230
vn -0.391073 -0.661187 -0.640230
vn -0.391073 -0.661187 -0.640230
vn -0.607937 0.284751 -0.741168
vn -0.607937 0.284751 -0.741168
vn -0.607937 0.284751 -0.741168
vn -0.607937 0.284751 -0.741168
vn -0.126195 0.971759 -0.199395
vn -0.126195 0.971759 -0.199395
vn -0.126195 0.971759 -0.199395
vn -0.126195 0.971760 -0.199395
vn 0.553148 0.684803 0.474419
vn 0.553148 0.684802 0.474419
vn 0.553148 0.684802 0.474419
vn 0.553148 0.684802 0.474419
vn 0.879304 -0.094237 -0.466845
vn 0.879304 -0.094237 -0.466844
vn 0.879304 -0.094237 -0.466845
vn 0.727147 -0.296911 -0.618952
vn 0.727147 -0.296911 -0.618952
vn 0.727147 -0.296911 -0.618952
vn 0.529361 -0.211939 -0.821498
vn 0.529361 -0.211939 -0.821498
vn 0.529361 -0.211939 -0.821498
vn 0.483731 0.075705 -0.871937
vn 0.483731 0.075705 -0.871937
vn 0.483731 0.075705 -0.871937
vn 0.635889 0.278377 -0.719828
vn 0.635889 0.278377 -0.719828
vn 0.635889 0.278377 -0.719828
vn 0.833675 0.193407 -0.517282
vn 0.833675 0.193407 -0.517282
vn 0.833675 0.193407 -0.517282
s off
g Cheese
usemtl initialShadingGroup
f 1/1/1 7/8/2 8/9/3 2/2/4
f 2/2/5 8/9/6 9/10/7 3/3/8
f 3/3/9 9/10/10 10/11/11 4/4/12
f 4/4/13 10/11/14 11/12/15 5/5/16
f 5/5/17 11/12/18 12/13/19 6/6/20
f 6/6/21 12/13/22 7/14/23 1/7/24
f 7/8/25 13/15/26 14/16/27 8/9/28
f 8/9/29 14/16/30 15/17/31 9/10/32
f 9/10/33 15/17/34 16/18/35 10/11/36
f 10/11/37 16/18/38 17/19/39 11/12/40
f 11/12/41 17/19/42 18/20/43 12/13/44
f 12/13/45 18/20/46 13/21/47 7/14/48
f 2/2/49 19/22/50 1/1/51
f 3/3/52 19/23/53 2/2/54
f 4/4/55 19/24/56 3/3/57
f 5/5/58 19/25/59 4/4/60
f 6/6/61 19/26/62 5/5/63
f 1/7/64 19/27/65 6/6/66
f 20/28/67 28/29/68 29/30/69 21/31/70
f 21/31/71 29/30/72 30/32/73 22/33/74
f 22/33/75 30/32/76 31/34/77 23/35/78
f 23/35/79 31/34/80 32/36/81 24/37/82
f 24/37/83 32/36/84 33/38/85 25/39/86
f 25/39/87 33/38/88 34/40/89 26/41/90
f 26/41/91 34/40/92 35/42/93 27/43/94
f 27/43/95 35/42/96 28/44/97 20/45/98
f 28/29/99 36/46/100 37/47/101 29/30/102
f 29/30/103 37/47/104 38/48/105 30/32/106
f 30/32/107 38/48/108 39/49/109 31/34/110
f 31/34/111 39/49/112 40/50/113 32/36/114
f 32/36/115 40/50/116 41/51/117 33/38/118
f 33/38/119 41/51/120 42/52/121 34/40/122
f 34/40/123 42/52/124 43/53/125 35/42/126
f 35/42/127 43/53/128 36/54/129 28/44/130
f 21/31/131 44/55/132 20/28/133
f 22/33/134 44/56/135 21/31/136
f 23/35/137 44/57/138 22/33/139
f 24/37/140 44/58/141 23/35/142
f 25/39/143 44/59/144 24/37/145
f 26/41/146 44/60/147 25/39/148
f 27/43/149 44/61/150 26/41/151
f 20/45/152 44/62/153 27/43/154
s 1
f 52/63/155 58/64/156 49/65/157 53/66/158
f 49/65/157 58/64/156 59/69/159 51/70/160
f 51/70/160 59/69/159 57/127/161 56/72/162
s off
f 52/63/163 53/66/164 54/74/165 55/126/166
s 2
f 65/75/167 54/74/168 60/76/169
s off
f 55/126/170 54/74/171 56/72/172 57/127/173
s 3
f 38/78/174 55/73/175 57/71/176 39/80/177
s 4
f 46/130/178 45/131/179 47/68/180
s 2
f 51/70/181 63/81/182 62/82/183 49/65/184
s 4
f 46/130/178 50/83/185 48/84/186 45/131/179
s 3
f 46/67/187 47/129/188 15/86/189 14/85/190
f 46/67/187 42/88/191 41/87/192 57/71/176
f 43/89/193 42/88/191 46/67/187
f 13/90/194 43/89/193 46/67/187 14/85/190
f 47/129/188 16/91/195 15/86/189
s 1
f 45/79/196 48/84/197 58/64/156 52/128/155
f 59/69/159 58/64/156 48/84/197 50/83/198
f 57/71/161 59/69/159 50/83/198 46/67/199
s 3
f 18/92/200 43/89/193 13/90/194
f 55/73/201 17/93/202 16/91/195 47/129/188
f 55/73/201 36/95/203 43/89/193 18/92/200
f 55/73/201 18/92/200 17/93/202
f 40/94/204 39/80/177 57/71/176 41/87/192
f 37/77/205 36/95/203 55/73/201 38/78/206
s 2
f 60/76/169 54/74/168 53/66/207 61/96/208
f 62/82/183 61/96/208 53/66/207 49/65/184
f 56/72/209 64/97/210 63/81/182 51/70/181
f 56/72/209 54/74/168 65/75/167 64/97/210
s off
f 64/97/211 65/75/212 66/98/213
f 63/81/214 64/97/215 66/98/216
f 67/99/217 73/100/218 74/101/219 68/102/220
f 68/102/221 74/101/222 75/103/223 69/104/224
f 69/104/225 75/103/226 76/105/227 70/106/228
f 70/106/229 76/105/230 77/107/231 71/108/232
f 71/108/233 77/107/234 78/109/235 72/110/236
f 72/110/237 78/109/238 73/111/239 67/112/240
f 73/100/241 62/113/242 63/114/243 74/101/244
f 74/101/245 63/114/246 66/115/247 75/103/248
f 75/103/249 66/115/250 65/116/251 76/105/252
f 76/105/253 65/116/254 60/117/255 77/107/256
f 77/107/257 60/117/258 61/118/259 78/109/260
f 78/109/261 61/118/262 62/119/263 73/111/264
f 68/102/265 79/120/266 67/99/267
f 69/104/268 79/121/269 68/102/270
f 70/106/271 79/122/272 69/104/273
f 71/108/274 79/123/275 70/106/276
f 72/110/277 79/124/278 71/108/279
f 67/112/280 79/125/281 72/110/282
