# This file uses centimeters as units for non-parametric coordinates.

mtllib desk.mtl
g default
v -10.347106 -0.028022 2.230190
v -10.176029 -0.028022 2.230190
v -10.347106 0.722147 2.230190
v -10.176029 0.722147 2.230190
v -10.347106 0.722147 2.094076
v -10.176029 0.722147 2.094076
v -10.347106 -0.028022 2.094076
v -10.176029 -0.028022 2.094076
v -8.718188 0.705873 2.559464
v -8.718188 0.705873 1.606577
v -8.718188 0.796749 2.559464
v -8.718188 0.796749 1.606577
v -10.502539 0.796749 2.559464
v -10.502539 0.796749 1.606577
v -10.502540 0.705873 2.559464
v -10.502540 0.705873 1.606577
v -8.318008 -0.028022 2.242521
v -8.146931 -0.028022 2.242521
v -8.318008 0.722147 2.242521
v -8.146931 0.722147 2.242521
v -8.318008 0.722147 2.106407
v -8.146931 0.722147 2.106407
v -8.318008 -0.028022 2.106407
v -8.146931 -0.028022 2.106407
v -8.547553 -0.028022 1.372684
v -7.797384 -0.028022 1.372684
v -8.547553 0.722147 1.372684
v -7.797384 0.722147 1.372684
v -8.547553 0.722147 0.807852
v -7.797384 0.722147 0.807852
v -8.547553 -0.028022 0.807852
v -7.797384 -0.028022 0.807852
v -8.718791 0.705873 2.559811
v -7.765904 0.705873 2.559811
v -8.718791 0.796749 2.559811
v -7.765904 0.796749 2.559811
v -8.718791 0.796749 0.775460
v -7.765904 0.796749 0.775460
v -8.718791 0.705873 0.775459
v -7.765904 0.705873 0.775459
vt 0.887887 0.005934
vt 0.940564 0.005942
vt 0.887854 0.236924
vt 0.940531 0.236931
vt 0.887848 0.278836
vt 0.940526 0.278843
vt 0.887815 0.509825
vt 0.940493 0.509832
vt 0.982476 0.005948
vt 0.982443 0.236937
vt 0.845975 0.005928
vt 0.845942 0.236918
vt 0.000000 0.976134
vt 0.000141 0.728800
vt 0.023729 0.728814
vt 0.023588 0.976148
vt 0.486881 0.729078
vt 0.486740 0.976412
vt 0.510469 0.729091
vt 0.510328 0.976425
vt 0.023743 0.705225
vt 0.486894 0.705490
vt 0.486726 1.000000
vt 0.023575 0.999736
vt 0.893401 0.520302
vt 0.941547 0.520135
vt 0.942278 0.731258
vt 0.894132 0.731425
vt 0.942411 0.769565
vt 0.894264 0.769732
vt 0.943142 0.980688
vt 0.894995 0.980855
vt 0.979855 0.520002
vt 0.980586 0.731125
vt 0.855093 0.520434
vt 0.855824 0.731557
vt 0.173397 0.019085
vt 0.368113 0.018889
vt 0.368309 0.213605
vt 0.173593 0.213801
vt 0.368457 0.360215
vt 0.173741 0.360411
vt 0.709635 0.213261
vt 0.514919 0.213457
vt 0.514723 0.018742
vt 0.709439 0.018545
vt 0.026788 0.019233
vt 0.026984 0.213949
vt 0.764150 0.749608
vt 0.516815 0.749980
vt 0.516780 0.726392
vt 0.764114 0.726020
vt 0.516083 0.263241
vt 0.763417 0.262869
vt 0.516047 0.239653
vt 0.763381 0.239281
vt 0.493192 0.726428
vt 0.492495 0.263277
vt 0.787005 0.262833
vt 0.787702 0.725985
vn 0.000000 0.000000 1.000000
vn 0.000000 0.000000 1.000000
vn 0.000000 0.000000 1.000000
vn 0.000000 0.000000 1.000000
vn 0.000000 1.000000 0.000000
vn 0.000000 1.000000 0.000000
vn 0.000000 1.000000 0.000000
vn 0.000000 1.000000 0.000000
vn 0.000000 0.000000 -1.000000
vn 0.000000 0.000000 -1.000000
vn 0.000000 0.000000 -1.000000
vn 0.000000 0.000000 -1.000000
vn 1.000000 0.000000 0.000000
vn 1.000000 0.000000 0.000000
vn 1.000000 0.000000 0.000000
vn 1.000000 0.000000 0.000000
vn -1.000000 0.000000 0.000000
vn -1.000000 0.000000 0.000000
vn -1.000000 0.000000 0.000000
vn -1.000000 0.000000 0.000000
vn 1.000000 0.000000 0.000000
vn 1.000000 0.000000 0.000000
vn 1.000000 0.000000 0.000000
vn 1.000000 0.000000 0.000000
vn 0.000000 1.000000 0.000000
vn 0.000000 1.000000 0.000000
vn 0.000000 1.000000 0.000000
vn 0.000000 1.000000 0.000000
vn -1.000000 0.000009 0.000000
vn -1.000000 0.000009 0.000000
vn -1.000000 0.000009 0.000000
vn -1.000000 0.000009 0.000000
vn 0.000000 0.000000 -1.000000
vn 0.000000 0.000000 -1.000000
vn 0.000000 0.000000 -1.000000
vn 0.000000 0.000000 -1.000000
vn 0.000000 0.000000 1.000000
vn 0.000000 0.000000 1.000000
vn 0.000000 0.000000 1.000000
vn 0.000000 0.000000 1.000000
vn 0.000000 0.000000 1.000000
vn 0.000000 0.000000 1.000000
vn 0.000000 0.000000 1.000000
vn 0.000000 0.000000 1.000000
vn 0.000000 1.000000 0.000000
vn 0.000000 1.000000 0.000000
vn 0.000000 1.000000 0.000000
vn 0.000000 1.000000 0.000000
vn 0.000000 0.000000 -1.000000
vn 0.000000 0.000000 -1.000000
vn 0.000000 0.000000 -1.000000
vn 0.000000 0.000000 -1.000000
vn 1.000000 0.000000 0.000000
vn 1.000000 0.000000 0.000000
vn 1.000000 0.000000 0.000000
vn 1.000000 0.000000 0.000000
vn -1.000000 0.000000 0.000000
vn -1.000000 0.000000 0.000000
vn -1.000000 0.000000 0.000000
vn -1.000000 0.000000 0.000000
vn 0.000000 0.000000 1.000000
vn 0.000000 0.000000 1.000000
vn 0.000000 0.000000 1.000000
vn 0.000000 0.000000 1.000000
vn 0.000000 1.000000 0.000000
vn 0.000000 1.000000 0.000000
vn 0.000000 1.000000 0.000000
vn 0.000000 1.000000 0.000000
vn 0.000000 0.000000 -1.000000
vn 0.000000 0.000000 -1.000000
vn 0.000000 0.000000 -1.000000
vn 0.000000 0.000000 -1.000000
vn 1.000000 0.000000 0.000000
vn 1.000000 0.000000 0.000000
vn 1.000000 0.000000 0.000000
vn 1.000000 0.000000 0.000000
vn -1.000000 0.000000 0.000000
vn -1.000000 0.000000 0.000000
vn -1.000000 0.000000 0.000000
vn -1.000000 0.000000 0.000000
vn 0.000000 -0.000005 1.000000
vn 0.000000 -0.000005 1.000000
vn 0.000000 -0.000005 1.000000
vn 0.000000 -0.000005 1.000000
vn 0.000000 1.000000 0.000000
vn 0.000000 1.000000 0.000000
vn 0.000000 1.000000 0.000000
vn 0.000000 1.000000 0.000000
vn 0.000000 0.000004 -1.000000
vn 0.000000 0.000004 -1.000000
vn 0.000000 0.000004 -1.000000
vn 0.000000 0.000004 -1.000000
vn 1.000000 0.000001 0.000000
vn 1.000000 0.000001 0.000000
vn 1.000000 0.000001 0.000000
vn 1.000000 0.000001 0.000000
vn -1.000000 0.000001 0.000000
vn -1.000000 0.000001 0.000000
vn -1.000000 0.000001 0.000000
vn -1.000000 0.000001 0.000000
s off
g desk
usemtl initialShadingGroup
f 1/1/1 2/2/2 4/4/3 3/3/4
f 3/3/5 4/4/6 6/6/7 5/5/8
f 5/5/9 6/6/10 8/8/11 7/7/12
f 2/2/13 8/9/14 6/10/15 4/4/16
f 7/11/17 1/1/18 3/3/19 5/12/20
f 9/13/21 10/14/22 12/15/23 11/16/24
f 11/16/25 12/15/26 14/17/27 13/18/28
f 13/18/29 14/17/30 16/19/31 15/20/32
f 10/21/33 16/22/34 14/17/35 12/15/36
f 15/23/37 9/24/38 11/16/39 13/18/40
f 17/25/41 18/26/42 20/27/43 19/28/44
f 19/28/45 20/27/46 22/29/47 21/30/48
f 21/30/49 22/29/50 24/31/51 23/32/52
f 18/26/53 24/33/54 22/34/55 20/27/56
f 23/35/57 17/25/58 19/28/59 21/36/60
f 25/37/61 26/38/62 28/39/63 27/40/64
f 27/40/65 28/39/66 30/41/67 29/42/68
f 29/43/69 30/44/70 32/45/71 31/46/72
f 26/38/73 32/45/74 30/44/75 28/39/76
f 31/47/77 25/37/78 27/40/79 29/48/80
f 33/49/81 34/50/82 36/51/83 35/52/84
f 35/52/85 36/51/86 38/53/87 37/54/88
f 37/54/89 38/53/90 40/55/91 39/56/92
f 34/57/93 40/58/94 38/53/95 36/51/96
f 39/59/97 33/60/98 35/52/99 37/54/100
