# This file uses centimeters as units for non-parametric coordinates.

mtllib water.mtl
g default
v -5.278396 0.932297 -2.956839
v -5.254256 0.932297 -2.932698
v -5.457727 1.590742 -2.867164
v -5.343930 1.590742 -2.753367
v -5.181825 0.932297 -2.956839
v -5.205966 0.932297 -2.932698
v -5.002494 1.590742 -2.867164
v -5.116291 1.590742 -2.753367
v -5.457727 1.590742 -3.094803
v -5.343930 1.590742 -3.208601
v -5.278396 0.932297 -3.005129
v -5.254256 0.932297 -3.029269
v -5.116291 1.590742 -3.208601
v -5.002494 1.590742 -3.094803
v -5.181825 0.932297 -3.005129
v -5.205966 0.932297 -3.029269
v -5.343930 1.643444 -3.094803
v -5.343930 1.643444 -2.867164
v -5.116291 1.643444 -2.867164
v -5.116291 1.643444 -3.094803
v -5.205966 0.932297 -2.956839
v -5.205966 0.932297 -3.005129
v -5.254256 0.932297 -2.956839
v -5.254256 0.932297 -3.005129
v -5.457727 1.194842 -2.867164
v -5.457727 1.194842 -3.094803
v -5.343930 1.194842 -3.208601
v -5.116291 1.194842 -3.208601
v -5.002494 1.194842 -3.094803
v -5.002494 1.194842 -2.867164
v -5.116291 1.194842 -2.753367
v -5.343930 1.194842 -2.753367
v -5.278396 1.030546 -2.956839
v -5.278396 1.030546 -3.005129
v -5.254256 1.030546 -3.029269
v -5.205966 1.030546 -3.029269
v -5.181825 1.030546 -3.005129
v -5.181825 1.030546 -2.956839
v -5.205966 1.030546 -2.932698
v -5.254256 1.030546 -2.932698
v -5.475380 -0.076330 -2.803930
v -5.402508 -0.076330 -2.731060
v -5.430218 0.946333 -2.835691
v -5.370894 0.946333 -2.776367
v -4.989525 -0.076330 -2.803930
v -5.062396 -0.076330 -2.731060
v -5.034685 0.946333 -2.835691
v -5.094010 0.946333 -2.776367
v -5.430218 0.946333 -3.113861
v -5.370894 0.946333 -3.173184
v -5.475380 -0.076330 -3.145621
v -5.402508 -0.076330 -3.218492
v -5.094010 0.946333 -3.173184
v -5.034685 0.946333 -3.113861
v -4.989525 -0.076330 -3.145621
v -5.062396 -0.076330 -3.218492
v -5.370894 -0.076330 -2.835691
v -5.370894 -0.076330 -3.113861
v -5.094010 -0.076330 -2.835691
v -5.094010 -0.076330 -3.113861
v -5.094010 0.994707 -3.113861
v -5.370894 0.994707 -3.113861
v -5.370894 0.994707 -2.835691
v -5.094010 0.994707 -2.835691
v -5.441018 0.701785 -2.828096
v -5.441018 0.701785 -3.121456
v -5.378454 0.701785 -3.184019
v -5.086450 0.701785 -3.184019
v -5.023886 0.701785 -3.121456
v -5.023886 0.701785 -2.828096
v -5.086450 0.701785 -2.765533
v -5.378454 0.701785 -2.765533
v -5.453046 0.429421 -2.819637
v -5.453046 0.429421 -3.129914
v -5.386873 0.429421 -3.196085
v -5.078030 0.429421 -3.196085
v -5.011859 0.429421 -3.129914
v -5.011859 0.429421 -2.819637
v -5.078030 0.429421 -2.753466
v -5.386873 0.429421 -2.753466
v -5.386873 0.422709 -3.044566
v -5.078030 0.422709 -3.044566
v -5.378454 0.695072 -3.032500
v -5.086450 0.695072 -3.032500
v -5.062396 -0.114849 -2.731060
v -5.094010 -0.114849 -2.835691
v -4.989525 -0.114849 -2.803930
v -5.094010 -0.114849 -3.113861
v -5.062396 -0.114849 -3.218492
v -4.989525 -0.114849 -3.145621
v -5.475380 -0.114849 -2.803930
v -5.370894 -0.114849 -2.835691
v -5.402508 -0.114849 -2.731060
v -5.402508 -0.114849 -3.218492
v -5.475380 -0.114849 -3.145621
v -5.370894 -0.114849 -3.113861
vt 0.785517 0.231323
vt 0.928167 0.231660
vt 0.722201 0.242324
vt 0.863795 0.604907
vt 0.864480 0.621599
vt 0.856629 0.630081
vt 0.840436 0.630177
vt 0.832403 0.622073
vt 0.827684 0.232051
vt 0.858764 0.006433
vt 0.816121 0.006173
vt 0.831809 0.007644
vt 0.841502 0.601715
vt 0.884451 0.374946
vt 0.884006 0.000019
vt 0.998592 0.241574
vt 0.842937 0.007765
vt 0.869605 0.004210
vt 0.888389 0.231082
vt 0.816917 0.373324
vt 0.832399 0.605922
vt 0.854803 0.600636
vt 0.737724 0.281764
vt 0.814331 0.264348
vt 0.900734 0.267368
vt 0.892606 0.340102
vt 0.856521 0.622399
vt 0.855993 0.607313
vt 0.840400 0.622560
vt 0.840478 0.607938
vt 0.789515 0.112862
vt 0.723810 0.096781
vt 0.764877 0.500928
vt 0.814765 0.492665
vt 0.882816 0.494348
vt 0.985034 0.091476
vt 0.929321 0.504494
vt 0.926188 0.109973
vt 0.884501 0.115283
vt 0.829043 0.117125
vt 0.829678 0.039378
vt 0.812339 0.035374
vt 0.827184 0.574897
vt 0.838166 0.571339
vt 0.855758 0.570594
vt 0.894527 0.027277
vt 0.867047 0.573509
vt 0.879172 0.034431
vt 0.865192 0.037223
vt 0.844331 0.039792
vt 0.429568 0.156115
vt 0.157674 0.299995
vt 0.003307 0.289987
vt 0.436665 0.001587
vt 0.104114 0.023618
vt 0.281558 0.646615
vt 0.421452 0.696474
vt 0.022956 0.051980
vt 0.602001 0.430005
vt 0.603425 0.335251
vt 0.758096 0.332777
vt 0.756528 0.437124
vt 0.156094 0.328533
vt 0.154671 0.423287
vt 0.000000 0.425761
vt 0.001567 0.321414
vt 0.314032 0.335808
vt 0.337408 0.336159
vt 0.336132 0.421108
vt 0.312756 0.420757
vt 0.111236 0.027566
vt 0.139627 0.010005
vt 0.138474 0.043339
vt 0.253021 0.645034
vt 0.065458 0.000023
vt 0.497036 0.648699
vt 0.004269 0.010725
vt 0.039634 0.011150
vt 0.031005 0.043399
vt 0.008049 0.021866
vt 0.151385 0.010412
vt 0.050999 0.014191
vt 0.132578 0.053520
vt 0.163571 0.011802
vt 0.196925 0.011791
vt 0.178402 0.039564
vt 0.063482 0.047013
vt 0.206712 0.018319
vt 0.163567 0.000038
vt 0.063635 0.011645
vt 0.094730 0.016521
vt 0.074594 0.043148
vt 0.168025 0.045108
vt 0.105047 0.017561
vt 0.420688 0.422378
vt 0.421964 0.337429
vt 0.444064 0.422729
vt 0.445340 0.337781
vt 0.420337 0.445754
vt 0.335781 0.444484
vt 0.337759 0.312784
vt 0.422315 0.314054
vt 0.237967 0.421954
vt 0.239312 0.332366
vt 0.332349 0.519204
vt 0.258398 0.561902
vt 0.467144 0.566126
vt 0.494158 0.565443
vt 0.520129 0.336584
vt 0.518784 0.426172
vt 0.425747 0.239334
vt 0.240806 0.305385
vt 0.422148 0.650157
vt 0.327832 0.648740
vt 0.331653 0.565521
vt 0.420827 0.566861
vt 0.298599 0.693476
vt 0.327136 0.695057
vt 0.450024 0.695750
vt 0.468464 0.649422
vt 0.328394 0.314588
vt 0.431621 0.316139
vt 0.288811 0.488677
vt 0.478271 0.471464
vt 0.465958 0.491337
vt 0.285380 0.563396
vt 0.421523 0.520544
vt 0.277101 0.468442
vt 0.263227 0.487259
vt 0.491573 0.490689
vt 0.288613 0.847844
vt 0.320040 0.849585
vt 0.423905 0.851146
vt 0.455370 0.850349
vt 0.000000 0.030447
vt 0.096553 0.004899
vt 0.153194 0.017345
vt 0.105341 0.037747
vt 0.444257 0.978081
vt 0.327938 0.966632
vt 0.329214 0.881683
vt 0.413770 0.882953
vt 0.412494 0.967902
vt 0.035854 0.000009
vt 0.445824 0.873733
vt 0.150231 0.043746
vt 0.042370 0.046440
vt 0.083977 0.050244
vt 0.317804 0.998440
vt 0.421669 1.000000
vt 0.133439 0.000000
vt 0.295884 0.975852
vt 0.196921 0.000027
vt 0.297451 0.871505
vt 0.052524 0.015511
vt 0.188189 0.046092
vt 0.602703 0.306679
vt 0.519447 0.309570
vt 0.444693 0.312165
vt 0.757301 0.301312
vt 0.335252 0.154698
vt 0.332800 0.000027
vt 0.336573 0.237994
vt 0.315448 0.310224
vt 0.771537 0.362235
vt 0.812974 0.335626
vt 0.981351 0.281956
vt 0.934367 0.367801
vn 0.000000 -0.681883 0.731462
vn 0.000000 -0.681883 0.731462
vn 0.000000 0.000000 1.000000
vn 0.000000 0.000000 1.000000
vn 0.000000 0.000000 -1.000000
vn 0.000000 -0.681883 -0.731462
vn 0.000000 -0.681883 -0.731462
vn 0.000000 0.000000 -1.000000
vn 0.731464 -0.681880 0.000000
vn 0.731464 -0.681880 0.000000
vn 1.000000 0.000000 0.000000
vn 1.000000 0.000000 0.000000
vn -0.731465 -0.681879 0.000000
vn -0.731465 -0.681879 0.000000
vn -1.000000 0.000000 0.000000
vn -1.000000 0.000000 0.000000
vn -0.051250 0.906220 -0.419690
vn -0.131665 0.982512 -0.131665
vn 0.131664 0.982512 -0.131665
vn 0.051250 0.906220 -0.419689
vn 0.000000 -1.000000 0.000000
vn 0.000000 -1.000000 0.000000
vn 0.000000 -1.000000 0.000000
vn -0.707107 0.000000 0.707106
vn -0.707107 0.000000 0.707106
vn -0.504915 -0.700088 0.504914
vn -0.504915 -0.700088 0.504914
vn 0.707107 0.000000 0.707106
vn 0.707107 0.000000 0.707106
vn 0.504914 -0.700089 0.504913
vn 0.504914 -0.700089 0.504913
vn -0.504914 -0.700088 -0.504914
vn -0.504914 -0.700088 -0.504914
vn -0.707107 0.000000 -0.707106
vn -0.707107 0.000000 -0.707106
vn 0.504914 -0.700089 -0.504913
vn 0.504914 -0.700089 -0.504913
vn 0.707107 0.000000 -0.707106
vn 0.707107 0.000000 -0.707106
vn -0.131665 0.982512 0.131665
vn 0.131664 0.982512 0.131665
vn -0.419690 0.906220 -0.051250
vn -0.419690 0.906220 0.051250
vn -0.051250 0.906220 0.419690
vn 0.051250 0.906220 0.419689
vn 0.419688 0.906220 0.051250
vn 0.419688 0.906220 -0.051250
vn 0.000000 -1.000000 0.000000
vn 0.000000 -1.000000 0.000000
vn 0.000000 -1.000000 0.000000
vn 0.000000 -1.000000 0.000000
vn 0.000000 -1.000000 0.000000
vn 0.000000 -1.000000 0.000000
vn 0.000000 -1.000000 0.000000
vn 0.000000 -1.000000 0.000000
vn 0.000000 -1.000000 0.000000
vn -1.000000 0.000000 0.000000
vn -0.984512 -0.175319 0.000000
vn -0.984512 -0.175319 0.000000
vn -1.000000 0.000000 0.000000
vn -0.707106 0.000000 -0.707107
vn -0.707106 0.000000 -0.707107
vn -0.693043 -0.198449 -0.693044
vn -0.693043 -0.198449 -0.693044
vn 0.000000 -0.175320 -0.984512
vn 0.000000 -0.175320 -0.984512
vn 0.000000 0.000000 -1.000000
vn 0.000000 0.000000 -1.000000
vn 0.707106 0.000000 -0.707107
vn 0.707106 0.000000 -0.707107
vn 0.693043 -0.198449 -0.693044
vn 0.693043 -0.198449 -0.693044
vn 1.000000 0.000000 0.000000
vn 0.984512 -0.175319 0.000000
vn 0.984512 -0.175319 0.000000
vn 1.000000 0.000000 0.000000
vn 0.693043 -0.198449 0.693044
vn 0.693043 -0.198449 0.693044
vn 0.707106 0.000000 0.707107
vn 0.707106 0.000000 0.707107
vn 0.000000 0.000000 1.000000
vn 0.000000 -0.175320 0.984512
vn 0.000000 -0.175320 0.984512
vn 0.000000 0.000000 1.000000
vn -0.693043 -0.198448 0.693044
vn -0.693043 -0.198448 0.693044
vn -0.707106 0.000000 0.707107
vn -0.707106 0.000000 0.707107
vn 0.000000 0.044260 0.999020
vn 0.000000 0.044260 0.999020
vn 0.000000 0.044260 0.999020
vn 0.000000 0.044260 0.999020
vn 0.000000 0.044260 -0.999020
vn 0.000000 0.044260 -0.999020
vn 0.000000 0.044260 -0.999020
vn 0.000000 0.044260 -0.999020
vn 0.999026 0.044116 0.000000
vn 0.999026 0.044116 0.000000
vn 0.999026 0.044117 0.000000
vn 0.999026 0.044117 0.000000
vn -0.999026 0.044117 0.000000
vn -0.999026 0.044117 0.000000
vn -0.999026 0.044117 0.000000
vn -0.999026 0.044117 0.000000
vn -0.631449 0.774395 0.039795
vn -0.128322 0.983467 0.127773
vn -0.128323 0.983467 -0.127773
vn -0.631449 0.774395 -0.039795
vn 0.000000 -1.000000 0.000000
vn 0.000000 -1.000000 0.000000
vn 0.000000 -1.000000 0.000000
vn -0.706242 0.049173 0.706261
vn -0.706242 0.049173 0.706261
vn -0.706101 0.053111 0.706117
vn -0.706101 0.053111 0.706117
vn 0.706249 0.049173 0.706253
vn 0.706249 0.049173 0.706253
vn 0.706107 0.053111 0.706111
vn 0.706107 0.053111 0.706111
vn -0.706102 0.053111 -0.706115
vn -0.706102 0.053111 -0.706115
vn -0.706244 0.049173 -0.706258
vn -0.706244 0.049173 -0.706258
vn 0.706108 0.053110 -0.706109
vn 0.706108 0.053110 -0.706109
vn 0.706252 0.049173 -0.706251
vn 0.706252 0.049173 -0.706251
vn 0.000000 -1.000000 0.000000
vn 0.000000 -1.000000 0.000000
vn 0.000000 -1.000000 0.000000
vn 0.000000 -1.000000 0.000000
vn 0.000000 -1.000000 0.000000
vn 0.000000 -1.000000 0.000000
vn 0.000000 -1.000000 0.000000
vn 0.000000 -1.000000 0.000000
vn 0.000000 -1.000000 0.000000
vn 0.000000 -1.000000 0.000000
vn 0.000000 -1.000000 0.000000
vn 0.000000 -1.000000 0.000000
vn 0.000000 -1.000000 0.000000
vn 0.000000 -1.000000 0.000000
vn 0.000000 -1.000000 0.000000
vn 0.000000 -1.000000 0.000000
vn 0.000000 -1.000000 0.000000
vn 0.000000 -1.000000 0.000000
vn 0.000000 -1.000000 0.000000
vn 0.000000 -1.000000 0.000000
vn 0.000000 -1.000000 0.000000
vn 0.128322 0.983467 -0.127773
vn 0.128322 0.983467 0.127773
vn 0.631446 0.774398 -0.039795
vn 0.631446 0.774398 0.039795
vn 0.039968 0.774387 -0.631449
vn -0.039968 0.774387 -0.631449
vn -0.039969 0.774384 0.631452
vn 0.039969 0.774385 0.631452
vn -0.999026 0.044121 0.000000
vn -0.999026 0.044118 0.000000
vn -0.999026 0.044118 0.000000
vn -0.999026 0.044121 0.000000
vn -0.706106 0.053115 -0.706111
vn -0.706106 0.053115 -0.706111
vn -0.706105 0.053112 -0.706113
vn -0.706105 0.053112 -0.706113
vn 0.000000 0.044261 -0.999020
vn 0.000000 0.044261 -0.999020
vn 0.000000 0.044261 -0.999020
vn 0.000000 0.044261 -0.999020
vn 0.706105 0.053113 -0.706113
vn 0.706105 0.053113 -0.706113
vn 0.706106 0.053111 -0.706111
vn 0.706106 0.053111 -0.706111
vn 0.999026 0.044118 0.000000
vn 0.999026 0.044116 0.000000
vn 0.999026 0.044116 0.000000
vn 0.999026 0.044118 0.000000
vn 0.706106 0.053111 0.706111
vn 0.706106 0.053111 0.706111
vn 0.706105 0.053113 0.706113
vn 0.706105 0.053113 0.706113
vn 0.000000 0.044261 0.999020
vn 0.000000 0.044260 0.999020
vn 0.000000 0.044260 0.999020
vn 0.000000 0.044261 0.999020
vn -0.706105 0.053112 0.706113
vn -0.706105 0.053112 0.706113
vn -0.706106 0.053115 0.706111
vn -0.706106 0.053115 0.706111
vn 0.000000 0.044259 -0.999020
vn 0.000000 0.044259 -0.999020
vn 0.000000 0.044259 -0.999020
vn 0.000000 0.044259 -0.999020
vn 0.000000 0.999020 0.044259
vn 0.000000 0.999020 0.044259
vn 0.000000 0.999020 0.044259
vn 0.000000 0.999020 0.044259
vn 0.999524 -0.030836 -0.001366
vn 0.999524 -0.030836 -0.001366
vn 0.999524 -0.030836 -0.001366
vn 0.999524 -0.030836 -0.001366
vn 0.000000 -0.999020 -0.044259
vn 0.000000 -0.999020 -0.044259
vn 0.000000 -0.999020 -0.044259
vn 0.000000 -0.999020 -0.044259
vn -0.999524 -0.030837 -0.001366
vn -0.999524 -0.030837 -0.001366
vn -0.999524 -0.030837 -0.001366
vn -0.999524 -0.030837 -0.001366
vn -0.957258 0.000000 0.289235
vn -0.957258 0.000000 0.289235
vn -0.957258 0.000000 0.289235
vn -0.957258 0.000000 0.289235
vn 0.290833 0.000000 -0.956774
vn 0.290833 0.000000 -0.956774
vn 0.290833 0.000000 -0.956774
vn 0.290833 0.000000 -0.956774
vn 0.707107 0.000000 0.707107
vn 0.707107 0.000000 0.707107
vn -0.957259 0.000000 -0.289234
vn -0.957259 0.000000 -0.289234
vn -0.957259 0.000000 -0.289234
vn -0.957259 0.000000 -0.289234
vn 0.707107 0.000000 -0.707107
vn 0.707107 0.000000 -0.707107
vn 0.290836 0.000000 0.956773
vn 0.290836 0.000000 0.956773
vn 0.290836 0.000000 0.956773
vn 0.290836 0.000000 0.956773
vn -0.290830 0.000000 -0.956775
vn -0.290830 0.000000 -0.956775
vn -0.290830 0.000000 -0.956775
vn -0.290830 0.000000 -0.956775
vn 0.957259 0.000000 0.289231
vn 0.957259 0.000000 0.289231
vn 0.957259 0.000000 0.289231
vn 0.957259 0.000000 0.289231
vn -0.707100 0.000000 0.707113
vn -0.707100 0.000000 0.707113
vn -0.707100 0.000000 -0.707113
vn -0.707100 0.000000 -0.707113
vn 0.957260 0.000000 -0.289230
vn 0.957260 0.000000 -0.289230
vn 0.957260 0.000000 -0.289230
vn 0.957260 0.000000 -0.289230
vn -0.290833 0.000000 0.956774
vn -0.290833 0.000000 0.956774
vn -0.290833 0.000000 0.956774
vn -0.290833 0.000000 0.956774
s 1
g water
usemtl initialShadingGroup
f 39/49/1 40/50/2 2/17/3 6/10/4
s 2
f 12/13/5 35/44/6 36/45/7 16/22/8
s 3
f 37/46/9 38/48/10 5/18/11 15/15/12
s 4
f 33/41/13 34/42/14 11/11/15 1/12/16
s 5
f 10/20/17 17/166/18 20/26/19 13/14/20
s 6
f 6/6/21 21/27/22 5/5/23
s 7
f 1/12/24 2/17/25 40/50/26 33/41/27
s 8
f 6/10/28 5/18/29 38/48/30 39/49/31
s 9
f 34/43/32 35/44/33 12/13/34 11/21/35
s 10
f 36/45/36 37/47/37 15/4/38 16/22/39
s 5
f 17/166/18 18/24/40 19/25/41 20/26/19
f 9/165/42 17/166/18 10/20/17
f 3/1/43 18/24/40 17/23/18 9/3/42
f 3/1/43 4/9/44 18/24/40
f 8/19/45 19/25/41 18/24/40 4/9/44
f 7/2/46 19/25/41 8/19/45
f 20/167/19 19/25/41 7/2/46 14/16/47
f 13/14/20 20/26/19 14/168/47
s 6
f 15/4/48 22/28/49 16/22/50
f 2/7/51 23/29/52 21/27/22 6/6/21
f 24/30/53 12/13/54 16/22/50 22/28/49
f 21/27/22 22/28/49 15/4/48 5/5/23
f 23/29/52 24/30/53 22/28/49 21/27/22
f 1/8/55 23/29/52 2/7/51
f 11/21/56 24/30/53 23/29/52 1/8/55
f 11/21/56 12/13/54 24/30/53
s 4
f 9/3/57 26/32/58 25/31/59 3/1/60
s 9
f 9/165/61 10/20/62 27/34/63 26/33/64
s 2
f 28/35/65 27/34/66 10/20/67 13/14/68
s 10
f 13/14/69 14/168/70 29/37/71 28/35/72
s 3
f 7/2/73 30/38/74 29/36/75 14/16/76
s 8
f 31/39/77 30/38/78 7/2/79 8/19/80
s 1
f 4/9/81 32/40/82 31/39/83 8/19/84
s 7
f 25/31/85 32/40/86 4/9/87 3/1/88
s 4
f 25/31/59 26/32/58 34/42/14 33/41/13
s 9
f 26/33/64 27/34/63 35/44/33 34/43/32
s 2
f 36/45/7 35/44/6 27/34/66 28/35/65
s 10
f 28/35/72 29/37/71 37/47/37 36/45/36
s 3
f 29/36/75 30/38/74 38/48/10 37/46/9
s 8
f 39/49/31 38/48/30 30/38/78 31/39/77
s 1
f 31/39/83 32/40/82 40/50/2 39/49/1
s 7
f 33/41/27 40/50/26 32/40/86 25/31/85
s 11
f 79/51/89 80/161/90 42/162/91 46/54/92
s off
f 52/132/93 75/118/94 76/57/95 56/133/96
s 12
f 77/59/97 78/60/98 45/61/99 55/62/100
s 13
f 73/63/101 74/64/102 51/65/103 41/66/104
s 14
f 43/67/105 63/68/106 62/69/107 49/70/108
s off
f 85/71/109 86/72/110 87/73/111
s 15
f 41/66/112 42/53/113 80/52/114 73/63/115
s 16
f 46/160/116 45/61/117 78/60/118 79/157/119
s 17
f 74/117/120 75/118/121 52/132/122 51/131/123
s 18
f 76/57/124 77/119/125 55/134/126 56/133/127
s off
f 88/78/128 89/79/129 90/80/130
s 19
f 59/143/131 60/142/132 55/145/133 45/139/134
s off
f 91/84/135 92/85/136 93/86/137
s 19
f 51/154/138 58/141/139 57/140/140 41/152/141
s off
f 95/90/142 94/91/143 96/92/144
s 19
f 42/149/145 57/140/140 59/143/131 46/150/146
f 57/140/140 58/141/139 60/142/132 59/143/131
f 58/141/139 52/132/147 56/133/148 60/142/132
s 14
f 61/95/149 62/69/107 63/68/106 64/96/150
f 54/97/151 61/95/149 64/96/150 47/98/152
f 53/125/153 61/124/149 54/130/151
f 50/100/154 62/69/107 61/95/149 53/99/153
f 49/129/108 62/128/107 50/123/154
f 43/67/105 44/121/155 63/68/106
f 64/96/150 63/68/106 44/101/155 48/102/156
f 47/98/152 64/96/150 48/122/156
s 13
f 49/70/157 66/103/158 65/104/159 43/67/160
s 17
f 49/129/161 50/123/162 67/126/163 66/106/164
s off
f 68/127/165 67/105/166 50/100/167 53/99/168
s 18
f 53/125/169 54/130/170 69/108/171 68/107/172
s 12
f 47/98/173 70/109/174 69/110/175 54/97/176
s 16
f 71/158/177 70/109/178 47/98/179 48/159/180
s 11
f 44/101/181 72/163/182 71/111/183 48/102/184
s 15
f 65/104/185 72/112/186 44/164/187 43/67/188
s 13
f 65/104/159 66/103/158 74/64/102 73/63/101
s 17
f 66/106/164 67/126/163 75/56/121 74/74/120
s off
f 82/113/189 81/114/190 83/115/191 84/116/192
s 18
f 68/107/172 69/108/171 77/76/125 76/120/124
s 12
f 69/110/175 70/109/174 78/60/98 77/59/97
s 16
f 79/157/119 78/60/118 70/109/178 71/158/177
s 11
f 71/111/183 72/163/182 80/161/90 79/51/89
s 15
f 73/63/115 80/52/114 72/112/186 65/104/185
s off
f 76/57/193 75/118/194 81/114/195 82/113/196
f 75/56/197 67/126/198 83/115/199 81/114/200
f 67/105/201 68/127/202 84/116/203 83/115/204
f 68/107/205 76/120/206 82/113/207 84/116/208
f 46/94/209 59/151/210 86/72/211 85/71/212
f 59/81/213 45/146/214 87/73/215 86/72/216
s 16
f 45/83/117 46/138/116 85/71/217 87/73/218
s off
f 60/82/219 56/147/220 89/79/221 88/78/222
s 18
f 56/58/127 55/135/126 90/80/223 89/79/224
s off
f 55/77/225 60/144/226 88/78/227 90/80/228
f 41/89/229 57/153/230 92/85/231 91/84/232
f 57/88/233 42/156/234 93/86/235 92/85/236
s 15
f 42/93/113 41/137/112 91/84/237 93/86/238
s 17
f 51/75/123 52/136/122 94/91/239 95/90/240
s off
f 52/55/241 58/148/242 96/92/243 94/91/244
f 58/87/245 51/155/246 95/90/247 96/92/248
