# This file uses centimeters as units for non-parametric coordinates.

mtllib ashtray.mtl
g default
v -0.168143 -0.018566 -2.501490
v -0.089051 -0.018566 -2.422399
v -0.259051 0.063545 -2.458720
v -0.137198 0.063545 -2.336867
v 0.168143 -0.018566 -2.501490
v 0.089051 -0.018566 -2.422399
v 0.259051 0.063545 -2.458720
v 0.137198 0.063545 -2.336867
v -0.259051 0.063545 -2.702475
v -0.137198 0.063545 -2.824328
v -0.168143 -0.018566 -2.659705
v -0.089051 -0.018566 -2.738796
v 0.137198 0.063545 -2.824328
v 0.259051 0.063545 -2.702475
v 0.168143 -0.018566 -2.659705
v 0.089051 -0.018566 -2.738796
v -0.096982 0.063545 -2.408311
v -0.183116 0.063545 -2.494446
v 0.096982 0.063545 -2.408311
v 0.183116 0.063545 -2.494446
v 0.183116 0.063545 -2.666749
v 0.096982 0.063545 -2.752884
v -0.096982 0.063545 -2.752884
v -0.183116 0.063545 -2.666749
v -0.137198 0.123762 -2.336867
v -0.259051 0.123762 -2.458720
v -0.096982 0.123762 -2.408311
v -0.183116 0.123762 -2.494446
v 0.137198 0.123762 -2.336867
v 0.096982 0.123762 -2.408311
v 0.259051 0.123762 -2.458720
v 0.183116 0.123762 -2.494446
v 0.259051 0.123762 -2.702475
v 0.183116 0.123762 -2.666749
v 0.137198 0.123762 -2.824328
v 0.096982 0.123762 -2.752884
v -0.137198 0.123762 -2.824328
v -0.096982 0.123762 -2.752884
v -0.259051 0.123762 -2.702475
v -0.183116 0.123762 -2.666749
v 0.089051 -0.018566 -2.659705
v -0.089051 -0.018566 -2.659705
v -0.089051 -0.018566 -2.501490
v 0.089051 -0.018566 -2.501490
v -0.096982 0.063545 -2.666749
v -0.096982 0.063545 -2.494446
v 0.096981 0.063545 -2.666749
v 0.096981 0.063545 -2.494446
v -0.137198 0.172509 -2.336867
v 0.137198 0.172509 -2.336867
v 0.096982 0.172509 -2.408311
v -0.096982 0.172509 -2.408311
v 0.259051 0.172509 -2.458720
v 0.259051 0.172509 -2.702475
v 0.183116 0.172509 -2.666749
v 0.183116 0.172509 -2.494446
v -0.137198 0.172509 -2.824328
v 0.137198 0.172509 -2.824328
v -0.096982 0.172509 -2.752884
v 0.096982 0.172509 -2.752884
v -0.259051 0.172509 -2.458720
v -0.259051 0.172509 -2.702475
v -0.183116 0.172509 -2.494446
v -0.183116 0.172509 -2.666749
vt 0.000000 0.087011
vt 0.777959 0.288688
vt 0.000000 0.465149
vt 0.898838 0.677657
vt 0.900349 0.805833
vt 0.837030 0.870663
vt 0.692743 0.872364
vt 0.627912 0.809045
vt 0.288005 0.000010
vt 0.526750 0.647390
vt 0.626401 0.680870
vt 0.689721 0.616039
vt 0.489954 0.753827
vt 1.000000 0.839312
vt 0.989447 0.624355
vt 0.537303 0.862347
vt 0.663605 0.000000
vt 0.856479 0.219122
vt 0.947924 0.357207
vt 0.834008 0.614338
vt 0.118686 0.198996
vt 0.314219 0.235254
vt 0.548672 0.114921
vt 0.539177 0.311167
vt 0.857968 0.221064
vt 0.463739 0.518583
vt 0.910752 0.065920
vt 0.238782 0.442670
vt 0.111380 0.234859
vt 0.286682 0.048780
vt 0.281684 0.165438
vt 0.193798 0.301799
vt 0.541721 0.114586
vt 0.472631 0.190745
vt 0.729189 0.287366
vt 0.611588 0.277381
vt 0.666579 0.518978
vt 0.584161 0.452038
vt 0.491277 0.705057
vt 0.496275 0.588399
vt 0.236238 0.639251
vt 0.305327 0.563092
vt 0.048769 0.466471
vt 0.166371 0.476456
vt 0.834763 0.678413
vt 0.690476 0.680114
vt 0.691987 0.808289
vt 0.836274 0.806588
vt 0.308542 0.444562
vt 0.312327 0.305014
vt 0.465631 0.448823
vt 0.469416 0.309275
vt 0.285611 0.088260
vt 0.507843 0.094287
vt 0.473702 0.151266
vt 0.316613 0.147005
vt 0.689709 0.286295
vt 0.684355 0.483710
vt 0.623641 0.453109
vt 0.627426 0.313561
vt 0.492347 0.665577
vt 0.270116 0.659550
vt 0.304256 0.602571
vt 0.461346 0.606832
vt 0.088249 0.467542
vt 0.093604 0.270127
vt 0.154318 0.300728
vt 0.150533 0.440276
vt 0.654870 0.968878
vt 0.894636 0.956865
vt 0.510236 0.006038
vt 0.109192 0.000004
vt 0.625518 0.030489
vt 0.139595 0.038160
vt 0.586759 0.084432
vt 0.165468 0.099338
vt 0.471309 0.239515
vt 0.195871 0.137493
vt 0.005354 0.267733
vt 0.030403 0.125166
vt 0.752061 0.114383
vt 0.800664 0.066839
vt 0.088283 0.160840
vt 0.188030 0.206837
vt 0.242567 0.303122
vt 0.821918 0.022925
vt 0.750857 0.108996
vt 0.712770 0.139485
vt 0.648435 0.161478
vt 0.610348 0.191967
vt 0.540987 0.184282
vt 0.772604 0.486104
vt 0.927044 0.313113
vt 0.878847 0.265157
vt 0.535392 0.450715
vt 0.871881 0.517824
vt 0.632114 0.529837
vt 0.800859 0.372866
vt 0.877733 0.175208
vt 0.789651 0.307395
vt 0.889498 0.109834
vt 0.768771 0.263302
vt 0.792250 0.197584
vt 0.306650 0.514322
vt 0.887833 0.000005
vt 0.267722 0.747799
vt 0.821739 0.416960
vt 0.730807 0.158297
vt 0.877168 0.966257
vt 0.992190 0.856984
vt 0.997672 0.641838
vt 0.889566 0.526801
vt 0.649583 0.520445
vt 0.534560 0.629719
vt 0.529079 0.844864
vt 0.637185 0.959901
vt 0.462417 0.567352
vt 0.270378 0.582272
vt 0.527276 0.647144
vt 0.269045 0.699030
vt 0.723835 0.484781
vt 0.673871 0.250115
vt 0.587946 0.312490
vt 0.605865 0.488376
vt 0.190013 0.441347
vt 0.104087 0.503722
vt 0.054124 0.269056
vt 0.172094 0.265461
vt 0.250682 0.106692
vt 0.508913 0.054807
vt 0.315542 0.186485
vt 0.507581 0.171565
vn 0.000000 -0.721388 0.692531
vn 0.000000 -0.721388 0.692531
vn 0.000000 -0.721388 0.692531
vn 0.000000 -0.721388 0.692531
vn 0.000000 -0.721388 -0.692531
vn 0.000000 -0.721388 -0.692531
vn 0.000000 -0.721388 -0.692531
vn 0.000000 -0.721388 -0.692531
vn 0.670285 -0.742104 0.000000
vn 0.670285 -0.742104 0.000000
vn 0.670285 -0.742104 0.000000
vn 0.670285 -0.742104 0.000000
vn -0.670285 -0.742104 0.000000
vn -0.670285 -0.742104 0.000000
vn -0.670285 -0.742104 0.000000
vn -0.670285 -0.742104 0.000000
vn 0.000000 1.000000 0.000000
vn 0.000000 1.000000 0.000000
vn 0.000000 1.000000 0.000000
vn 0.000000 -1.000000 -0.000000
vn -0.000000 -1.000000 0.000000
vn -0.000000 -1.000000 0.000000
vn -0.463715 -0.754942 0.463714
vn -0.463715 -0.754943 0.463714
vn -0.463715 -0.754943 0.463714
vn -0.463715 -0.754942 0.463714
vn 0.463715 -0.754942 0.463714
vn 0.463715 -0.754942 0.463714
vn 0.463715 -0.754943 0.463714
vn 0.463715 -0.754943 0.463714
vn -0.463715 -0.754942 -0.463714
vn -0.463715 -0.754943 -0.463714
vn -0.463715 -0.754943 -0.463714
vn -0.463715 -0.754942 -0.463714
vn 0.463715 -0.754943 -0.463714
vn 0.463715 -0.754943 -0.463714
vn 0.463715 -0.754943 -0.463714
vn 0.463715 -0.754943 -0.463714
vn 0.000000 1.000000 0.000000
vn 0.000000 1.000000 0.000000
vn 0.000000 1.000000 0.000000
vn 0.000000 1.000000 0.000000
vn 0.000000 1.000000 0.000000
vn 0.000000 1.000000 0.000000
vn 0.000000 1.000000 0.000000
vn 0.000000 1.000000 0.000000
vn 0.000000 1.000000 0.000000
vn 0.000000 1.000000 0.000000
vn 0.000000 1.000000 0.000000
vn 0.000000 1.000000 0.000000
vn 0.000000 1.000000 0.000000
vn 0.000000 1.000000 0.000000
vn 0.000000 1.000000 0.000000
vn 0.000000 1.000000 0.000000
vn 0.000000 1.000000 -0.000000
vn 0.000000 1.000000 -0.000000
vn 0.000000 1.000000 -0.000000
vn 0.000000 1.000000 -0.000000
vn 0.000000 1.000000 -0.000000
vn 0.000000 1.000000 -0.000000
vn 0.000000 1.000000 -0.000000
vn 0.000000 1.000000 -0.000000
vn 0.000000 1.000000 0.000000
vn 0.000000 1.000000 0.000000
vn 0.000000 1.000000 0.000000
vn 0.000000 1.000000 0.000000
vn 0.000000 1.000000 0.000000
vn 0.000000 1.000000 0.000000
vn 0.000000 1.000000 0.000000
vn 0.000000 1.000000 0.000000
vn -0.707108 0.000000 0.707106
vn -0.707108 0.000000 0.707106
vn -0.707108 0.000000 0.707106
vn -0.707108 0.000000 0.707106
vn 0.707107 0.000000 -0.707107
vn 0.707107 0.000000 -0.707107
vn 0.707107 0.000000 -0.707107
vn 0.707107 0.000000 -0.707107
vn 0.000000 0.000000 1.000000
vn 0.000000 0.000000 1.000000
vn 0.000000 0.000000 1.000000
vn 0.000000 0.000000 1.000000
vn 0.000000 0.000000 -1.000000
vn 0.000000 0.000000 -1.000000
vn 0.000000 0.000000 -1.000000
vn 0.000000 0.000000 -1.000000
vn 0.707108 0.000000 0.707106
vn 0.707108 0.000000 0.707106
vn 0.707108 0.000000 0.707106
vn 0.707108 0.000000 0.707106
vn -0.707107 0.000000 -0.707107
vn -0.707107 0.000000 -0.707107
vn -0.707107 0.000000 -0.707107
vn -0.707107 0.000000 -0.707107
vn 1.000000 0.000000 0.000000
vn 1.000000 0.000000 0.000000
vn 1.000000 0.000000 0.000000
vn 1.000000 0.000000 0.000000
vn -1.000000 0.000000 0.000000
vn -1.000000 0.000000 0.000000
vn -1.000000 0.000000 0.000000
vn -1.000000 0.000000 0.000000
vn 0.707107 0.000000 -0.707106
vn 0.707107 0.000000 -0.707106
vn 0.707107 0.000000 -0.707106
vn 0.707107 0.000000 -0.707106
vn -0.707107 0.000000 0.707107
vn -0.707107 0.000000 0.707107
vn -0.707107 0.000000 0.707107
vn -0.707107 0.000000 0.707107
vn 0.000000 0.000000 -1.000000
vn 0.000000 0.000000 -1.000000
vn 0.000000 0.000000 -1.000000
vn 0.000000 0.000000 -1.000000
vn 0.000000 0.000000 1.000000
vn 0.000000 0.000000 1.000000
vn 0.000000 0.000000 1.000000
vn 0.000000 0.000000 1.000000
vn -0.707107 0.000000 -0.707106
vn -0.707107 0.000000 -0.707106
vn -0.707107 0.000000 -0.707106
vn -0.707107 0.000000 -0.707106
vn 0.707107 0.000000 0.707107
vn 0.707107 0.000000 0.707107
vn 0.707107 0.000000 0.707107
vn 0.707107 0.000000 0.707107
vn -1.000000 0.000000 0.000000
vn -1.000000 0.000000 0.000000
vn -1.000000 0.000000 0.000000
vn -1.000000 0.000000 0.000000
vn 1.000000 0.000000 0.000000
vn 1.000000 0.000000 0.000000
vn 1.000000 0.000000 0.000000
vn 1.000000 0.000000 0.000000
vn 0.000000 -1.000000 0.000000
vn -0.000000 -1.000000 -0.000000
vn -0.000000 -1.000000 0.000000
vn 0.000000 -1.000000 0.000000
vn -0.000000 -1.000000 -0.000000
vn 0.000000 -1.000000 0.000000
vn 0.000000 -1.000000 0.000000
vn -0.000000 -1.000000 -0.000000
vn 0.000000 -1.000000 -0.000000
vn 0.000000 1.000000 0.000000
vn 0.000000 1.000000 0.000000
vn 0.000000 1.000000 0.000000
vn 0.000000 1.000000 0.000000
vn 0.000000 1.000000 0.000000
vn 0.000000 1.000000 0.000000
vn 0.000000 1.000000 -0.000000
vn 0.000000 1.000000 -0.000000
vn 0.000000 1.000000 -0.000000
vn 0.000000 0.000000 1.000000
vn 0.000000 0.000000 1.000000
vn 0.871423 0.000000 -0.490532
vn 0.871423 0.000000 -0.490532
vn 0.871423 0.000000 -0.490532
vn 0.871423 0.000000 -0.490532
vn 0.000000 0.000000 -1.000000
vn 0.000000 0.000000 -1.000000
vn -0.871423 0.000000 -0.490532
vn -0.871423 0.000000 -0.490532
vn -0.871423 0.000000 -0.490532
vn -0.871423 0.000000 -0.490532
vn 1.000000 0.000000 0.000000
vn 1.000000 0.000000 0.000000
vn -0.425713 0.000000 -0.904858
vn -0.425713 0.000000 -0.904858
vn -0.425713 0.000000 -0.904858
vn -0.425713 0.000000 -0.904858
vn -1.000000 0.000000 0.000000
vn -1.000000 0.000000 0.000000
vn -0.425713 0.000000 0.904858
vn -0.425713 0.000000 0.904858
vn -0.425713 0.000000 0.904858
vn -0.425713 0.000000 0.904858
vn 0.000000 0.000000 -1.000000
vn 0.000000 0.000000 -1.000000
vn -0.871423 0.000000 0.490532
vn -0.871423 0.000000 0.490532
vn -0.871423 0.000000 0.490532
vn -0.871423 0.000000 0.490532
vn 0.000000 0.000000 1.000000
vn 0.000000 0.000000 1.000000
vn 0.871423 0.000000 0.490532
vn 0.871423 0.000000 0.490532
vn 0.871423 0.000000 0.490532
vn 0.871423 0.000000 0.490532
vn -1.000000 0.000000 0.000000
vn -1.000000 0.000000 0.000000
vn 0.425713 0.000000 0.904858
vn 0.425713 0.000000 0.904858
vn 0.425713 0.000000 0.904858
vn 0.425713 0.000000 0.904858
vn 1.000000 0.000000 0.000000
vn 1.000000 0.000000 0.000000
vn 0.425713 0.000000 -0.904858
vn 0.425713 0.000000 -0.904858
vn 0.425713 0.000000 -0.904858
vn 0.425713 0.000000 -0.904858
s off
g pCube5
usemtl initialShadingGroup
f 4/69/1 2/7/2 6/6/3 8/109/4
f 12/12/5 10/113/6 13/96/7 16/20/8
f 7/14/9 5/5/10 15/4/11 14/111/12
f 9/10/13 11/11/14 1/8/15 3/115/16
s 1
f 48/91/17 19/23/18 20/90/19
s 2
f 11/11/20 12/12/21 42/46/22
s off
f 1/8/23 2/7/24 4/116/25 3/16/26
f 6/6/27 5/5/28 7/110/29 8/70/30
f 9/114/31 10/97/32 12/12/33 11/11/34
f 13/112/35 14/15/36 15/4/37 16/20/38
f 26/80/39 25/74/40 27/76/41 28/83/42
f 49/53/43 50/54/44 51/55/45 52/56/46
f 29/73/47 31/88/48 32/89/49 30/75/50
f 53/57/51 54/58/52 55/59/53 56/60/54
f 33/93/55 35/98/56 36/100/57 34/94/58
f 58/61/59 57/62/60 59/63/61 60/64/62
f 37/99/63 39/81/64 40/82/65 38/101/66
f 62/65/67 61/66/68 63/67/69 64/68/70
f 3/1/71 4/72/72 25/74/73 26/80/74
f 17/78/75 18/21/76 28/83/77 27/76/78
s 3
f 4/9/79 8/71/80 29/130/81 25/30/82
s 4
f 19/77/83 17/22/84 27/131/85 30/34/86
s off
f 8/17/87 7/87/88 31/88/89 29/73/90
f 20/90/91 19/23/92 30/75/93 32/89/94
s 5
f 7/2/95 14/92/96 33/121/97 31/35/98
s 6
f 21/95/99 20/24/100 32/123/101 34/38/102
s off
f 14/19/103 13/107/104 35/98/105 33/93/106
f 22/102/107 21/25/108 34/94/109 36/100/110
s 7
f 13/13/111 10/106/112 37/120/113 35/39/114
s 8
f 23/104/115 22/26/116 36/117/117 38/42/118
s off
f 10/18/119 9/108/120 39/81/121 37/99/122
f 24/86/123 23/27/124 38/101/125 40/82/126
s 9
f 9/3/127 3/79/128 26/127/129 39/43/130
s 10
f 18/85/131 24/28/132 40/125/133 28/32/134
s 2
f 15/4/135 41/45/136 16/20/137
f 41/45/136 42/46/22 12/12/21 16/20/137
f 6/6/138 44/48/139 5/5/140
f 2/7/141 43/47/142 44/48/139 6/6/138
f 1/8/143 43/47/142 2/7/141
f 11/11/20 42/46/22 43/47/142 1/8/143
f 44/48/139 43/47/142 42/46/22 41/45/136
f 5/5/140 44/48/139 41/45/136 15/4/135
s 1
f 22/102/144 47/103/145 21/25/146
f 47/51/145 48/52/17 20/24/19 21/95/146
f 24/86/147 45/105/148 23/27/149
f 18/85/150 46/50/151 45/49/148 24/28/147
f 18/21/150 17/78/152 46/84/151
f 23/104/149 45/49/148 47/51/145 22/26/144
f 45/49/148 46/50/151 48/52/17 47/51/145
f 46/50/151 17/22/152 19/77/18 48/52/17
s 3
f 25/30/82 29/130/81 50/54/153 49/53/154
s off
f 29/33/155 30/132/156 51/55/157 50/54/158
s 4
f 30/34/86 27/131/85 52/56/159 51/55/160
s off
f 27/31/161 25/129/162 49/53/163 52/56/164
s 5
f 31/35/98 33/121/97 54/58/165 53/57/166
s off
f 33/37/167 34/124/168 55/59/169 54/58/170
s 6
f 34/38/102 32/123/101 56/60/171 55/59/172
s off
f 32/36/173 31/122/174 53/57/175 56/60/176
s 7
f 35/39/114 37/120/113 57/62/177 58/61/178
s off
f 37/41/179 38/118/180 59/63/181 57/62/182
s 8
f 38/42/118 36/117/117 60/64/183 59/63/184
s off
f 36/40/185 35/119/186 58/61/187 60/64/188
s 9
f 39/43/130 26/127/129 61/66/189 62/65/190
s off
f 26/29/191 28/128/192 63/67/193 61/66/194
s 10
f 28/32/134 40/125/133 64/68/195 63/67/196
s off
f 40/44/197 39/126/198 62/65/199 64/68/200
