# This file uses centimeters as units for non-parametric coordinates.

mtllib bathtub.mtl
g default
v -6.590726 0.798310 -8.466238
v -6.510853 0.798310 -8.466238
v -6.582312 1.033968 -8.466238
v -6.519268 1.033968 -8.466238
v -6.582312 1.088526 -8.527662
v -6.519268 1.088526 -8.527662
v -6.590726 0.798310 -8.571607
v -6.510853 0.798310 -8.571607
v -6.582312 1.074584 -8.424358
v -6.519268 1.074584 -8.424358
v -6.519268 1.136344 -8.468322
v -6.582312 1.136344 -8.468322
v -6.582312 1.051817 -8.244385
v -6.519268 1.051817 -8.244385
v -6.519268 1.113577 -8.288348
v -6.582312 1.113577 -8.288348
v -7.799119 0.046049 -7.432368
v -7.421200 0.046049 -7.054449
v -7.929290 0.812271 -7.391744
v -7.510754 0.812271 -6.973208
v -5.376750 0.046049 -7.432368
v -5.754670 0.046049 -7.054449
v -5.246579 0.812271 -7.391744
v -5.665115 0.812271 -6.973208
v -7.929290 0.812271 -8.228983
v -7.510754 0.812271 -8.647518
v -7.799119 0.046049 -8.188358
v -7.421200 0.046049 -8.566278
v -5.665115 0.812271 -8.647518
v -5.246579 0.812271 -8.228983
v -5.376750 0.046049 -8.188358
v -5.754670 0.046049 -8.566278
v -5.665115 0.046049 -8.228983
v -7.510754 0.046049 -8.228983
v -7.510754 0.046049 -7.391744
v -5.665115 0.046049 -7.391744
v -7.929290 0.812271 -7.777891
v -7.799119 0.046049 -7.781042
v -7.510754 0.046049 -7.777891
v -5.665115 0.046049 -7.777891
v -5.376750 0.046049 -7.781042
v -5.246579 0.812271 -7.777891
v -5.555033 0.802619 -8.401184
v -5.573969 0.646329 -8.373909
v -5.320608 0.812271 -7.764415
v -5.350966 0.650919 -7.765233
v -7.621830 0.802619 -8.401184
v -7.601932 0.646329 -8.373909
v -7.620841 0.802619 -7.219543
v -7.601932 0.646329 -7.246818
v -7.865569 0.812270 -7.764516
v -7.835768 0.650919 -7.765234
v -5.556101 0.802619 -7.219543
v -5.573969 0.646329 -7.246818
v -7.625434 0.196948 -7.771647
v -7.772507 0.375874 -7.767492
v -7.453637 0.206600 -7.397603
v -7.553468 0.384976 -7.273338
v -5.716486 0.206600 -7.399138
v -5.619853 0.386826 -7.272724
v -5.563477 0.196948 -7.771978
v -5.413793 0.376480 -7.767476
v -5.719927 0.206600 -8.223404
v -5.620574 0.385599 -8.347594
v -7.448605 0.206600 -8.221392
v -7.554418 0.386545 -8.347909
vt 0.534108 0.018613
vt 0.546701 0.019537
vt 0.531386 0.062770
vt 0.544021 0.063142
vt 0.517881 0.065445
vt 0.557481 0.067008
vt 0.578036 0.020509
vt 0.563644 0.019111
vt 0.580312 0.001652
vt 0.565921 0.000000
vt 0.530353 0.075969
vt 0.543159 0.076564
vt 0.555329 0.076524
vt 0.518860 0.074134
vt 0.529046 0.108489
vt 0.539190 0.109700
vt 0.548312 0.103253
vt 0.520767 0.100658
vt 0.475786 1.000000
vt 0.552431 0.112543
vt 0.205229 0.135633
vt 0.062031 0.930778
vt 0.495480 0.404474
vt 0.569336 0.611222
vt 0.150387 0.541597
vt 0.202476 0.401439
vt 0.001525 0.192832
vt 0.138096 0.201390
vt 0.137461 0.262693
vt 0.000822 0.260723
vt 0.700006 0.267966
vt 0.563355 0.267104
vt 0.563990 0.205801
vt 0.700709 0.200074
vt 0.136719 0.334306
vt 0.187345 0.341973
vt 0.626639 0.846441
vt 0.002089 0.845147
vt 0.699184 0.347275
vt 0.562613 0.338717
vt 0.000000 0.340033
vt 0.511839 0.345335
vt 0.188869 0.194772
vt 0.498233 0.138668
vt 0.513364 0.198134
vt 0.512661 0.266025
vt 0.188166 0.262664
vt 0.048616 0.657991
vt 0.134693 0.613043
vt 0.054121 0.778528
vt 0.024711 0.779127
vt 0.581101 0.657630
vt 0.554424 0.665128
vt 0.076701 0.876077
vt 0.131904 0.954080
vt 0.605666 0.779854
vt 0.576291 0.779182
vt 0.578468 0.886028
vt 0.492447 0.928722
vt 0.011457 0.776818
vt 0.617070 0.777570
vt 0.000000 0.696823
vt 0.629252 0.697100
vt 0.490506 0.776827
vt 0.528412 0.777945
vt 0.504828 0.866738
vt 0.467033 0.843887
vt 0.467464 0.696076
vt 0.485766 0.657173
vt 0.143769 0.880312
vt 0.161125 0.841695
vt 0.102041 0.777408
vt 0.140515 0.776253
vt 0.122809 0.674906
vt 0.160853 0.697360
vt 0.568934 0.068617
vt 0.566273 0.079966
vt 0.558895 0.107224
vt 0.527537 0.122335
vt 0.538620 0.123288
vt 0.517026 0.016576
vt 0.148278 0.427564
vt 0.684246 0.450269
vt 0.185327 0.536745
vt 0.016463 0.089838
vt 0.515382 0.003362
vt 0.150734 0.997641
vt 0.050516 0.884451
vt 0.135291 0.926165
vt 0.123668 0.865423
vt 0.060609 0.611847
vt 0.131185 0.585126
vt 0.075238 0.665587
vt 0.143150 0.659126
vt 0.566873 0.932531
vt 0.495543 0.956705
vt 0.552302 0.877579
vt 0.484299 0.882351
vt 0.477031 0.539786
vt 0.497021 0.583114
vt 0.493735 0.611096
vt 0.506816 0.674088
vt 0.012801 0.443314
vt 0.549125 0.431716
vt 0.509822 0.540107
vt 0.687908 0.096793
vt 0.151584 0.108391
vt 0.190887 0.000000
vn 0.000000 0.000000 1.000000
vn 0.000000 0.000000 1.000000
vn 0.000000 0.000000 1.000000
vn 0.000000 0.000000 1.000000
vn 0.000000 0.579918 0.814675
vn 0.000000 0.579918 0.814675
vn 0.000000 0.579918 0.814675
vn 0.000000 0.579918 0.814675
vn 0.000000 0.149714 -0.988729
vn 0.000000 0.149714 -0.988729
vn 0.000000 0.149714 -0.988729
vn 0.000000 0.149714 -0.988729
vn 0.000000 -1.000000 0.000000
vn 0.000000 -1.000000 0.000000
vn 0.000000 -1.000000 0.000000
vn 0.000000 -1.000000 0.000000
vn 0.999463 0.031136 0.010184
vn 0.999463 0.031136 0.010184
vn 0.999697 0.023409 0.007657
vn 0.999606 0.026668 0.008723
vn -0.999463 0.031133 0.010184
vn -0.999463 0.031133 0.010184
vn -0.999606 0.026665 0.008723
vn -0.999697 0.023405 0.007657
vn 0.000000 -0.717856 0.696191
vn 0.000000 -0.717856 0.696191
vn 0.000000 -0.996779 0.080196
vn 0.000000 -0.996779 0.080196
vn 1.000000 0.000000 0.000000
vn 1.000000 0.000000 0.000000
vn 0.000000 0.778653 -0.627454
vn 0.000000 0.778653 -0.627454
vn 0.000000 0.994566 -0.104111
vn 0.000000 0.994566 -0.104111
vn -1.000000 -0.000002 0.000000
vn -1.000000 -0.000003 0.000000
vn 0.000000 -0.992094 -0.125498
vn 0.000000 -0.992094 -0.125498
vn 1.000000 0.000000 0.000000
vn 1.000000 0.000000 0.000000
vn 0.000000 0.992094 0.125499
vn 0.000000 0.992094 0.125499
vn -1.000000 0.000000 0.000000
vn -1.000000 0.000000 0.000000
vn 0.000000 -0.105437 0.994426
vn 0.000000 -0.105437 0.994426
vn 0.000000 -0.105437 0.994426
vn 0.000000 -0.105437 0.994426
vn 0.000000 -0.105437 -0.994426
vn 0.000000 -0.105437 -0.994426
vn 0.000000 -0.105437 -0.994426
vn 0.000000 -0.105437 -0.994426
vn 0.985874 -0.167487 0.000000
vn 0.985874 -0.167487 0.000000
vn 0.985874 -0.167487 0.000000
vn 0.985874 -0.167487 0.000000
vn -0.985874 -0.167487 0.000000
vn -0.985874 -0.167487 0.000000
vn -0.985874 -0.167486 0.000000
vn -0.985874 -0.167486 0.000000
vn 0.000000 -1.000000 0.000000
vn 0.000000 -1.000000 0.000000
vn 0.000000 -1.000000 0.000000
vn -0.698484 -0.155696 0.698484
vn -0.698484 -0.155696 0.698484
vn -0.698484 -0.155696 0.698484
vn -0.698484 -0.155696 0.698484
vn 0.698483 -0.155697 0.698484
vn 0.698483 -0.155697 0.698484
vn 0.698483 -0.155697 0.698484
vn 0.698483 -0.155697 0.698484
vn -0.698483 -0.155695 -0.698484
vn -0.698483 -0.155695 -0.698484
vn -0.698483 -0.155695 -0.698484
vn -0.698483 -0.155695 -0.698484
vn 0.698483 -0.155697 -0.698484
vn 0.698483 -0.155697 -0.698484
vn 0.698483 -0.155697 -0.698485
vn 0.698483 -0.155697 -0.698485
vn 0.000000 -1.000000 -0.000000
vn 0.000000 -1.000000 0.000000
vn 0.000000 -1.000000 -0.000000
vn 0.000000 -1.000000 0.000000
vn 0.000000 -1.000000 0.000000
vn 0.000000 -1.000000 0.000000
vn 0.000000 -1.000000 0.000000
vn 0.000000 -1.000000 0.000000
vn 0.000000 -1.000000 0.000000
vn 0.000000 -1.000000 0.000000
vn 0.000000 -1.000000 0.000000
vn 0.000000 -1.000000 0.000000
vn 0.000000 -1.000000 0.000000
vn -0.985874 -0.167488 0.000000
vn -0.985874 -0.167488 0.000000
vn 0.985874 -0.167487 0.000000
vn 0.985874 -0.167487 0.000000
vn -0.925375 0.171752 0.337908
vn -0.922611 0.190576 0.335366
vn -0.922635 0.190418 0.335388
vn -0.925375 0.171752 0.337908
vn -0.000031 0.131127 0.991366
vn 0.000000 0.171918 0.985111
vn 0.000000 0.171918 0.985111
vn -0.000031 0.131241 0.991351
vn -0.905449 0.171800 -0.388134
vn -0.903005 0.190649 -0.385012
vn -0.902971 0.190899 -0.384970
vn -0.905449 0.171800 -0.388134
vn 0.916961 0.192257 0.349598
vn 0.920227 0.173321 0.350915
vn 0.982355 0.187029 0.000020
vn 0.978158 0.207860 -0.000979
vn 0.898976 0.173309 -0.402251
vn 0.895305 0.193862 -0.401057
vn 0.000061 0.131272 -0.991347
vn -0.000000 0.171920 -0.985111
vn -0.000000 0.171920 -0.985111
vn 0.000061 0.131099 -0.991369
vn -0.023380 0.999727 -0.000468
vn -0.023303 0.999728 0.000444
vn -0.009142 0.999193 -0.039125
vn -0.025170 0.999683 0.001047
vn 0.026147 0.999658 0.000480
vn 0.009188 0.999181 -0.039404
vn 0.024214 0.999707 0.000447
vn 0.024297 0.999705 -0.000480
vn -0.000763 0.999220 0.039492
vn -0.009565 0.999223 0.038243
vn -0.025483 0.999675 -0.000890
vn 0.000755 0.999220 0.039492
vn 0.009612 0.999211 0.038542
vn 0.026402 0.999651 -0.000415
vn 0.000764 0.999220 -0.039493
vn -0.000773 0.999220 -0.039493
vn 0.144274 0.989537 0.001066
vn 0.919933 0.392075 0.000813
vn 0.849265 0.360186 -0.386026
vn 0.093622 0.993318 -0.067482
vn 0.096560 0.993627 0.058159
vn 0.870807 0.358037 0.336905
vn -0.000495 0.572933 -0.819602
vn -0.000495 0.572933 -0.819602
vn -0.000495 0.572933 -0.819602
vn -0.000495 0.572933 -0.819602
vn -0.097782 0.993024 -0.065899
vn -0.859918 0.354263 -0.367477
vn -0.922547 0.385884 0.001027
vn -0.139286 0.990252 0.000703
vn -0.879717 0.351705 0.320004
vn -0.100412 0.993348 0.056376
vn 0.000528 0.572620 0.819821
vn 0.000528 0.572620 0.819821
vn 0.000528 0.572620 0.819821
vn 0.000528 0.572620 0.819821
vn 0.000108 0.100149 -0.994972
vn 0.000108 0.100149 -0.994972
vn -0.000055 0.100002 0.994987
vn -0.000055 0.100002 0.994987
s off
g nightstand3
usemtl initialShadingGroup
f 1/1/1 2/2/2 4/4/3 3/3/4
f 13/15/5 14/16/6 15/80/7 16/79/8
f 5/76/9 6/6/10 8/8/11 7/7/12
f 7/7/13 8/8/14 2/10/15 1/9/16
s 1
f 2/2/17 8/8/18 6/6/19 4/4/20
s 2
f 7/81/21 1/1/22 3/3/23 5/5/24
s 3
f 3/3/25 4/4/26 10/12/27 9/11/28
s 1
f 4/4/20 6/6/19 11/13/29 10/12/30
s 4
f 6/6/31 5/76/32 12/77/33 11/13/34
s 2
f 5/5/24 3/3/23 9/11/35 12/14/36
s 3
f 9/11/28 10/12/27 14/16/37 13/15/38
s 1
f 10/12/30 11/13/29 15/17/39 14/16/40
s 4
f 11/13/34 12/77/33 16/78/41 15/17/42
s 2
f 12/14/36 9/11/35 13/15/43 16/18/44
s off
f 20/86/45 18/44/46 22/21/47 24/108/48
f 28/23/49 26/105/50 29/84/51 32/26/52
s 5
f 23/27/53 21/28/54 41/29/55 42/30/56
s 6
f 37/31/57 38/32/58 17/33/59 19/34/60
s 7
f 31/35/61 33/36/62 32/26/63
s off
f 17/33/64 18/20/65 20/106/66 19/34/67
f 22/107/68 21/28/69 23/27/70 24/85/71
f 25/39/72 26/83/73 28/104/74 27/40/75
f 29/103/76 30/41/77 31/35/78 32/82/79
s 7
f 27/40/80 28/23/81 34/42/82
f 33/36/62 34/42/82 28/23/81 32/26/63
f 22/21/83 36/43/84 21/28/85
f 18/44/86 35/45/87 36/43/84 22/21/83
f 17/33/88 35/45/87 18/44/86
f 38/32/89 39/46/90 35/45/87 17/33/88
f 36/43/84 35/45/87 39/46/90 40/47/91
f 21/28/85 36/43/84 40/47/91 41/29/92
s 6
f 25/39/93 27/40/94 38/32/58 37/31/57
s 7
f 27/40/80 34/42/82 39/46/90 38/32/89
f 40/47/91 39/46/90 34/42/82 33/36/62
f 41/29/92 40/47/91 33/36/62 31/35/61
s 5
f 42/30/56 41/29/55 31/35/95 30/41/96
s 9
f 43/48/97 44/93/98 46/50/99 45/51/100
s 10
f 44/49/101 43/92/102 47/100/103 48/101/104
s 9
f 45/51/105 46/50/106 54/54/107 53/88/108
f 48/53/109 47/52/110 51/56/111 52/57/112
f 49/58/113 50/97/114 52/57/112 51/56/111
s 13
f 50/59/115 49/96/116 53/55/117 54/89/118
s 14
f 42/60/119 45/51/120 53/88/121 23/38/122
f 19/37/123 49/58/124 51/56/125 37/61/126
f 29/91/127 43/48/128 30/62/129
f 26/99/130 47/100/131 43/92/128 29/25/127
f 25/63/132 47/52/131 26/24/130
f 19/37/123 20/95/133 49/58/124
f 53/55/121 49/96/124 20/19/133 24/87/134
f 23/38/122 53/88/121 24/22/134
f 30/62/129 43/48/128 45/51/120 42/60/119
f 37/61/126 51/56/125 47/52/131 25/63/132
s 9
f 55/64/135 56/65/136 58/66/137 57/67/138
f 56/65/136 55/64/135 65/68/139 66/102/140
s off
f 57/67/141 58/98/142 60/70/143 59/71/144
s 9
f 59/71/145 60/90/146 62/72/147 61/73/148
f 61/73/148 62/72/147 64/74/149 63/75/150
s off
f 63/75/151 64/94/152 66/69/153 65/68/154
s 9
f 61/73/148 55/64/135 57/67/138 59/71/145
f 63/75/150 65/68/139 55/64/135 61/73/148
f 52/57/112 50/97/114 58/66/137 56/65/136
s 13
f 50/59/115 54/89/118 60/70/155 58/98/156
s 9
f 54/54/107 46/50/106 62/72/147 60/90/146
s 10
f 44/49/101 48/101/104 66/69/157 64/94/158
s 9
f 48/53/109 52/57/112 56/65/136 66/102/140
f 46/50/99 44/93/98 64/74/149 62/72/147
