# This file uses centimeters as units for non-parametric coordinates.

mtllib bed.mtl
g default
v -6.446586 0.368941 2.001454
v -4.629463 0.368941 2.001454
v -6.446586 0.737076 2.001454
v -4.629463 0.737076 2.001454
v -6.446586 0.737076 1.785981
v -4.629463 0.737076 1.785981
v -6.446586 0.368941 1.785981
v -4.629463 0.368941 1.785981
v -6.246714 0.591564 1.420734
v -6.141842 0.651872 1.315862
v -4.998255 0.651872 1.315862
v -4.893383 0.591565 1.420734
v -6.141842 0.651872 0.908254
v -6.246714 0.591564 0.803382
v -4.998255 0.651872 0.908254
v -4.893383 0.591565 0.803382
v -6.564877 0.364732 1.669811
v -4.561561 0.364732 1.669811
v -6.564877 0.498569 1.669811
v -6.427043 0.590550 1.491804
v -4.699391 0.590550 1.491804
v -4.561561 0.498569 1.669811
v -6.564877 0.364732 0.723632
v -6.564877 0.498569 0.723632
v -6.427043 0.590550 0.637697
v -4.699391 0.590550 0.637697
v -4.561562 0.498569 0.723632
v -4.561561 0.364732 0.723632
v -6.606641 0.520907 0.723632
v -6.441950 0.639746 0.637697
v -6.439473 0.641963 -1.820095
v -6.598275 0.523509 -2.022634
v -4.684483 0.639745 0.637697
v -4.519797 0.520907 0.723632
v -4.528162 0.523509 -2.022634
v -4.686960 0.641963 -1.820095
v -4.534704 0.364732 -2.015615
v -6.591733 0.364732 -2.015615
v -4.507848 0.364732 0.723632
v -6.618590 0.364732 0.723632
v -6.619210 0.022696 2.044989
v -4.499565 0.022696 2.044989
v -6.619210 0.379197 2.044989
v -4.499565 0.379197 2.044989
v -6.619210 0.379197 -2.076423
v -4.499565 0.379197 -2.076423
v -6.619210 0.022696 -2.076423
v -4.499565 0.022696 -2.076423
vt 0.986710 0.870939
vt 0.588561 0.939174
vt 0.919605 0.871129
vt 0.588370 0.872069
vt 0.919493 0.831851
vt 0.588259 0.832791
vt 0.919303 0.764746
vt 0.588068 0.765686
vt 0.521153 0.832982
vt 0.986599 0.831661
vt 0.563631 0.996935
vt 0.541569 0.977830
vt 0.541530 0.903529
vt 0.560636 0.881467
vt 0.314004 1.000000
vt 0.333109 0.977938
vt 0.311008 0.884531
vt 0.333071 0.903637
vt 0.959143 0.539493
vt 0.922125 0.523821
vt 0.921615 0.075800
vt 0.950557 0.033025
vt 0.919429 0.688481
vt 0.949640 0.720925
vt 0.579383 0.725050
vt 0.604503 0.688522
vt 0.601764 0.523863
vt 0.564751 0.539545
vt 0.566027 0.038938
vt 0.602157 0.075842
vt 0.974037 0.720922
vt 0.579386 0.749446
vt 0.574393 0.004104
vt 0.949361 0.004054
vt 0.536200 0.539517
vt 0.537057 0.040168
vt 0.986706 0.040109
vt 0.987694 0.539458
vt 0.957736 0.038887
vt 0.949617 0.548450
vt 0.986960 0.549222
vt 0.919409 0.532789
vt 0.952849 0.545404
vt 0.602781 0.533178
vt 0.574279 0.548499
vt 0.549883 0.548502
vt 0.561264 0.547443
vt 0.000000 0.066094
vt 0.451206 0.000000
vt 0.451365 0.064985
vt 0.064985 0.065934
vt 0.453212 0.816258
vt 0.066831 0.817208
vt 0.453372 0.881243
vt 0.066991 0.882193
vt 0.518197 0.816099
vt 0.001846 0.817368
vt 0.064825 0.000950
vt 0.516351 0.064825
vt 0.521264 0.872259
vt 0.919795 0.938235
vt 0.604483 0.532830
vt 0.571046 0.545454
vt 0.921111 0.533136
vt 0.573204 0.033075
vt 0.944560 0.725002
vt 0.574301 0.720974
vt 0.536937 0.549281
vt 0.549905 0.720977
vt 0.944563 0.749398
vt 0.974014 0.548447
vt 0.962632 0.547391
vt 0.563573 0.884401
vt 0.313942 0.881594
vt 0.311067 0.997066
vt 0.560697 0.999872
vn 0.000000 0.000000 1.000000
vn 0.000000 0.000000 1.000000
vn 0.000000 0.000000 1.000000
vn 0.000000 0.000000 1.000000
vn 0.000000 1.000000 0.000000
vn 0.000000 1.000000 0.000000
vn 0.000000 1.000000 0.000000
vn 0.000000 1.000000 0.000000
vn 0.000000 0.000000 -1.000000
vn 0.000000 0.000000 -1.000000
vn 0.000000 0.000000 -1.000000
vn 0.000000 0.000000 -1.000000
vn 1.000000 0.000000 0.000000
vn 1.000000 0.000000 0.000000
vn 1.000000 0.000000 0.000000
vn 1.000000 0.000000 0.000000
vn -1.000000 0.000000 0.000000
vn -1.000000 0.000000 0.000000
vn -1.000000 0.000000 0.000000
vn -1.000000 0.000000 0.000000
vn -0.498507 0.866885 0.000000
vn -0.498507 0.866885 0.000000
vn -0.498507 0.866886 0.000000
vn -0.498507 0.866886 0.000000
vn -0.000000 0.866887 0.498506
vn -0.000000 0.866887 0.498505
vn -0.000000 0.866887 0.498505
vn -0.000000 0.866887 0.498506
vn 0.498504 0.866887 0.000000
vn 0.498504 0.866887 0.000000
vn 0.498504 0.866888 0.000000
vn 0.498504 0.866887 0.000000
vn -0.000000 0.866886 -0.498506
vn -0.000000 0.866886 -0.498507
vn -0.000000 0.866886 -0.498506
vn -0.000000 0.866886 -0.498506
vn 0.000000 1.000000 0.000000
vn 0.000000 1.000000 0.000000
vn 0.000000 1.000000 0.000000
vn 0.000000 1.000000 0.000000
vn -0.591357 0.806410 -0.000485
vn -0.591357 0.806410 -0.000485
vn -0.591357 0.806410 -0.000485
vn -0.591357 0.806410 -0.000485
vn 0.000000 0.888402 0.459067
vn 0.000000 0.888402 0.459067
vn 0.000000 0.888402 0.459067
vn 0.000000 0.888402 0.459067
vn 0.591365 0.806404 -0.000485
vn 0.591365 0.806404 -0.000485
vn 0.591365 0.806404 -0.000485
vn 0.591365 0.806404 -0.000485
vn 0.000000 0.863211 -0.504844
vn 0.000000 0.863211 -0.504844
vn 0.000000 0.863211 -0.504844
vn 0.000000 0.863211 -0.504844
vn 0.000000 0.000000 1.000000
vn 0.000000 0.000000 1.000000
vn 0.000000 0.000000 1.000000
vn 0.000000 0.000000 1.000000
vn 0.000000 1.000000 0.000902
vn 0.000000 1.000000 0.000902
vn 0.000000 1.000000 0.000902
vn 0.000000 1.000000 0.000902
vn 0.000000 -0.044165 -0.999024
vn 0.000000 -0.044165 -0.999024
vn 0.000000 -0.044165 -0.999024
vn 0.000000 -0.044165 -0.999024
vn 0.999834 0.017022 -0.006412
vn 0.999834 0.017022 -0.006412
vn 0.999834 0.017023 -0.006412
vn 0.999834 0.017023 -0.006412
vn -0.999834 0.017023 -0.006412
vn -0.999834 0.017023 -0.006412
vn -0.999834 0.017023 -0.006412
vn -0.999834 0.017023 -0.006412
vn -1.000000 0.000000 0.000000
vn -1.000000 0.000000 0.000000
vn -1.000000 0.000000 0.000000
vn -1.000000 0.000000 0.000000
vn -0.555086 0.831793 0.000000
vn -0.555086 0.831793 0.000000
vn -0.555086 0.831793 0.000000
vn -0.555086 0.831793 0.000000
vn 0.000000 1.000000 0.000000
vn 0.000000 1.000000 0.000000
vn 0.000000 1.000000 0.000000
vn 0.000000 1.000000 0.000000
vn 0.555098 0.831785 -0.000000
vn 0.555098 0.831785 -0.000000
vn 0.555098 0.831785 -0.000000
vn 0.555098 0.831785 -0.000000
vn 1.000000 0.000003 -0.000000
vn 1.000000 0.000003 -0.000000
vn 1.000000 0.000003 -0.000000
vn 1.000000 0.000003 -0.000000
vn 0.191169 0.151453 0.969802
vn 0.032088 0.025421 0.999162
vn 0.032405 0.025673 0.999145
vn 0.193473 0.153279 0.969058
vn -0.032088 0.025421 0.999162
vn -0.191169 0.151452 0.969802
vn -0.193473 0.153277 0.969058
vn -0.032405 0.025672 0.999145
vn 0.000000 -0.000000 1.000000
vn 0.000000 -0.000000 1.000000
vn -0.000002 0.000000 1.000000
vn -0.000002 0.000000 1.000000
vn 0.000000 0.000000 1.000000
vn 0.000000 0.000000 1.000000
vn 0.000000 0.000000 1.000000
vn 0.000000 0.000000 1.000000
vn 0.000000 1.000000 0.000000
vn 0.000000 1.000000 0.000000
vn 0.000000 1.000000 0.000000
vn 0.000000 1.000000 0.000000
vn 0.000000 0.000000 -1.000000
vn 0.000000 0.000000 -1.000000
vn 0.000000 0.000000 -1.000000
vn 0.000000 0.000000 -1.000000
vn 1.000000 0.000000 0.000000
vn 1.000000 0.000000 0.000000
vn 1.000000 0.000000 0.000000
vn 1.000000 0.000000 0.000000
vn -1.000000 0.000000 0.000000
vn -1.000000 0.000000 0.000000
vn -1.000000 0.000000 0.000000
vn -1.000000 0.000000 0.000000
s off
g bed
usemtl initialShadingGroup
f 1/61/1 2/2/2 4/4/3 3/3/4
f 3/3/5 4/4/6 6/6/7 5/5/8
f 5/5/9 6/6/10 8/8/11 7/7/12
f 2/60/13 8/9/14 6/6/15 4/4/16
f 7/10/17 1/1/18 3/3/19 5/5/20
f 9/11/21 10/12/22 13/13/23 14/73/24
f 10/12/25 9/76/26 12/15/27 11/16/28
f 11/16/29 12/75/30 16/17/31 15/18/32
f 14/14/33 13/13/34 15/18/35 16/74/36
f 10/12/37 11/16/38 15/18/39 13/13/40
f 29/19/41 30/20/42 31/21/43 32/39/44
f 20/23/45 19/66/46 22/25/47 21/26/48
f 33/27/49 34/28/50 35/29/51 36/30/52
f 32/22/53 31/21/54 36/30/55 35/65/56
f 17/70/57 18/32/58 22/25/59 19/66/60
f 30/20/61 33/27/62 36/30/63 31/21/64
f 32/22/65 35/65/66 37/33/67 38/34/68
f 34/28/69 39/35/70 37/36/71 35/29/72
f 38/37/73 40/38/74 29/19/75 32/39/76
f 24/40/77 23/71/78 17/31/79 19/24/80
f 19/24/81 20/23/82 25/42/83 24/40/84
f 20/23/85 21/26/86 26/62/87 25/42/88
f 21/26/89 22/67/90 27/45/91 26/62/92
f 18/69/93 28/46/94 27/45/95 22/67/96
s 1
f 24/43/97 25/64/98 30/20/99 29/19/100
f 26/44/101 27/63/102 34/28/103 33/27/104
f 25/42/98 26/62/101 33/27/104 30/20/99
f 27/47/102 28/68/105 39/35/106 34/28/103
f 23/41/107 24/72/97 29/19/100 40/38/108
s off
f 41/58/109 42/49/110 44/50/111 43/51/112
f 43/51/113 44/50/114 46/52/115 45/53/116
f 45/53/117 46/52/118 48/54/119 47/55/120
f 42/59/121 48/56/122 46/52/123 44/50/124
f 47/57/125 41/48/126 43/51/127 45/53/128
