# This file uses centimeters as units for non-parametric coordinates.

mtllib box office.mtl
g default
v -0.500000 -0.024015 0.500000
v 0.500000 -0.024015 0.442319
v -0.500000 1.030400 0.553884
v 0.575710 0.975985 0.496203
v -0.500000 1.030400 -0.639903
v 0.575710 0.975985 -0.500000
v -0.500000 -0.024015 -0.604606
v 0.500000 -0.024015 -0.464703
v 0.000000 0.823192 0.000000
v 0.000000 -0.024015 0.000000
vt 0.292182 0.054544
vt 0.506543 0.092792
vt 0.250916 0.278902
vt 0.484579 0.308753
vt 0.230888 0.541217
vt 0.468018 0.530122
vt 0.254754 0.767882
vt 0.472475 0.747039
vt 0.310472 1.000000
vt 0.517753 0.937708
vt 0.702456 0.102712
vt 0.699354 0.319565
vt 0.059621 0.000000
vt 0.000000 0.220043
vt 0.353285 0.409747
vt 0.390463 0.869829
vn 0.053991 -0.054293 0.997064
vn 0.053991 -0.054293 0.997064
vn 0.053991 -0.054293 0.997064
vn 0.053991 -0.054293 0.997064
vn -0.120065 0.979606 0.161108
vn 0.066003 0.997813 -0.003653
vn -0.121696 0.979518 -0.160422
vn 0.132488 -0.038915 -0.990420
vn 0.132488 -0.038915 -0.990420
vn 0.132488 -0.038915 -0.990420
vn 0.132488 -0.038915 -0.990420
vn 0.000000 -1.000000 0.000000
vn 0.000000 -1.000000 0.000000
vn 0.000000 -1.000000 0.000000
vn 0.997146 -0.075494 0.000000
vn 0.997146 -0.075494 0.000000
vn 0.997146 -0.075494 0.000000
vn 0.997146 -0.075494 0.000000
vn -1.000000 0.000000 0.000000
vn -1.000000 0.000000 0.000000
vn -1.000000 0.000000 0.000000
vn -1.000000 0.000000 0.000000
vn 0.216339 0.962324 -0.164713
vn 0.189716 0.967848 0.165162
vn 0.000000 -1.000000 0.000000
vn 0.000000 -1.000000 0.000000
s off
g pCube1
usemtl initialShadingGroup
f 1/1/1 2/2/2 4/4/3 3/3/4
s 1
f 6/6/5 9/15/6 4/4/7
s off
f 5/5/8 6/6/9 8/8/10 7/7/11
s 2
f 7/7/12 10/16/13 1/9/14
s off
f 2/2/15 8/11/16 6/12/17 4/4/18
f 7/13/19 1/1/20 3/3/21 5/14/22
s 1
f 3/3/23 4/4/7 9/15/6
f 5/5/24 9/15/6 6/6/5
f 3/3/23 9/15/6 5/5/24
s 2
f 1/9/14 10/16/13 2/10/25
f 7/7/12 8/8/26 10/16/13
f 2/10/25 10/16/13 8/8/26
