# This file uses centimeters as units for non-parametric coordinates.

mtllib carpet.mtl
g default
v -9.192253 -0.003621 -0.976874
v -7.770079 -0.003621 -0.976874
v -9.192253 -0.003621 -3.624716
v -7.770079 -0.003621 -3.624716
v -9.192253 0.027099 -0.976874
v -9.161538 0.057812 -1.007587
v -7.800793 0.057812 -1.007587
v -7.770079 0.027099 -0.976874
v -9.161538 0.057812 -3.594003
v -9.192253 0.027099 -3.624716
v -7.800793 0.057812 -3.594003
v -7.770079 0.027099 -3.624716
vt 0.513233 0.918311
vt 0.998042 0.918615
vt 0.010470 0.917530
vt 0.490846 0.025732
vt 0.502714 0.928796
vt 0.010434 0.928000
vt 0.502758 0.918325
vt 0.488868 0.904887
vt 0.024514 0.904248
vt 0.026643 0.023956
vt 0.012760 0.010470
vt 0.515350 0.012551
vt 0.000000 0.917510
vt 0.012803 0.000000
vt 0.504884 0.012498
vt 0.002289 0.010451
vt 0.504920 0.002027
vt 1.000000 0.014054
vn 0.000000 -1.000000 0.000000
vn 0.000000 -1.000000 0.000000
vn 0.000000 -1.000000 0.000000
vn 0.000000 -1.000000 0.000000
vn -0.707091 0.707122 0.000000
vn -0.707092 0.707122 0.000000
vn -0.707091 0.707122 0.000000
vn -0.707092 0.707122 0.000000
vn 0.000000 0.707103 0.707110
vn 0.000000 0.707103 0.707110
vn 0.000000 0.707103 0.707110
vn 0.000000 0.707103 0.707110
vn 0.707112 0.707102 0.000000
vn 0.707112 0.707102 0.000000
vn 0.707112 0.707101 0.000000
vn 0.707112 0.707102 0.000000
vn 0.000000 0.707098 -0.707115
vn 0.000000 0.707098 -0.707115
vn 0.000000 0.707098 -0.707115
vn 0.000000 0.707098 -0.707115
vn 0.000000 0.000000 1.000000
vn 0.000000 0.000000 1.000000
vn 0.000000 0.000000 1.000000
vn 0.000000 0.000000 1.000000
vn 0.000000 1.000000 0.000000
vn 0.000000 1.000000 0.000000
vn 0.000000 1.000000 0.000000
vn 0.000000 1.000000 0.000000
vn 0.000000 0.000000 -1.000000
vn 0.000000 0.000000 -1.000000
vn 0.000000 0.000000 -1.000000
vn 0.000000 0.000000 -1.000000
vn 1.000000 0.000000 0.000000
vn 1.000000 0.000000 0.000000
vn 1.000000 0.000000 0.000000
vn 1.000000 0.000000 0.000000
vn -1.000000 0.000000 0.000000
vn -1.000000 0.000000 0.000000
vn -1.000000 0.000000 0.000000
vn -1.000000 0.000000 0.000000
s off
g carpet
usemtl initialShadingGroup
f 3/12/1 4/18/2 2/2/3 1/1/4
f 5/7/5 6/8/6 9/4/7 10/15/8
f 6/8/9 5/7/10 8/3/11 7/9/12
f 7/9/13 8/3/14 12/11/15 11/10/16
f 10/15/17 9/4/18 11/10/19 12/11/20
f 1/5/21 2/6/22 8/3/23 5/7/24
f 6/8/25 7/9/26 11/10/27 9/4/28
f 10/15/29 12/11/30 4/14/31 3/17/32
f 2/13/33 4/16/34 12/11/35 8/3/36
f 3/12/37 1/1/38 5/7/39 10/15/40
