# This file uses centimeters as units for non-parametric coordinates.

mtllib DinningTable.mtl
g default
v 3.487506 0.711633 -5.101675
v 2.851110 0.711633 -5.365278
v 2.214715 0.711633 -5.101675
v 1.951111 0.711633 -4.465279
v 2.214715 0.711633 -3.828883
v 2.851110 0.711633 -3.565279
v 3.487506 0.711633 -3.828883
v 3.751111 0.711633 -4.465279
v 3.487506 0.768367 -5.101675
v 2.851110 0.768367 -5.365278
v 2.214715 0.768367 -5.101675
v 1.951111 0.768367 -4.465279
v 2.214715 0.768367 -3.828883
v 2.851110 0.768367 -3.565279
v 3.487506 0.768367 -3.828883
v 3.751111 0.768367 -4.465279
v 2.851110 0.711633 -4.465279
v 2.851110 0.768367 -4.465279
v 2.944927 0.000000 -4.559095
v 2.851110 0.000000 -4.597955
v 2.757294 0.000000 -4.559095
v 2.718434 0.000000 -4.465279
v 2.757294 0.000000 -4.371462
v 2.851110 0.000000 -4.332602
v 2.944927 0.000000 -4.371462
v 2.983787 0.000000 -4.465279
v 2.911669 0.722268 -4.525837
v 2.851110 0.722268 -4.550921
v 2.790552 0.722268 -4.525837
v 2.765468 0.722268 -4.465279
v 2.790552 0.722268 -4.404720
v 2.851110 0.722268 -4.379636
v 2.911669 0.722268 -4.404720
v 2.936753 0.722268 -4.465279
v 2.851110 0.000000 -4.465279
v 2.851110 0.722268 -4.465279
vt 0.324292 0.056279
vt 0.190600 0.000005
vt 0.056274 0.054748
vt 0.000000 0.188440
vt 0.054743 0.322766
vt 0.188435 0.379040
vt 0.322761 0.324297
vt 0.379035 0.190605
vt 0.000000 0.599065
vt 0.124229 0.524182
vt 0.248458 0.449299
vt 0.372687 0.374416
vt 0.496916 0.299533
vt 0.621145 0.224651
vt 0.745375 0.149768
vt 0.869604 0.074885
vt 0.993832 0.000002
vt 0.006168 0.609296
vt 0.130397 0.534414
vt 0.254626 0.459531
vt 0.378855 0.384648
vt 0.503084 0.309765
vt 0.627313 0.234882
vt 0.751542 0.160000
vt 0.875771 0.085117
vt 1.000000 0.010234
vt 0.941055 0.210832
vt 0.807362 0.154558
vt 0.673036 0.209301
vt 0.616762 0.342993
vt 0.671505 0.477319
vt 0.805198 0.533593
vt 0.939524 0.478850
vt 0.995798 0.345158
vt 0.189517 0.189522
vt 0.806280 0.344076
vt 0.342176 0.008319
vt 0.363244 0.004657
vt 0.385602 0.155425
vt 0.372002 0.157788
vt 0.384468 0.002047
vt 0.399301 0.153740
vt 0.405795 0.000496
vt 0.413068 0.152739
vt 0.427173 0.000007
vt 0.426868 0.152423
vt 0.448548 0.000582
vt 0.440666 0.152794
vt 0.469869 0.002218
vt 0.454428 0.153850
vt 0.491082 0.004913
vt 0.468121 0.155590
vt 0.512135 0.008659
vt 0.481711 0.158008
vt 0.028098 0.000003
vt 0.047807 0.008298
vt 0.027938 0.027941
vt 0.008296 0.008073
vt 0.000000 0.027781
vt 0.008070 0.047584
vt 0.027779 0.055879
vt 0.047581 0.047809
vt 0.055877 0.028100
vt 0.089855 0.030859
vt 0.077073 0.036069
vt 0.077176 0.018034
vt 0.064351 0.030714
vt 0.059142 0.017931
vt 0.064496 0.005209
vt 0.077279 0.000000
vt 0.090001 0.005355
vt 0.095210 0.018137
vn 0.382683 0.000000 -0.923880
vn 0.382683 0.000000 -0.923880
vn 0.382683 0.000000 -0.923880
vn 0.382683 0.000000 -0.923880
vn -0.382683 0.000000 -0.923880
vn -0.382683 0.000000 -0.923880
vn -0.382683 0.000000 -0.923880
vn -0.382683 0.000000 -0.923880
vn -0.923880 0.000000 -0.382684
vn -0.923880 0.000000 -0.382684
vn -0.923880 0.000000 -0.382684
vn -0.923880 0.000000 -0.382684
vn -0.923880 0.000000 0.382684
vn -0.923880 0.000000 0.382684
vn -0.923880 0.000000 0.382684
vn -0.923880 0.000000 0.382684
vn -0.382683 0.000000 0.923880
vn -0.382683 0.000000 0.923880
vn -0.382683 0.000000 0.923880
vn -0.382683 0.000000 0.923880
vn 0.382683 0.000000 0.923880
vn 0.382683 0.000000 0.923880
vn 0.382683 0.000000 0.923880
vn 0.382683 0.000000 0.923880
vn 0.923880 0.000000 0.382684
vn 0.923880 0.000000 0.382684
vn 0.923880 0.000000 0.382684
vn 0.923880 0.000000 0.382684
vn 0.923880 0.000000 -0.382684
vn 0.923880 0.000000 -0.382684
vn 0.923880 0.000000 -0.382684
vn 0.923880 0.000000 -0.382684
vn 0.000000 -1.000000 0.000000
vn 0.000000 -1.000000 0.000000
vn 0.000000 -1.000000 -0.000000
vn 0.000000 -1.000000 0.000000
vn 0.000000 -1.000000 -0.000000
vn 0.000000 -1.000000 -0.000000
vn 0.000000 -1.000000 0.000000
vn 0.000000 -1.000000 0.000000
vn 0.000000 -1.000000 0.000000
vn 0.000000 1.000000 0.000000
vn 0.000000 1.000000 0.000000
vn 0.000000 1.000000 0.000000
vn 0.000000 1.000000 -0.000000
vn 0.000000 1.000000 0.000000
vn 0.000000 1.000000 0.000000
vn 0.000000 1.000000 0.000000
vn 0.000000 1.000000 0.000000
vn 0.000000 1.000000 0.000000
vn 0.381990 0.060054 -0.922213
vn 0.381990 0.060054 -0.922213
vn 0.381990 0.060054 -0.922213
vn 0.381990 0.060054 -0.922213
vn -0.381990 0.060054 -0.922213
vn -0.381990 0.060054 -0.922213
vn -0.381990 0.060054 -0.922213
vn -0.381990 0.060054 -0.922213
vn -0.922213 0.060054 -0.381992
vn -0.922213 0.060054 -0.381992
vn -0.922213 0.060054 -0.381992
vn -0.922213 0.060054 -0.381992
vn -0.922213 0.060054 0.381992
vn -0.922213 0.060054 0.381992
vn -0.922213 0.060054 0.381992
vn -0.922213 0.060054 0.381992
vn -0.381990 0.060054 0.922213
vn -0.381990 0.060054 0.922213
vn -0.381990 0.060054 0.922213
vn -0.381990 0.060054 0.922213
vn 0.381990 0.060054 0.922213
vn 0.381990 0.060054 0.922213
vn 0.381990 0.060054 0.922213
vn 0.381990 0.060054 0.922213
vn 0.922213 0.060054 0.381992
vn 0.922213 0.060054 0.381992
vn 0.922213 0.060054 0.381992
vn 0.922213 0.060054 0.381992
vn 0.922213 0.060054 -0.381992
vn 0.922213 0.060054 -0.381992
vn 0.922213 0.060054 -0.381992
vn 0.922213 0.060054 -0.381992
vn 0.000000 -1.000000 0.000000
vn 0.000000 -1.000000 0.000000
vn 0.000000 -1.000000 0.000000
vn 0.000000 -1.000000 0.000000
vn 0.000000 -1.000000 0.000000
vn 0.000000 -1.000000 0.000000
vn 0.000000 -1.000000 0.000000
vn 0.000000 -1.000000 0.000000
vn 0.000000 -1.000000 0.000000
vn 0.000000 1.000000 0.000000
vn 0.000000 1.000000 0.000000
vn 0.000000 1.000000 0.000000
vn 0.000000 1.000000 0.000000
vn 0.000000 1.000000 0.000000
vn 0.000000 1.000000 0.000000
vn 0.000000 1.000000 0.000000
vn 0.000000 1.000000 0.000000
vn 0.000000 1.000000 0.000000
s off
g pasted__pCylinder9
usemtl initialShadingGroup
f 1/9/1 2/10/2 10/19/3 9/18/4
f 2/10/5 3/11/6 11/20/7 10/19/8
f 3/11/9 4/12/10 12/21/11 11/20/12
f 4/12/13 5/13/14 13/22/15 12/21/16
f 5/13/17 6/14/18 14/23/19 13/22/20
f 6/14/21 7/15/22 15/24/23 14/23/24
f 7/15/25 8/16/26 16/25/27 15/24/28
f 8/16/29 1/17/30 9/26/31 16/25/32
s 1
f 2/2/33 1/1/34 17/35/35
f 3/3/36 2/2/33 17/35/35
f 4/4/37 3/3/36 17/35/35
f 5/5/38 4/4/37 17/35/35
f 6/6/39 5/5/38 17/35/35
f 7/7/40 6/6/39 17/35/35
f 8/8/41 7/7/40 17/35/35
f 1/1/34 8/8/41 17/35/35
s 2
f 9/33/42 10/32/43 18/36/44
f 10/32/43 11/31/45 18/36/44
f 11/31/45 12/30/46 18/36/44
f 12/30/46 13/29/47 18/36/44
f 13/29/47 14/28/48 18/36/44
f 14/28/48 15/27/49 18/36/44
f 15/27/49 16/34/50 18/36/44
f 16/34/50 9/33/42 18/36/44
s off
f 19/37/51 20/38/52 28/39/53 27/40/54
f 20/38/55 21/41/56 29/42/57 28/39/58
f 21/41/59 22/43/60 30/44/61 29/42/62
f 22/43/63 23/45/64 31/46/65 30/44/66
f 23/45/67 24/47/68 32/48/69 31/46/70
f 24/47/71 25/49/72 33/50/73 32/48/74
f 25/49/75 26/51/76 34/52/77 33/50/78
f 26/51/79 19/53/80 27/54/81 34/52/82
s 3
f 20/55/83 19/56/84 35/57/85
f 21/58/86 20/55/83 35/57/85
f 22/59/87 21/58/86 35/57/85
f 23/60/88 22/59/87 35/57/85
f 24/61/89 23/60/88 35/57/85
f 25/62/90 24/61/89 35/57/85
f 26/63/91 25/62/90 35/57/85
f 19/56/84 26/63/91 35/57/85
s 4
f 27/64/92 28/65/93 36/66/94
f 28/65/93 29/67/95 36/66/94
f 29/67/95 30/68/96 36/66/94
f 30/68/96 31/69/97 36/66/94
f 31/69/97 32/70/98 36/66/94
f 32/70/98 33/71/99 36/66/94
f 33/71/99 34/72/100 36/66/94
f 34/72/100 27/64/92 36/66/94
