# This file uses centimeters as units for non-parametric coordinates.

mtllib door.mtl
g default
v -11.188486 0.974095 -0.441775
v -11.118685 0.974095 -0.441775
v -11.188486 1.015232 -0.441775
v -11.118685 1.015232 -0.441775
v -11.188486 1.015232 -0.539891
v -11.118685 1.015232 -0.539891
v -11.188486 0.974095 -0.539891
v -11.118685 0.974095 -0.539891
v -11.220887 -0.017490 0.453448
v -11.221139 0.017478 0.418480
v -11.221139 2.201340 0.418480
v -11.220887 2.236308 0.453448
v -11.147877 0.017478 0.418480
v -11.150934 -0.017490 0.453448
v -11.150934 2.236308 0.453448
v -11.147877 2.201340 0.418480
v -11.221139 2.201340 -0.590100
v -11.220887 2.236308 -0.625069
v -11.150934 2.236308 -0.625069
v -11.147877 2.201340 -0.590100
v -11.221139 0.017478 -0.590100
v -11.220887 -0.017490 -0.625069
v -11.150934 -0.017490 -0.625069
v -11.147877 0.017478 -0.590100
v -11.183188 0.017478 -0.590100
v -11.183188 0.017478 0.418480
v -11.183188 2.201340 -0.590100
v -11.183188 2.201340 0.418480
v -11.200335 0.017478 0.418480
v -11.200335 0.017478 -0.590100
v -11.200335 2.201340 0.418480
v -11.200335 2.201340 -0.590100
vt 0.538219 0.804753
vt 0.560329 0.807224
vt 0.536763 0.817784
vt 0.558873 0.820254
vt 0.533290 0.848864
vt 0.555401 0.851334
vt 0.531835 0.861894
vt 0.553945 0.864365
vt 0.528362 0.892974
vt 0.550473 0.895444
vt 0.568432 0.852790
vt 0.373209 0.014117
vt 0.385077 0.002748
vt 0.719965 0.000000
vt 0.756066 0.035253
vt 0.336124 0.051742
vt 0.347211 0.039661
vt 0.360216 0.772965
vt 0.348756 0.761768
vt 0.396142 0.806615
vt 0.743550 0.790649
vt 0.731553 0.802082
vt 0.381247 0.047565
vt 0.372105 0.036636
vt 0.732812 0.033790
vt 0.722423 0.045159
vt 0.369817 0.038092
vt 0.393761 0.761455
vt 0.383016 0.772909
vt 0.733128 0.756954
vt 0.744620 0.767754
vt 0.778305 0.755230
vt 0.767522 0.046587
vt 0.390341 0.052996
vt 0.713763 0.051208
vt 0.724089 0.751532
vt 0.402203 0.755160
vt 0.005398 0.063499
vt 0.331131 0.055484
vt 0.343449 0.758500
vt 0.019631 0.763535
vt 0.000000 0.060348
vt 0.014534 0.767170
vt 0.382704 0.772765
vt 0.384195 0.795486
vt 0.744337 0.768112
vt 0.767194 0.766896
vt 0.733507 0.035009
vt 0.731971 0.011193
vt 0.571904 0.821710
vn 0.000000 0.000000 1.000000
vn 0.000000 0.000000 1.000000
vn 0.000000 0.000000 1.000000
vn 0.000000 0.000000 1.000000
vn 0.000000 1.000000 0.000000
vn 0.000000 1.000000 0.000000
vn 0.000000 1.000000 0.000000
vn 0.000000 1.000000 0.000000
vn 0.000000 0.000000 -1.000000
vn 0.000000 0.000000 -1.000000
vn 0.000000 0.000000 -1.000000
vn 0.000000 0.000000 -1.000000
vn 0.000000 -1.000000 0.000000
vn 0.000000 -1.000000 0.000000
vn 0.000000 -1.000000 0.000000
vn 0.000000 -1.000000 0.000000
vn 1.000000 0.000000 0.000000
vn 1.000000 0.000000 0.000000
vn 1.000000 0.000000 0.000000
vn 1.000000 0.000000 0.000000
vn -0.999974 -0.007187 0.000000
vn -0.999974 -0.007187 0.000000
vn -0.999974 -0.007187 0.000000
vn -0.999974 -0.007187 0.000000
vn -0.999974 0.000000 0.007200
vn -0.999974 0.000000 0.007200
vn -0.999974 0.000000 0.007200
vn -0.999974 0.000000 0.007200
vn -0.999974 0.007187 0.000000
vn -0.999974 0.007187 0.000000
vn -0.999974 0.007187 0.000000
vn -0.999974 0.007187 0.000000
vn 0.996201 -0.087088 0.000000
vn 0.996201 -0.087088 0.000000
vn 0.996201 -0.087088 0.000000
vn 0.996201 -0.087088 0.000000
vn 0.996199 0.000000 0.087102
vn 0.996199 0.000000 0.087102
vn 0.996199 0.000000 0.087102
vn 0.996199 0.000000 0.087102
vn 0.996201 0.087088 0.000000
vn 0.996201 0.087088 0.000000
vn 0.996201 0.087088 0.000000
vn 0.996201 0.087088 0.000000
vn -0.999974 0.000000 -0.007200
vn -0.999974 0.000000 -0.007200
vn -0.999974 0.000000 -0.007200
vn -0.999974 0.000000 -0.007200
vn 0.996199 0.000000 -0.087105
vn 0.996199 0.000000 -0.087105
vn 0.996199 0.000000 -0.087105
vn 0.996199 0.000000 -0.087105
vn 0.000000 0.000000 1.000000
vn 0.000000 0.000000 1.000000
vn 0.000000 0.000000 1.000000
vn 0.000000 0.000000 1.000000
vn 0.000000 1.000000 0.000000
vn 0.000000 1.000000 0.000000
vn 0.000000 1.000000 0.000000
vn 0.000000 1.000000 0.000000
vn 0.000000 0.000000 -1.000000
vn 0.000000 0.000000 -1.000000
vn 0.000000 0.000000 -1.000000
vn 0.000000 0.000000 -1.000000
vn 0.000000 -1.000000 0.000000
vn 0.000000 -1.000000 0.000000
vn 0.000000 -1.000000 0.000000
vn 0.000000 -1.000000 0.000000
vn 1.000000 0.000000 0.000000
vn 1.000000 0.000000 0.000000
vn 1.000000 0.000000 0.000000
vn 1.000000 0.000000 0.000000
vn -1.000000 0.000000 0.000000
vn -1.000000 0.000000 0.000000
vn -1.000000 0.000000 0.000000
vn -1.000000 0.000000 0.000000
vn 0.000000 1.000000 0.000000
vn 0.000000 1.000000 0.000000
vn 0.000000 1.000000 0.000000
vn 0.000000 1.000000 0.000000
vn 0.000000 0.000000 1.000000
vn 0.000000 0.000000 1.000000
vn 0.000000 0.000000 1.000000
vn 0.000000 0.000000 1.000000
vn 0.000000 -1.000000 0.000000
vn 0.000000 -1.000000 0.000000
vn 0.000000 -1.000000 0.000000
vn 0.000000 -1.000000 0.000000
vn 0.000000 0.000000 -1.000000
vn 0.000000 0.000000 -1.000000
vn 0.000000 0.000000 -1.000000
vn 0.000000 0.000000 -1.000000
vn 0.000000 1.000000 0.000000
vn 0.000000 1.000000 0.000000
vn 0.000000 1.000000 0.000000
vn 0.000000 1.000000 0.000000
vn 0.000000 0.000000 -1.000000
vn 0.000000 0.000000 -1.000000
vn 0.000000 0.000000 -1.000000
vn 0.000000 0.000000 -1.000000
vn 0.000000 -1.000000 0.000000
vn 0.000000 -1.000000 0.000000
vn 0.000000 -1.000000 0.000000
vn 0.000000 -1.000000 0.000000
vn 0.000000 0.000000 1.000000
vn 0.000000 0.000000 1.000000
vn 0.000000 0.000000 1.000000
vn 0.000000 0.000000 1.000000
s off
g door
usemtl initialShadingGroup
f 1/1/1 2/2/2 4/4/3 3/3/4
f 3/3/5 4/4/6 6/6/7 5/5/8
f 5/5/9 6/6/10 8/8/11 7/7/12
f 7/7/13 8/8/14 2/10/15 1/9/16
f 2/50/17 8/11/18 6/6/19 4/4/20
f 9/12/21 10/13/22 21/14/23 22/49/24
f 10/16/25 9/17/26 12/18/27 11/19/28
f 11/20/29 12/45/30 18/21/31 17/22/32
f 13/23/33 14/24/34 23/25/35 24/26/36
f 14/27/37 13/23/38 16/28/39 15/44/40
f 15/29/41 16/28/42 20/30/43 19/46/44
f 17/32/45 18/47/46 22/15/47 21/33/48
f 19/31/49 20/30/50 24/26/51 23/48/52
f 9/17/53 14/27/54 15/44/55 12/18/56
f 12/45/57 15/29/58 19/46/59 18/21/60
f 18/47/61 19/31/62 23/48/63 22/15/64
f 22/49/65 23/25/66 14/24/67 9/12/68
f 26/34/69 25/35/70 27/36/71 28/37/72
f 30/38/73 29/39/74 31/40/75 32/41/76
f 13/23/77 24/26/78 25/35/79 26/34/80
f 24/26/81 20/30/82 27/36/83 25/35/84
f 20/30/85 16/28/86 28/37/87 27/36/88
f 16/28/89 13/23/90 26/34/91 28/37/92
f 21/42/93 10/16/94 29/39/95 30/38/96
f 10/16/97 11/19/98 31/40/99 29/39/100
f 11/19/101 17/43/102 32/41/103 31/40/104
f 17/43/105 21/42/106 30/38/107 32/41/108
g default
v -11.240245 -0.019943 0.452366
v -11.134040 -0.019943 0.452366
v -11.240245 -0.019943 0.514483
v -11.134040 -0.019943 0.514483
v -11.240245 2.241172 0.514483
v -11.134040 2.241172 0.514483
v -11.240245 2.241172 0.452366
v -11.134040 2.241172 0.452366
v -11.240245 -0.075419 0.535176
v -11.134040 -0.075419 0.535176
v -11.240245 -0.013303 0.535176
v -11.134040 -0.013303 0.535176
v -11.240245 -0.013303 -0.710246
v -11.134040 -0.013303 -0.710246
v -11.240245 -0.075419 -0.710246
v -11.134040 -0.075419 -0.710246
v -11.240245 2.234910 0.535176
v -11.134040 2.234910 0.535176
v -11.240245 2.297026 0.535176
v -11.134040 2.297026 0.535176
v -11.240245 2.297026 -0.710246
v -11.134040 2.297026 -0.710246
v -11.240245 2.234910 -0.710246
v -11.134040 2.234910 -0.710246
v -11.240245 -0.019943 -0.689168
v -11.134040 -0.019943 -0.689168
v -11.240245 -0.019943 -0.627051
v -11.134040 -0.019943 -0.627051
v -11.240245 2.241172 -0.627051
v -11.134040 2.241172 -0.627051
v -11.240245 2.241172 -0.689168
v -11.134040 2.241172 -0.689168
vt 0.999874 0.740508
vt 0.946220 0.760297
vt 0.980075 0.740505
vt 0.946223 0.740499
vt 0.980201 0.019805
vt 0.946349 0.019800
vt 0.892699 0.019790
vt 0.946353 0.000000
vt 0.892573 0.740489
vt 0.926425 0.740495
vt 0.926551 0.019796
vt 1.000000 0.019809
vt 0.019715 0.912332
vt 0.000143 0.858599
vt 0.019941 0.858682
vt 0.019799 0.892533
vt 0.416899 0.860358
vt 0.416756 0.894209
vt 0.436698 0.860441
vt 0.417126 0.806708
vt 0.020025 0.838884
vt 0.020168 0.805032
vt 0.416983 0.840559
vt 0.416673 0.914007
vt 0.580626 0.914318
vt 0.559141 0.861321
vt 0.578929 0.860695
vt 0.580000 0.894530
vt 0.975692 0.848140
vt 0.976763 0.881974
vt 0.995481 0.847513
vt 0.973995 0.794516
vt 0.578303 0.840906
vt 0.577232 0.807072
vt 0.975066 0.828351
vt 0.977389 0.901763
vt 0.779719 0.020206
vt 0.833217 0.000000
vt 0.833368 0.019798
vt 0.799518 0.020055
vt 0.838843 0.740478
vt 0.804993 0.740735
vt 0.838993 0.760276
vt 0.892492 0.740070
vt 0.853166 0.019648
vt 0.887016 0.019391
vt 0.858641 0.740327
vt 0.785194 0.740885
vt 0.980204 0.000007
vt 0.980072 0.760303
vt 0.560211 0.895156
vt 0.996552 0.881347
vt 0.805143 0.760533
vt 0.799367 0.000257
vt 0.000000 0.892450
vt 0.436555 0.894292
vn 0.000000 -1.000000 0.000000
vn 0.000000 -1.000000 0.000000
vn 0.000000 -1.000000 0.000000
vn 0.000000 -1.000000 0.000000
vn 0.000000 0.000000 1.000000
vn 0.000000 0.000000 1.000000
vn 0.000000 0.000000 1.000000
vn 0.000000 0.000000 1.000000
vn 0.000000 1.000000 0.000000
vn 0.000000 1.000000 0.000000
vn 0.000000 1.000000 0.000000
vn 0.000000 1.000000 0.000000
vn 0.000000 0.000000 -1.000000
vn 0.000000 0.000000 -1.000000
vn 0.000000 0.000000 -1.000000
vn 0.000000 0.000000 -1.000000
vn 1.000000 0.000000 0.000000
vn 1.000000 0.000000 0.000000
vn 1.000000 0.000000 0.000000
vn 1.000000 0.000000 0.000000
vn -1.000000 0.000000 0.000000
vn -1.000000 0.000000 0.000000
vn -1.000000 0.000000 0.000000
vn -1.000000 0.000000 0.000000
vn 0.000000 0.000000 1.000000
vn 0.000000 0.000000 1.000000
vn 0.000000 0.000000 1.000000
vn 0.000000 0.000000 1.000000
vn 0.000000 1.000000 0.000000
vn 0.000000 1.000000 0.000000
vn 0.000000 1.000000 0.000000
vn 0.000000 1.000000 0.000000
vn 0.000000 0.000000 -1.000000
vn 0.000000 0.000000 -1.000000
vn 0.000000 0.000000 -1.000000
vn 0.000000 0.000000 -1.000000
vn 0.000000 -1.000000 0.000000
vn 0.000000 -1.000000 0.000000
vn 0.000000 -1.000000 0.000000
vn 0.000000 -1.000000 0.000000
vn 1.000000 0.000000 0.000000
vn 1.000000 0.000000 0.000000
vn 1.000000 0.000000 0.000000
vn 1.000000 0.000000 0.000000
vn -1.000000 0.000000 0.000000
vn -1.000000 0.000000 0.000000
vn -1.000000 0.000000 0.000000
vn -1.000000 0.000000 0.000000
vn 0.000000 0.000000 1.000000
vn 0.000000 0.000000 1.000000
vn 0.000000 0.000000 1.000000
vn 0.000000 0.000000 1.000000
vn 0.000000 1.000000 0.000000
vn 0.000000 1.000000 0.000000
vn 0.000000 1.000000 0.000000
vn 0.000000 1.000000 0.000000
vn 0.000000 0.000000 -1.000000
vn 0.000000 0.000000 -1.000000
vn 0.000000 0.000000 -1.000000
vn 0.000000 0.000000 -1.000000
vn 0.000000 -1.000000 0.000000
vn 0.000000 -1.000000 0.000000
vn 0.000000 -1.000000 0.000000
vn 0.000000 -1.000000 0.000000
vn 1.000000 0.000000 0.000000
vn 1.000000 0.000000 0.000000
vn 1.000000 0.000000 0.000000
vn 1.000000 0.000000 0.000000
vn -1.000000 0.000000 0.000000
vn -1.000000 0.000000 0.000000
vn -1.000000 0.000000 0.000000
vn -1.000000 0.000000 0.000000
vn 0.000000 -1.000000 0.000000
vn 0.000000 -1.000000 0.000000
vn 0.000000 -1.000000 0.000000
vn 0.000000 -1.000000 0.000000
vn 0.000000 0.000000 1.000000
vn 0.000000 0.000000 1.000000
vn 0.000000 0.000000 1.000000
vn 0.000000 0.000000 1.000000
vn 0.000000 1.000000 0.000000
vn 0.000000 1.000000 0.000000
vn 0.000000 1.000000 0.000000
vn 0.000000 1.000000 0.000000
vn 0.000000 0.000000 -1.000000
vn 0.000000 0.000000 -1.000000
vn 0.000000 0.000000 -1.000000
vn 0.000000 0.000000 -1.000000
vn 1.000000 0.000000 0.000000
vn 1.000000 0.000000 0.000000
vn 1.000000 0.000000 0.000000
vn 1.000000 0.000000 0.000000
vn -1.000000 0.000000 0.000000
vn -1.000000 0.000000 0.000000
vn -1.000000 0.000000 0.000000
vn -1.000000 0.000000 0.000000
s off
g doorsframe
usemtl initialShadingGroup
f 33/100/109 34/52/110 36/54/111 35/53/112
f 35/53/113 36/54/114 38/56/115 37/55/116
f 37/55/117 38/56/118 40/58/119 39/99/120
f 39/57/121 40/61/122 34/60/123 33/59/124
f 34/60/125 40/61/126 38/56/127 36/54/128
f 39/62/129 33/51/130 35/53/131 37/55/132
f 41/105/133 42/64/134 44/65/135 43/66/136
f 43/66/137 44/65/138 46/67/139 45/68/140
f 45/68/141 46/67/142 48/69/143 47/106/144
f 47/70/145 48/73/146 42/71/147 41/72/148
f 42/71/149 48/73/150 46/67/151 44/65/152
f 47/74/153 41/63/154 43/66/155 45/68/156
f 49/101/157 50/76/158 52/77/159 51/78/160
f 51/78/161 52/77/162 54/79/163 53/80/164
f 53/80/165 54/79/166 56/81/167 55/102/168
f 55/82/169 56/85/170 50/83/171 49/84/172
f 50/83/173 56/85/174 54/79/175 52/77/176
f 55/86/177 49/75/178 51/78/179 53/80/180
f 57/104/181 58/88/182 60/89/183 59/90/184
f 59/90/185 60/89/186 62/91/187 61/92/188
f 61/92/189 62/91/190 64/93/191 63/103/192
f 63/94/193 64/97/194 58/95/195 57/96/196
f 58/95/197 64/97/198 62/91/199 60/89/200
f 63/98/201 57/87/202 59/90/203 61/92/204
