# This file uses centimeters as units for non-parametric coordinates.

mtllib Fridge.mtl
g default
v -1.900944 1.212022 -3.326272
v -1.878989 1.212022 -3.326272
v -1.900944 2.273490 -3.326272
v -1.878989 2.273490 -3.326272
v -1.900944 2.273490 -3.928368
v -1.878989 2.273490 -3.928368
v -1.900944 1.212022 -3.928368
v -1.878989 1.212022 -3.928368
v -1.863907 1.315114 -3.833654
v -1.863907 1.315114 -3.869737
v -1.863907 1.878917 -3.869737
v -1.863907 1.878917 -3.833654
v -1.821249 1.347861 -3.833654
v -1.842576 1.315114 -3.833654
v -1.821249 1.347861 -3.869737
v -1.842576 1.315114 -3.869737
v -1.842576 1.878917 -3.869737
v -1.821249 1.846170 -3.869737
v -1.821249 1.846170 -3.833654
v -1.842576 1.878917 -3.833654
v -1.863907 1.400862 -3.869737
v -1.863907 1.400862 -3.833654
v -1.863907 1.793169 -3.869737
v -1.863907 1.793169 -3.833654
v -1.904938 1.400862 -3.869737
v -1.904938 1.400862 -3.833654
v -1.904938 1.315114 -3.833654
v -1.904938 1.315114 -3.869737
v -1.904938 1.878917 -3.833654
v -1.904938 1.793169 -3.833654
v -1.904938 1.793169 -3.869737
v -1.904938 1.878917 -3.869737
v -1.911497 0.511803 -3.326272
v -1.889541 0.511803 -3.326272
v -1.911497 1.201658 -3.326272
v -1.889541 1.201658 -3.326272
v -1.911497 1.201658 -3.928368
v -1.889541 1.201658 -3.928368
v -1.911497 0.511803 -3.928368
v -1.889541 0.511803 -3.928368
v -1.863907 0.760948 -3.833654
v -1.863907 0.760948 -3.869737
v -1.863907 1.118668 -3.869737
v -1.863907 1.118668 -3.833654
v -1.821249 0.793695 -3.833654
v -1.842576 0.760948 -3.833654
v -1.821249 0.793695 -3.869737
v -1.842576 0.760948 -3.869737
v -1.842576 1.118668 -3.869737
v -1.821249 1.085920 -3.869737
v -1.821249 1.085920 -3.833654
v -1.842576 1.118668 -3.833654
v -1.863907 0.846696 -3.869737
v -1.863907 0.846696 -3.833654
v -1.863907 1.032919 -3.869737
v -1.863907 1.032919 -3.833654
v -1.904938 0.846696 -3.869737
v -1.904938 0.846696 -3.833654
v -1.904938 0.760948 -3.833654
v -1.904938 0.760948 -3.869737
v -1.904938 1.118668 -3.833654
v -1.904938 1.032919 -3.833654
v -1.904938 1.032919 -3.869737
v -1.904938 1.118668 -3.869737
v -1.907424 1.197817 -3.326272
v -1.907424 1.212454 -3.326272
v -2.455144 1.197817 -3.326272
v -2.455144 1.212454 -3.326272
v -2.455144 1.197817 -3.928368
v -2.455144 1.212454 -3.928368
v -1.907424 1.197817 -3.928368
v -1.907424 1.212454 -3.928368
v -2.457785 0.494302 -3.318710
v -1.902785 0.494302 -3.318710
v -2.457785 2.280377 -3.935710
v -1.902785 2.280377 -3.935710
v -2.457785 0.494302 -3.935710
v -1.902785 0.494302 -3.935710
v -1.902785 0.510678 -3.921331
v -1.902785 0.510678 -3.333089
v -1.902785 2.263567 -3.921331
v -2.434219 0.510678 -3.921331
v -2.434219 0.510678 -3.333089
v -2.434223 2.263567 -3.921331
v -2.457785 2.281433 -3.318710
v -1.902785 2.281433 -3.318710
v -1.902785 2.264623 -3.333089
v -2.434223 2.264623 -3.333089
v -2.457785 0.495358 -3.318710
v -1.902785 0.495358 -3.318710
v -1.902785 0.495358 -3.935710
v -1.902785 0.511734 -3.921331
v -1.902785 0.511734 -3.333089
v -1.902785 2.281433 -3.935710
v -1.902785 2.264623 -3.921331
v -2.457785 2.281433 -3.935710
v -2.457785 0.495358 -3.935710
v -2.434223 2.264623 -3.921331
v -2.434219 0.511734 -3.333089
v -2.434219 0.511734 -3.921331
vt 0.130745 0.002573
vt 0.135605 0.002573
vt 0.135605 0.237525
vt 0.130745 0.237525
vt 0.135605 0.370797
vt 0.130745 0.370797
vt 0.135605 0.605749
vt 0.130745 0.605749
vt 0.135605 0.739021
vt 0.130745 0.739021
vt 0.273630 0.002573
vt 0.273630 0.237525
vt 0.002227 0.002573
vt 0.002227 0.237525
vt 0.703679 0.009329
vt 0.705290 0.012889
vt 0.709968 0.013212
vt 0.710990 0.008789
vt 0.712330 0.020089
vt 0.727943 0.014360
vt 0.727523 0.142196
vt 0.725919 0.138636
vt 0.721244 0.138307
vt 0.720211 0.142726
vt 0.718895 0.131433
vt 0.703263 0.137120
vt 0.704036 0.021173
vt 0.727190 0.130355
vt 0.731333 0.029468
vt 0.723349 0.030544
vt 0.735049 0.117354
vt 0.743034 0.116278
vt 0.735683 0.016522
vt 0.738137 0.007683
vt 0.730364 0.005493
vt 0.687861 0.017600
vt 0.702070 0.000649
vt 0.683933 0.008703
vt 0.711562 0.000000
vt 0.700850 0.146004
vt 0.719621 0.151511
vt 0.750727 0.130797
vt 0.743370 0.134017
vt 0.747235 0.142733
vt 0.754546 0.139285
vt 0.729107 0.150867
vt 0.707876 0.120979
vt 0.696176 0.034174
vt 0.412092 0.000665
vt 0.416952 0.000665
vt 0.416952 0.153387
vt 0.412092 0.153387
vt 0.416952 0.286681
vt 0.412092 0.286681
vt 0.416952 0.439404
vt 0.412092 0.439404
vt 0.416952 0.572698
vt 0.412092 0.572698
vt 0.549222 0.000665
vt 0.549222 0.153387
vt 0.277773 0.000665
vt 0.277773 0.153387
vt 0.761167 0.009329
vt 0.768552 0.008820
vt 0.767512 0.013256
vt 0.762761 0.012911
vt 0.785571 0.014491
vt 0.769908 0.020169
vt 0.778549 0.097019
vt 0.771165 0.097510
vt 0.772221 0.093080
vt 0.776968 0.093435
vt 0.754156 0.091783
vt 0.769843 0.086169
vt 0.778350 0.085127
vt 0.761405 0.021222
vt 0.788941 0.029675
vt 0.794321 0.071069
vt 0.786301 0.072112
vt 0.780922 0.030717
vt 0.788040 0.005602
vt 0.795833 0.007837
vt 0.793331 0.016698
vt 0.745222 0.017562
vt 0.741326 0.008613
vt 0.759599 0.000608
vt 0.769160 0.000000
vt 0.770527 0.106324
vt 0.751689 0.100687
vt 0.801941 0.085715
vt 0.805718 0.094259
vt 0.798356 0.097674
vt 0.794534 0.088900
vt 0.780082 0.105733
vt 0.758832 0.075623
vt 0.753454 0.034235
vt 0.596581 0.153790
vt 0.599821 0.153790
vt 0.599821 0.275046
vt 0.596581 0.275046
vt 0.599821 0.408340
vt 0.596581 0.408340
vt 0.599821 0.529596
vt 0.596581 0.529596
vt 0.599821 0.662890
vt 0.596581 0.662890
vt 0.734047 0.153790
vt 0.734047 0.275046
vt 0.464218 0.153790
vt 0.464218 0.275046
vt 0.440013 0.274880
vt 0.562882 0.274880
vt 0.562882 0.670291
vt 0.440013 0.670291
vt 0.562882 0.806886
vt 0.440013 0.806886
vt 0.002897 0.754956
vt 0.002897 0.624735
vt 0.120542 0.624735
vt 0.120542 0.754956
vt 0.002897 0.236695
vt 0.120542 0.236695
vt 0.739675 0.275704
vt 0.862544 0.275704
vt 0.862544 0.671114
vt 0.739675 0.671114
vt 0.554705 0.004219
vt 0.677284 0.004219
vt 0.677284 0.140492
vt 0.554705 0.140492
vt 0.867728 0.000689
vt 0.997949 0.000689
vt 0.997949 0.388732
vt 0.867728 0.388732
vt 0.603080 0.275704
vt 0.603080 0.671114
vt 0.133917 0.467477
vt 0.271776 0.467477
vt 0.268592 0.471102
vt 0.137124 0.471102
vt 0.271776 0.862457
vt 0.268592 0.858756
vt 0.696177 0.148563
vt 0.559582 0.148563
vt 0.562755 0.144841
vt 0.692982 0.144841
vt 0.432400 0.548640
vt 0.432400 0.153264
vt 0.435582 0.156858
vt 0.435582 0.544887
vt 0.278745 0.747312
vt 0.278745 0.619008
vt 0.394658 0.619008
vt 0.394658 0.747312
vt 0.278745 0.236679
vt 0.394658 0.236679
vn 0.000000 0.000000 1.000000
vn 0.000000 0.000000 1.000000
vn 0.000000 0.000000 1.000000
vn 0.000000 0.000000 1.000000
vn 0.000000 1.000000 0.000000
vn 0.000000 1.000000 0.000000
vn 0.000000 1.000000 0.000000
vn 0.000000 1.000000 0.000000
vn 0.000000 0.000000 -1.000000
vn 0.000000 0.000000 -1.000000
vn 0.000000 0.000000 -1.000000
vn 0.000000 0.000000 -1.000000
vn 0.000000 -1.000000 0.000000
vn 0.000000 -1.000000 0.000000
vn 0.000000 -1.000000 0.000000
vn 0.000000 -1.000000 0.000000
vn 1.000000 0.000000 0.000000
vn 1.000000 0.000000 0.000000
vn 1.000000 0.000000 0.000000
vn 1.000000 0.000000 0.000000
vn -1.000000 0.000000 0.000000
vn -1.000000 0.000000 0.000000
vn -1.000000 0.000000 0.000000
vn -1.000000 0.000000 0.000000
vn 0.000000 -1.000000 0.000000
vn 0.000000 -1.000000 0.000000
vn 0.000000 -1.000000 0.000000
vn 0.000000 -1.000000 0.000000
vn 0.000000 0.000000 -1.000000
vn 0.000000 0.000000 -1.000000
vn 0.000000 0.000000 -1.000000
vn 0.000000 0.000000 -1.000000
vn 0.000000 1.000000 0.000000
vn 0.000000 1.000000 0.000000
vn 0.000000 1.000000 0.000000
vn 0.000000 1.000000 0.000000
vn 0.000000 0.000000 1.000000
vn 0.000000 0.000000 1.000000
vn 0.000000 0.000000 1.000000
vn 0.000000 0.000000 1.000000
vn 1.000000 0.000000 0.000000
vn 1.000000 0.000000 0.000000
vn 1.000000 0.000000 0.000000
vn 1.000000 0.000000 0.000000
vn 0.837955 -0.545740 0.000000
vn 0.837955 -0.545740 0.000000
vn 0.837955 -0.545740 0.000000
vn 0.837955 -0.545740 0.000000
vn 0.837955 0.545740 0.000000
vn 0.837955 0.545740 0.000000
vn 0.837955 0.545740 0.000000
vn 0.837955 0.545740 0.000000
vn -1.000000 0.000000 0.000000
vn -1.000000 0.000000 0.000000
vn -1.000000 0.000000 0.000000
vn -1.000000 0.000000 0.000000
vn 0.000000 1.000000 0.000000
vn 0.000000 1.000000 0.000000
vn 0.000000 1.000000 0.000000
vn 0.000000 1.000000 0.000000
vn 0.000000 0.000000 1.000000
vn 0.000000 0.000000 1.000000
vn 0.000000 0.000000 1.000000
vn 0.000000 0.000000 1.000000
vn 0.000000 -1.000000 0.000000
vn 0.000000 -1.000000 0.000000
vn 0.000000 -1.000000 0.000000
vn 0.000000 -1.000000 0.000000
vn 0.000000 0.000000 -1.000000
vn 0.000000 0.000000 -1.000000
vn 0.000000 0.000000 -1.000000
vn 0.000000 0.000000 -1.000000
vn 0.000000 0.000000 1.000000
vn 0.000000 0.000000 1.000000
vn 0.000000 0.000000 1.000000
vn 0.000000 0.000000 1.000000
vn 0.000000 -1.000000 0.000000
vn 0.000000 -1.000000 0.000000
vn 0.000000 -1.000000 0.000000
vn 0.000000 -1.000000 0.000000
vn 0.000000 0.000000 -1.000000
vn 0.000000 0.000000 -1.000000
vn 0.000000 0.000000 -1.000000
vn 0.000000 0.000000 -1.000000
vn 0.000000 1.000000 0.000000
vn 0.000000 1.000000 0.000000
vn 0.000000 1.000000 0.000000
vn 0.000000 1.000000 0.000000
vn 0.000000 0.000000 -1.000000
vn 0.000000 0.000000 -1.000000
vn 0.000000 0.000000 -1.000000
vn 0.000000 0.000000 -1.000000
vn 0.000000 0.000000 -1.000000
vn 0.000000 0.000000 -1.000000
vn 0.000000 0.000000 -1.000000
vn 0.000000 0.000000 -1.000000
vn -0.000007 0.000000 1.000000
vn -0.000007 0.000000 1.000000
vn -0.000007 0.000000 1.000000
vn -0.000007 0.000000 1.000000
vn 0.000000 0.000000 1.000000
vn 0.000000 0.000000 1.000000
vn 0.000000 0.000000 1.000000
vn 0.000000 0.000000 1.000000
vn 0.000000 0.000000 1.000000
vn 0.000000 0.000000 1.000000
vn 0.000000 0.000000 1.000000
vn 0.000000 0.000000 1.000000
vn 0.000000 1.000000 0.000000
vn 0.000000 1.000000 0.000000
vn 0.000000 1.000000 0.000000
vn 0.000000 1.000000 0.000000
vn 0.000000 0.000000 -1.000000
vn 0.000000 0.000000 -1.000000
vn 0.000000 0.000000 -1.000000
vn 0.000000 0.000000 -1.000000
vn 0.000000 -1.000000 0.000000
vn 0.000000 -1.000000 0.000000
vn 0.000000 -1.000000 0.000000
vn 0.000000 -1.000000 0.000000
vn 1.000000 0.000000 0.000000
vn 1.000000 0.000000 0.000000
vn 1.000000 0.000000 0.000000
vn 1.000000 0.000000 0.000000
vn -1.000000 0.000000 0.000000
vn -1.000000 0.000000 0.000000
vn -1.000000 0.000000 0.000000
vn -1.000000 0.000000 0.000000
vn 0.000000 -1.000000 0.000000
vn 0.000000 -1.000000 0.000000
vn 0.000000 -1.000000 0.000000
vn 0.000000 -1.000000 0.000000
vn 0.000000 0.000000 -1.000000
vn 0.000000 0.000000 -1.000000
vn 0.000000 0.000000 -1.000000
vn 0.000000 0.000000 -1.000000
vn 0.000000 1.000000 0.000000
vn 0.000000 1.000000 0.000000
vn 0.000000 1.000000 0.000000
vn 0.000000 1.000000 0.000000
vn 0.000000 0.000000 1.000000
vn 0.000000 0.000000 1.000000
vn 0.000000 0.000000 1.000000
vn 0.000000 0.000000 1.000000
vn 1.000000 0.000000 0.000000
vn 1.000000 0.000000 0.000000
vn 1.000000 0.000000 0.000000
vn 1.000000 0.000000 0.000000
vn 0.837955 -0.545740 0.000000
vn 0.837955 -0.545740 0.000000
vn 0.837955 -0.545740 0.000000
vn 0.837955 -0.545740 0.000000
vn 0.837955 0.545740 0.000000
vn 0.837955 0.545740 0.000000
vn 0.837955 0.545740 0.000000
vn 0.837955 0.545740 0.000000
vn -1.000000 0.000000 0.000000
vn -1.000000 0.000000 0.000000
vn -1.000000 0.000000 0.000000
vn -1.000000 0.000000 0.000000
vn 0.000000 1.000000 0.000000
vn 0.000000 1.000000 0.000000
vn 0.000000 1.000000 0.000000
vn 0.000000 1.000000 0.000000
vn 0.000000 0.000000 1.000000
vn 0.000000 0.000000 1.000000
vn 0.000000 0.000000 1.000000
vn 0.000000 0.000000 1.000000
vn 0.000000 -1.000000 0.000000
vn 0.000000 -1.000000 0.000000
vn 0.000000 -1.000000 0.000000
vn 0.000000 -1.000000 0.000000
vn 0.000000 0.000000 -1.000000
vn 0.000000 0.000000 -1.000000
vn 0.000000 0.000000 -1.000000
vn 0.000000 0.000000 -1.000000
vn 0.000000 0.000000 1.000000
vn 0.000000 0.000000 1.000000
vn 0.000000 0.000000 1.000000
vn 0.000000 0.000000 1.000000
vn 0.000000 -1.000000 0.000000
vn 0.000000 -1.000000 0.000000
vn 0.000000 -1.000000 0.000000
vn 0.000000 -1.000000 0.000000
vn 0.000000 0.000000 -1.000000
vn 0.000000 0.000000 -1.000000
vn 0.000000 0.000000 -1.000000
vn 0.000000 0.000000 -1.000000
vn 0.000000 1.000000 0.000000
vn 0.000000 1.000000 0.000000
vn 0.000000 1.000000 0.000000
vn 0.000000 1.000000 0.000000
vn 0.000000 0.000000 -1.000000
vn 0.000000 0.000000 -1.000000
vn 0.000000 0.000000 -1.000000
vn 0.000000 0.000000 -1.000000
vn 0.000000 0.000000 -1.000000
vn 0.000000 0.000000 -1.000000
vn 0.000000 0.000000 -1.000000
vn 0.000000 0.000000 -1.000000
vn -0.000007 0.000000 1.000000
vn -0.000007 0.000000 1.000000
vn -0.000007 0.000000 1.000000
vn -0.000007 0.000000 1.000000
vn 0.000000 0.000000 1.000000
vn 0.000000 0.000000 1.000000
vn 0.000000 0.000000 1.000000
vn 0.000000 0.000000 1.000000
vn 0.000000 0.000000 1.000000
vn 0.000000 0.000000 1.000000
vn 0.000000 0.000000 1.000000
vn 0.000000 0.000000 1.000000
vn -1.000000 0.000000 0.000000
vn -1.000000 0.000000 0.000000
vn -1.000000 0.000000 0.000000
vn -1.000000 0.000000 0.000000
vn 0.000000 0.000000 -1.000000
vn 0.000000 0.000000 -1.000000
vn 0.000000 0.000000 -1.000000
vn 0.000000 0.000000 -1.000000
vn 1.000000 0.000000 0.000000
vn 1.000000 0.000000 0.000000
vn 1.000000 0.000000 0.000000
vn 1.000000 0.000000 0.000000
vn 0.000000 1.000000 0.000000
vn 0.000000 1.000000 0.000000
vn 0.000000 1.000000 0.000000
vn 0.000000 1.000000 0.000000
vn 0.000000 -1.000000 0.000000
vn 0.000000 -1.000000 0.000000
vn 0.000000 -1.000000 0.000000
vn 0.000000 -1.000000 0.000000
vn 0.000000 0.000000 -1.000000
vn 0.000000 0.000000 -1.000000
vn 0.000000 0.000000 -1.000000
vn 0.000000 0.000000 -1.000000
vn 0.000000 -1.000000 0.000000
vn 0.000000 -1.000000 0.000000
vn 0.000000 -1.000000 0.000000
vn 0.000000 -1.000000 0.000000
vn 0.000000 1.000000 0.000000
vn 0.000000 1.000000 0.000000
vn 0.000000 1.000000 0.000000
vn 0.000000 1.000000 0.000000
vn 0.000000 0.000000 1.000000
vn 0.000000 0.000000 1.000000
vn 0.000000 0.000000 1.000000
vn 0.000000 0.000000 1.000000
vn 0.000000 0.000000 1.000000
vn 0.000000 0.000000 1.000000
vn 0.000000 0.000000 1.000000
vn 0.000000 0.000000 1.000000
vn 0.000000 1.000000 0.000000
vn 0.000000 1.000000 0.000000
vn 0.000000 1.000000 0.000000
vn 0.000000 1.000000 0.000000
vn 1.000000 0.000006 0.000000
vn 1.000000 0.000006 0.000000
vn 1.000000 0.000006 0.000000
vn 1.000000 0.000006 0.000000
vn -1.000000 0.000000 0.000000
vn -1.000000 0.000000 0.000000
vn -1.000000 0.000000 0.000000
vn -1.000000 0.000000 0.000000
vn 1.000000 0.000000 0.000000
vn 1.000000 0.000000 0.000000
vn 1.000000 0.000000 0.000000
vn 1.000000 0.000000 0.000000
vn 1.000000 0.000000 0.000002
vn 1.000000 0.000000 0.000002
vn 1.000000 0.000000 0.000002
vn 1.000000 0.000000 0.000002
vn 1.000000 -0.000002 0.000000
vn 1.000000 -0.000002 0.000000
vn 1.000000 -0.000002 0.000000
vn 1.000000 -0.000002 0.000000
vn 1.000000 0.000000 -0.000002
vn 1.000000 0.000000 -0.000002
vn 1.000000 0.000000 -0.000002
vn 1.000000 0.000000 -0.000002
vn 0.000000 -1.000000 0.000000
vn 0.000000 -1.000000 0.000000
vn 0.000000 -1.000000 0.000000
vn 0.000000 -1.000000 0.000000
vn 0.000000 0.000000 -1.000000
vn 0.000000 0.000000 -1.000000
vn 0.000000 0.000000 -1.000000
vn 0.000000 0.000000 -1.000000
s off
g Fridge1
usemtl initialShadingGroup
f 1/1/1 2/2/2 4/3/3 3/4/4
f 3/4/5 4/3/6 6/5/7 5/6/8
f 5/6/9 6/5/10 8/7/11 7/8/12
f 7/8/13 8/7/14 2/9/15 1/10/16
f 2/2/17 8/11/18 6/12/19 4/3/20
f 7/13/21 1/1/22 3/4/23 5/14/24
usemtl TopCupboard:initialShadingGroup
f 9/15/25 10/18/26 16/17/27 14/16/28
f 10/18/29 21/20/30 15/19/31 16/17/32
f 11/21/33 12/24/34 20/23/35 17/22/36
f 12/24/37 24/26/38 19/25/39 20/23/40
f 15/19/41 18/28/42 19/25/43 13/27/44
f 14/16/45 16/17/46 15/19/47 13/27/48
f 17/22/49 20/23/50 19/25/51 18/28/52
f 22/29/53 24/32/54 23/31/55 21/30/56
f 21/20/57 25/35/58 26/34/59 22/33/60
f 22/36/61 26/38/62 27/37/63 9/15/64
f 9/15/65 27/37/66 28/39/67 10/18/68
f 10/18/69 28/39/70 25/35/71 21/20/72
f 12/24/73 29/41/74 30/40/75 24/26/76
f 24/42/77 30/45/78 31/44/79 23/43/80
f 23/43/81 31/44/82 32/46/83 11/21/84
f 11/21/85 32/46/86 29/41/87 12/24/88
f 21/30/89 23/31/90 18/28/91 15/19/92
f 23/43/93 11/21/94 17/22/95 18/28/96
f 24/47/97 22/48/98 13/27/99 19/25/100
f 22/36/101 9/15/102 14/16/103 13/27/104
usemtl initialShadingGroup
f 33/49/105 34/50/106 36/51/107 35/52/108
f 35/52/109 36/51/110 38/53/111 37/54/112
f 37/54/113 38/53/114 40/55/115 39/56/116
f 39/56/117 40/55/118 34/57/119 33/58/120
f 34/50/121 40/59/122 38/60/123 36/51/124
f 39/61/125 33/49/126 35/52/127 37/62/128
usemtl TopCupboard:initialShadingGroup
f 41/63/129 42/64/130 48/65/131 46/66/132
f 42/64/133 53/67/134 47/68/135 48/65/136
f 43/69/137 44/70/138 52/71/139 49/72/140
f 44/70/141 56/73/142 51/74/143 52/71/144
f 47/68/145 50/75/146 51/74/147 45/76/148
f 46/66/149 48/65/150 47/68/151 45/76/152
f 49/72/153 52/71/154 51/74/155 50/75/156
f 54/77/157 56/78/158 55/79/159 53/80/160
f 53/67/161 57/81/162 58/82/163 54/83/164
f 54/84/165 58/85/166 59/86/167 41/63/168
f 41/63/169 59/86/170 60/87/171 42/64/172
f 42/64/173 60/87/174 57/81/175 53/67/176
f 44/70/177 61/88/178 62/89/179 56/73/180
f 56/90/181 62/91/182 63/92/183 55/93/184
f 55/93/185 63/92/186 64/94/187 43/69/188
f 43/69/189 64/94/190 61/88/191 44/70/192
f 53/80/193 55/79/194 50/75/195 47/68/196
f 55/93/197 43/69/198 49/72/199 50/75/200
f 56/95/201 54/96/202 45/76/203 51/74/204
f 54/84/205 41/63/206 46/66/207 45/76/208
usemtl initialShadingGroup
f 65/97/209 66/98/210 68/99/211 67/100/212
f 67/100/213 68/99/214 70/101/215 69/102/216
f 69/102/217 70/101/218 72/103/219 71/104/220
f 71/104/221 72/103/222 66/105/223 65/106/224
f 66/98/225 72/107/226 70/108/227 68/99/228
f 71/109/229 65/97/230 67/100/231 69/110/232
f 75/111/233 76/112/234 78/113/235 77/114/236
f 77/114/237 78/113/238 74/115/239 73/116/240
f 80/117/241 79/118/242 82/119/243 83/120/244
f 79/118/245 81/121/246 84/122/247 82/119/248
f 89/123/249 90/124/250 86/125/251 85/126/252
f 85/127/253 86/128/254 94/129/255 96/130/256
f 99/131/257 100/132/258 98/133/259 88/134/260
f 97/135/261 89/123/262 85/126/263 96/136/264
f 90/137/265 91/138/266 92/139/267 93/140/268
f 91/138/269 94/141/270 95/142/271 92/139/272
f 94/143/273 86/144/274 87/145/275 95/146/276
f 86/147/277 90/148/278 93/149/279 87/150/280
f 95/151/281 87/152/282 88/153/283 98/154/284
f 87/152/285 93/155/286 99/156/287 88/153/288
