# This file uses centimeters as units for non-parametric coordinates.

mtllib office_desk_and_cubicle_walls.mtl
g default
v -4.739949 0.704915 -4.117226
v -2.931395 0.704915 -4.117226
v -4.739949 0.795525 -4.117226
v -2.931395 0.795525 -4.117226
v -4.739949 0.795525 -5.117226
v -2.931395 0.795525 -5.117226
v -4.739949 0.704915 -5.117226
v -2.931395 0.704915 -5.117226
v -4.703643 0.063817 -4.162099
v -4.026250 0.063817 -4.162099
v -4.703643 0.710506 -4.162099
v -4.026250 0.710506 -4.162099
v -4.703643 0.710506 -5.051794
v -4.026250 0.710506 -5.051794
v -4.703643 0.063817 -5.051794
v -4.026250 0.063817 -5.051794
v -4.703643 0.690444 -4.162099
v -4.703643 0.690444 -5.051794
v -4.026250 0.690444 -5.051794
v -4.026250 0.690444 -4.162099
v -4.703643 0.424162 -4.162099
v -4.703643 0.424162 -5.051794
v -4.026250 0.424162 -5.051794
v -4.026250 0.424162 -4.162099
v -4.703643 0.394573 -4.162099
v -4.703643 0.394573 -5.051794
v -4.026250 0.394573 -5.051794
v -4.026250 0.394573 -4.162099
v -4.703643 0.143365 -4.162099
v -4.703643 0.143365 -5.051794
v -4.026250 0.143365 -5.051794
v -4.026250 0.143365 -4.162099
v -4.703643 0.690444 -5.095673
v -4.026250 0.690444 -5.095673
v -4.026250 0.424162 -5.095673
v -4.703643 0.424162 -5.095673
v -4.703643 0.394573 -5.095673
v -4.026250 0.394573 -5.095673
v -4.026250 0.143365 -5.095673
v -4.703643 0.143365 -5.095673
v -3.034133 0.063817 -4.150350
v -2.973590 0.063817 -4.150350
v -3.034133 0.732708 -4.150350
v -2.973590 0.732708 -4.150350
v -3.034133 0.732708 -5.073181
v -2.973590 0.732708 -5.073181
v -3.034133 0.063817 -5.073181
v -2.973590 0.063817 -5.073181
v -4.414530 0.598028 -5.081942
v -4.317125 0.598028 -5.081942
v -4.414530 0.626539 -5.081942
v -4.317125 0.626539 -5.081942
v -4.414530 0.626539 -5.114451
v -4.317125 0.626539 -5.114451
v -4.414530 0.598028 -5.114451
v -4.317125 0.598028 -5.114451
v -4.414530 0.312909 -5.081942
v -4.317125 0.312909 -5.081942
v -4.414530 0.341420 -5.081942
v -4.317125 0.341420 -5.081942
v -4.414530 0.341420 -5.114451
v -4.317125 0.341420 -5.114451
v -4.414530 0.312909 -5.114451
v -4.317125 0.312909 -5.114451
vt 0.186277 0.000811
vt 0.523169 0.000289
vt 0.186303 0.017689
vt 0.523195 0.017167
vt 0.186592 0.203966
vt 0.523484 0.203444
vt 0.186618 0.220845
vt 0.523510 0.220323
vt 0.186906 0.407122
vt 0.523798 0.406600
vt 0.709446 0.000000
vt 0.709472 0.016879
vt 0.000000 0.001099
vt 0.000026 0.017978
vt 0.651906 0.838697
vt 0.525724 0.838422
vt 0.525756 0.823604
vt 0.651939 0.823879
vt 0.652170 0.718234
vt 0.525987 0.717958
vt 0.518193 0.544037
vt 0.652531 0.552504
vt 0.660989 0.422356
vt 0.526651 0.413889
vt 0.526683 0.399071
vt 0.661021 0.407538
vt 0.527045 0.233342
vt 0.653228 0.233617
vt 0.352762 0.406865
vt 0.352730 0.421683
vt 0.826751 0.407900
vt 0.826719 0.422718
vt 0.652539 0.548767
vt 0.826460 0.540973
vt 0.826452 0.544710
vt 0.518201 0.540300
vt 0.352472 0.539938
vt 0.352463 0.543676
vt 0.652161 0.721971
vt 0.525979 0.721695
vt 0.660839 0.491009
vt 0.826604 0.475024
vt 0.652557 0.540594
vt 0.526375 0.540318
vt 0.526483 0.490716
vt 0.652666 0.490991
vt 0.352580 0.490336
vt 0.526501 0.482542
vt 0.652053 0.771573
vt 0.525870 0.771298
vt 0.652696 0.477306
vt 0.826616 0.469512
vt 0.518357 0.468839
vt 0.352628 0.468477
vt 0.652041 0.777085
vt 0.525858 0.776809
vt 0.652713 0.469132
vt 0.526531 0.468857
vt 0.526633 0.422063
vt 0.652816 0.422338
vt 0.337361 1.000000
vt 0.326086 0.999786
vt 0.328449 0.875209
vt 0.339725 0.875423
vt 0.331710 0.703338
vt 0.342985 0.703552
vt 0.334073 0.578761
vt 0.345349 0.578975
vt 0.337333 0.406890
vt 0.348609 0.407104
vt 0.162201 0.575501
vt 0.159838 0.700077
vt 0.517220 0.582236
vt 0.514857 0.706812
vt 0.737398 0.022733
vt 0.719253 0.022814
vt 0.719230 0.017503
vt 0.737374 0.017422
vt 0.719203 0.011447
vt 0.737347 0.011367
vt 0.719180 0.006136
vt 0.737324 0.006056
vt 0.719153 0.000080
vt 0.737297 0.000000
vt 0.713124 0.006163
vt 0.713147 0.011474
vt 0.743379 0.006029
vt 0.743403 0.011340
vt 0.770083 0.022779
vt 0.751938 0.022734
vt 0.751952 0.017423
vt 0.770096 0.017468
vt 0.751967 0.011367
vt 0.770111 0.011412
vt 0.751980 0.006056
vt 0.770125 0.006102
vt 0.751995 0.000000
vt 0.770140 0.000046
vt 0.745924 0.006041
vt 0.745911 0.011352
vt 0.776180 0.006117
vt 0.776167 0.011428
vt 0.526349 0.552229
vt 0.652866 0.399347
vt 0.660723 0.544349
vt 0.660731 0.540611
vt 0.526357 0.548492
vt 0.652833 0.414165
vt 0.518492 0.407227
vt 0.518459 0.422045
vt 0.352616 0.473989
vt 0.660875 0.474662
vt 0.826569 0.491371
vt 0.518309 0.490698
vt 0.652683 0.482818
vt 0.518345 0.474351
vt 0.526513 0.477031
vt 0.660887 0.469150
vn 0.000000 0.000000 1.000000
vn 0.000000 0.000000 1.000000
vn 0.000000 0.000000 1.000000
vn 0.000000 0.000000 1.000000
vn 0.000000 1.000000 0.000000
vn 0.000000 1.000000 0.000000
vn 0.000000 1.000000 0.000000
vn 0.000000 1.000000 0.000000
vn 0.000000 0.000000 -1.000000
vn 0.000000 0.000000 -1.000000
vn 0.000000 0.000000 -1.000000
vn 0.000000 0.000000 -1.000000
vn 0.000000 -1.000000 0.000000
vn 0.000000 -1.000000 0.000000
vn 0.000000 -1.000000 0.000000
vn 0.000000 -1.000000 0.000000
vn 1.000000 0.000000 0.000000
vn 1.000000 0.000000 0.000000
vn 1.000000 0.000000 0.000000
vn 1.000000 0.000000 0.000000
vn -1.000000 0.000000 0.000000
vn -1.000000 0.000000 0.000000
vn -1.000000 0.000000 0.000000
vn -1.000000 0.000000 0.000000
vn 0.000000 0.000000 1.000000
vn 0.000000 0.000000 1.000000
vn 0.000000 0.000000 1.000000
vn 0.000000 0.000000 1.000000
vn 0.000000 1.000000 0.000000
vn 0.000000 1.000000 0.000000
vn 0.000000 1.000000 0.000000
vn 0.000000 1.000000 0.000000
vn 0.000000 0.000000 -1.000000
vn 0.000000 0.000000 -1.000000
vn 0.000000 0.000000 -1.000000
vn 0.000000 0.000000 -1.000000
vn 0.000000 -1.000000 0.000000
vn 0.000000 -1.000000 0.000000
vn 0.000000 -1.000000 0.000000
vn 0.000000 -1.000000 0.000000
vn 1.000000 0.000000 0.000000
vn 1.000000 0.000000 0.000000
vn 1.000000 0.000000 0.000000
vn 1.000000 0.000000 0.000000
vn -1.000000 0.000000 0.000000
vn -1.000000 0.000000 0.000000
vn -1.000000 0.000000 0.000000
vn -1.000000 0.000000 0.000000
vn -1.000000 0.000000 0.000000
vn -1.000000 0.000000 0.000000
vn -1.000000 0.000000 0.000000
vn -1.000000 0.000000 0.000000
vn 0.000000 0.000000 -1.000000
vn 0.000000 0.000000 -1.000000
vn 0.000000 0.000000 -1.000000
vn 0.000000 0.000000 -1.000000
vn 1.000000 0.000000 0.000000
vn 1.000000 0.000000 0.000000
vn 1.000000 0.000000 0.000000
vn 1.000000 0.000000 0.000000
vn 0.000000 0.000000 1.000000
vn 0.000000 0.000000 1.000000
vn 0.000000 0.000000 1.000000
vn 0.000000 0.000000 1.000000
vn -1.000000 0.000000 0.000000
vn -1.000000 0.000000 0.000000
vn 0.000000 0.000000 -1.000000
vn 0.000000 0.000000 -1.000000
vn 0.000000 0.000000 -1.000000
vn 0.000000 0.000000 -1.000000
vn 1.000000 0.000000 0.000000
vn 1.000000 0.000000 0.000000
vn 0.000000 0.000000 1.000000
vn 0.000000 0.000000 1.000000
vn -1.000000 0.000000 0.000000
vn -1.000000 0.000000 0.000000
vn 0.000000 0.000000 -1.000000
vn 0.000000 0.000000 -1.000000
vn 0.000000 0.000000 -1.000000
vn 0.000000 0.000000 -1.000000
vn 1.000000 0.000000 0.000000
vn 1.000000 0.000000 0.000000
vn 0.000000 0.000000 1.000000
vn 0.000000 0.000000 1.000000
vn 0.000000 0.000000 -1.000000
vn 0.000000 0.000000 -1.000000
vn 0.000000 0.000000 -1.000000
vn 0.000000 0.000000 -1.000000
vn 0.000000 1.000000 0.000000
vn 0.000000 1.000000 0.000000
vn 0.000000 1.000000 0.000000
vn 0.000000 1.000000 0.000000
vn 1.000000 0.000000 0.000000
vn 1.000000 0.000000 0.000000
vn 0.000000 -1.000000 0.000000
vn 0.000000 -1.000000 0.000000
vn 0.000000 -1.000000 0.000000
vn 0.000000 -1.000000 0.000000
vn -1.000000 0.000000 0.000000
vn -1.000000 0.000000 0.000000
vn 0.000000 1.000000 0.000000
vn 0.000000 1.000000 0.000000
vn 0.000000 1.000000 0.000000
vn 0.000000 1.000000 0.000000
vn 1.000000 0.000000 0.000000
vn 1.000000 0.000000 0.000000
vn 0.000000 -1.000000 0.000000
vn 0.000000 -1.000000 0.000000
vn 0.000000 -1.000000 0.000000
vn 0.000000 -1.000000 0.000000
vn -1.000000 0.000000 0.000000
vn -1.000000 0.000000 0.000000
vn 0.000000 0.000000 1.000000
vn 0.000000 0.000000 1.000000
vn 0.000000 0.000000 1.000000
vn 0.000000 0.000000 1.000000
vn 0.000000 1.000000 0.000000
vn 0.000000 1.000000 0.000000
vn 0.000000 1.000000 0.000000
vn 0.000000 1.000000 0.000000
vn 0.000000 0.000000 -1.000000
vn 0.000000 0.000000 -1.000000
vn 0.000000 0.000000 -1.000000
vn 0.000000 0.000000 -1.000000
vn 0.000000 -1.000000 0.000000
vn 0.000000 -1.000000 0.000000
vn 0.000000 -1.000000 0.000000
vn 0.000000 -1.000000 0.000000
vn 1.000000 0.000000 0.000000
vn 1.000000 0.000000 0.000000
vn 1.000000 0.000000 0.000000
vn 1.000000 0.000000 0.000000
vn -1.000000 0.000000 0.000000
vn -1.000000 0.000000 0.000000
vn -1.000000 0.000000 0.000000
vn -1.000000 0.000000 0.000000
vn 0.000000 0.000000 1.000000
vn 0.000000 0.000000 1.000000
vn 0.000000 0.000000 1.000000
vn 0.000000 0.000000 1.000000
vn 0.000000 1.000000 0.000000
vn 0.000000 1.000000 0.000000
vn 0.000000 1.000000 0.000000
vn 0.000000 1.000000 0.000000
vn 0.000000 0.000000 -1.000000
vn 0.000000 0.000000 -1.000000
vn 0.000000 0.000000 -1.000000
vn 0.000000 0.000000 -1.000000
vn 0.000000 -1.000000 0.000000
vn 0.000000 -1.000000 0.000000
vn 0.000000 -1.000000 0.000000
vn 0.000000 -1.000000 0.000000
vn 1.000000 0.000000 0.000000
vn 1.000000 0.000000 0.000000
vn 1.000000 0.000000 0.000000
vn 1.000000 0.000000 0.000000
vn -1.000000 0.000000 0.000000
vn -1.000000 0.000000 0.000000
vn -1.000000 0.000000 0.000000
vn -1.000000 0.000000 0.000000
vn 0.000000 0.000000 1.000000
vn 0.000000 0.000000 1.000000
vn 0.000000 0.000000 1.000000
vn 0.000000 0.000000 1.000000
vn 0.000000 1.000000 0.000000
vn 0.000000 1.000000 0.000000
vn 0.000000 1.000000 0.000000
vn 0.000000 1.000000 0.000000
vn 0.000000 0.000000 -1.000000
vn 0.000000 0.000000 -1.000000
vn 0.000000 0.000000 -1.000000
vn 0.000000 0.000000 -1.000000
vn 0.000000 -1.000000 0.000000
vn 0.000000 -1.000000 0.000000
vn 0.000000 -1.000000 0.000000
vn 0.000000 -1.000000 0.000000
vn 1.000000 0.000000 0.000000
vn 1.000000 0.000000 0.000000
vn 1.000000 0.000000 0.000000
vn 1.000000 0.000000 0.000000
vn -1.000000 0.000000 0.000000
vn -1.000000 0.000000 0.000000
vn -1.000000 0.000000 0.000000
vn -1.000000 0.000000 0.000000
s off
g desk2
usemtl initialShadingGroup
f 1/1/1 2/2/2 4/4/3 3/3/4
f 3/3/5 4/4/6 6/6/7 5/5/8
f 5/5/9 6/6/10 8/8/11 7/7/12
f 7/7/13 8/8/14 2/10/15 1/9/16
f 2/2/17 8/11/18 6/12/19 4/4/20
f 7/13/21 1/1/22 3/3/23 5/14/24
s 1
f 9/15/25 10/16/26 32/17/27 29/18/28
s off
f 11/19/29 12/20/30 14/103/31 13/22/32
f 30/108/33 31/24/34 16/25/35 15/104/36
f 15/104/37 16/25/38 10/27/39 9/28/40
s 2
f 10/29/41 16/109/42 31/110/43 32/30/44
s 3
f 15/26/45 9/31/46 29/32/47 30/23/48
f 18/106/49 17/34/50 11/35/51 13/105/52
s off
f 13/22/53 14/103/54 19/107/55 18/33/56
s 2
f 20/37/57 19/36/58 14/21/59 12/38/60
s 1
f 17/39/61 20/40/62 12/20/63 11/19/64
s 3
f 22/41/65 21/113/66 17/34/50 18/106/49
s off
f 33/43/67 34/44/68 35/45/69 36/46/70
s 2
f 24/47/71 23/114/72 19/36/58 20/37/57
s 1
f 21/49/73 24/50/74 20/40/62 17/39/61
s 3
f 26/118/75 25/52/76 21/42/66 22/112/65
s off
f 22/115/77 23/48/78 27/117/79 26/51/80
s 2
f 28/54/81 27/53/82 23/116/72 24/111/71
s 1
f 25/55/83 28/56/84 24/50/74 21/49/73
s 3
f 30/23/48 29/32/47 25/52/76 26/118/75
s off
f 37/57/85 38/58/86 39/59/87 40/60/88
s 2
f 32/30/44 31/110/43 27/53/82 28/54/81
s 1
f 29/18/28 32/17/27 28/56/84 25/55/83
s off
f 18/33/89 19/107/90 34/44/91 33/43/92
s 2
f 19/36/58 23/114/72 35/45/93 34/44/94
s off
f 23/48/95 22/115/96 36/46/97 35/45/98
s 3
f 22/41/65 18/106/49 33/43/99 36/46/100
s off
f 26/51/101 27/117/102 38/58/103 37/57/104
s 2
f 27/53/82 31/110/43 39/59/105 38/58/106
s off
f 31/24/107 30/108/108 40/60/109 39/59/110
s 3
f 30/23/48 26/118/75 37/57/111 40/60/112
s off
f 41/61/113 42/62/114 44/63/115 43/64/116
f 43/64/117 44/63/118 46/65/119 45/66/120
f 45/66/121 46/65/122 48/67/123 47/68/124
f 47/68/125 48/67/126 42/69/127 41/70/128
f 42/71/129 48/67/130 46/65/131 44/72/132
f 47/68/133 41/73/134 43/74/135 45/66/136
f 49/75/137 50/76/138 52/77/139 51/78/140
f 51/78/141 52/77/142 54/79/143 53/80/144
f 53/80/145 54/79/146 56/81/147 55/82/148
f 55/82/149 56/81/150 50/83/151 49/84/152
f 50/85/153 56/81/154 54/79/155 52/86/156
f 55/82/157 49/87/158 51/88/159 53/80/160
f 57/89/161 58/90/162 60/91/163 59/92/164
f 59/92/165 60/91/166 62/93/167 61/94/168
f 61/94/169 62/93/170 64/95/171 63/96/172
f 63/96/173 64/95/174 58/97/175 57/98/176
f 58/99/177 64/95/178 62/93/179 60/100/180
f 63/96/181 57/101/182 59/102/183 61/94/184
g default
v -2.936020 0.063817 -4.027673
v -2.936020 0.063817 -4.086195
v -2.936020 1.872759 -4.027673
v -2.936020 1.872759 -4.086195
v -4.772086 1.872759 -4.027673
v -4.772086 1.872759 -4.086195
v -4.772086 0.063817 -4.027673
v -4.772086 0.063817 -4.086195
v -2.936020 0.233016 -4.027673
v -4.772086 0.233016 -4.027673
v -4.772086 0.233016 -4.086195
v -2.936020 0.233016 -4.086195
vt 0.998756 0.014164
vt 0.015425 0.016648
vt 0.999961 0.490967
vt 0.016630 0.493452
vt 0.516008 0.492190
vt 0.500583 0.492229
vt 0.514804 0.015387
vt 0.499378 0.015425
vt 0.015387 0.001223
vt 0.000000 0.016687
vt 0.998869 0.058761
vt 0.000113 0.061285
vt 0.514916 0.059984
vt 0.499491 0.060023
vt 0.015538 0.061246
vt 0.499339 0.000000
vt 0.516047 0.507615
vt 0.001205 0.493491
vt 1.000000 0.506392
vn 1.000000 0.000000 0.000000
vn 1.000000 0.000000 0.000000
vn 1.000000 0.000000 0.000000
vn 1.000000 0.000000 0.000000
vn 0.000000 1.000000 0.000000
vn 0.000000 1.000000 0.000000
vn 0.000000 1.000000 0.000000
vn 0.000000 1.000000 0.000000
vn -1.000000 0.000000 -0.000000
vn -1.000000 0.000000 -0.000000
vn -1.000000 0.000000 -0.000000
vn -1.000000 0.000000 -0.000000
vn 0.000000 -1.000000 0.000000
vn 0.000000 -1.000000 0.000000
vn 0.000000 -1.000000 0.000000
vn 0.000000 -1.000000 0.000000
vn 0.000000 0.000000 -1.000000
vn 0.000000 0.000000 -1.000000
vn -0.000000 -0.000000 -1.000000
vn -0.000000 -0.000000 -1.000000
vn 0.000000 0.000000 1.000000
vn 0.000000 0.000000 1.000000
vn 0.000000 0.000000 1.000000
vn 0.000000 0.000000 1.000000
vn 0.000000 0.000000 1.000000
vn 0.000000 0.000000 1.000000
vn -1.000000 0.000000 -0.000000
vn -1.000000 0.000000 -0.000000
vn -0.000000 -0.000000 -1.000000
vn -0.000000 -0.000000 -1.000000
vn 1.000000 0.000000 0.000000
vn 1.000000 0.000000 0.000000
s 1
g nightstand2
usemtl initialShadingGroup
f 65/128/185 66/120/186 76/133/187 73/130/188
s off
f 67/121/189 68/137/190 70/135/191 69/123/192
s 2
f 74/131/193 75/132/194 72/126/195 71/125/196
s off
f 71/134/197 72/126/198 66/120/199 65/127/200
s 3
f 66/120/201 72/126/202 75/132/203 76/133/204
s 4
f 71/125/205 65/119/206 73/129/207 74/131/208
f 74/131/208 73/129/207 67/121/209 69/123/210
s 2
f 69/123/211 70/124/212 75/132/194 74/131/193
s 3
f 76/133/204 75/132/203 70/124/213 68/122/214
s 1
f 73/130/188 76/133/187 68/122/215 67/136/216
g default
v -2.957026 0.063817 -3.964088
v -2.898503 0.063817 -3.964088
v -2.957026 1.955947 -3.964088
v -2.898503 1.955947 -3.964088
v -2.957026 1.955947 -5.592975
v -2.898503 1.955947 -5.592975
v -2.957026 0.063817 -5.592975
v -2.898503 0.063817 -5.592975
v -2.957026 0.241327 -3.964088
v -2.957026 0.241327 -5.592975
v -2.898503 0.241327 -5.592975
v -2.898503 0.241327 -3.964088
vt 0.982692 0.018902
vt 1.000000 0.018959
vt 0.000000 0.592556
vt 0.000057 0.575248
vt 0.499103 0.576899
vt 0.481795 0.576842
vt 0.500954 0.017308
vt 0.483646 0.017251
vt 0.982749 0.001594
vt 0.001909 0.015657
vt 0.982692 0.018902
vt 0.998148 0.578550
vt 0.980841 0.578493
vt 0.982518 0.071400
vt 0.500781 0.069806
vt 0.483473 0.069749
vt 0.999826 0.071457
vt 0.001735 0.068155
vt 0.481738 0.594150
vt 0.501012 0.000000
vn 0.000000 0.000000 1.000000
vn 0.000000 0.000000 1.000000
vn 0.000000 0.000000 1.000000
vn 0.000000 0.000000 1.000000
vn 0.000000 1.000000 0.000000
vn 0.000000 1.000000 0.000000
vn 0.000000 1.000000 0.000000
vn 0.000000 1.000000 0.000000
vn 0.000000 0.000000 -1.000000
vn 0.000000 0.000000 -1.000000
vn 0.000000 0.000000 -1.000000
vn 0.000000 0.000000 -1.000000
vn 0.000000 -1.000000 0.000000
vn 0.000000 -1.000000 0.000000
vn 0.000000 -1.000000 0.000000
vn 0.000000 -1.000000 0.000000
vn 1.000000 0.000000 0.000000
vn 1.000000 0.000000 0.000000
vn 1.000000 0.000000 0.000000
vn 1.000000 0.000000 0.000000
vn -1.000000 0.000000 0.000000
vn -1.000000 0.000000 0.000000
vn -1.000000 0.000000 0.000000
vn -1.000000 0.000000 0.000000
vn -1.000000 0.000000 0.000000
vn -1.000000 0.000000 0.000000
vn 0.000000 0.000000 -1.000000
vn 0.000000 0.000000 -1.000000
vn 1.000000 0.000000 0.000000
vn 1.000000 0.000000 0.000000
vn 0.000000 0.000000 1.000000
vn 0.000000 0.000000 1.000000
s 1
g nightstand
usemtl initialShadingGroup
f 77/148/217 78/139/218 88/154/219 85/151/220
s off
f 79/140/221 80/141/222 82/143/223 81/156/224
s 2
f 86/152/225 87/153/226 84/145/227 83/144/228
s off
f 83/144/229 84/157/230 78/146/231 77/138/232
s 3
f 78/147/233 84/145/234 87/153/235 88/155/236
s 4
f 83/144/237 77/138/238 85/151/239 86/152/240
f 86/152/240 85/151/239 79/150/241 81/142/242
s 2
f 81/142/243 82/143/244 87/153/226 86/152/225
s 3
f 88/155/236 87/153/235 82/143/245 80/141/246
s 1
f 85/151/220 88/154/219 80/149/247 79/150/248
