# This file uses centimeters as units for non-parametric coordinates.

mtllib pc.mtl
g default
v -9.982593 1.365362 2.224881
v -9.961223 1.368238 2.154266
v -9.414675 1.362211 2.148456
v -9.390739 1.358476 2.211170
v -9.975157 0.998903 2.158036
v -9.987410 0.972668 2.184996
v -9.402641 0.998025 2.150036
v -9.380305 0.970889 2.166450
v -9.674192 1.409490 2.153783
v -9.673703 1.365588 2.090409
v -9.676112 1.002952 2.090409
v -9.674490 0.970837 2.146640
v -9.514746 0.970837 2.152009
v -9.535135 1.004023 2.078720
v -9.544099 1.365618 2.090409
v -9.517794 1.409352 2.156782
v -9.835881 1.409633 2.154630
v -9.807693 1.365557 2.090409
v -9.816620 1.001845 2.090409
v -9.839648 0.970837 2.153256
v -9.402656 1.184320 2.124462
v -9.542142 1.183753 2.078277
v -9.674911 1.183201 2.078277
v -9.807355 1.182629 2.075215
v -9.967493 1.181860 2.153833
v -9.378105 1.183121 2.180904
v -10.001112 1.178943 2.219628
v -9.961823 0.910127 2.439648
v -9.409754 0.910127 2.439648
v -9.961823 1.328998 2.439648
v -9.409754 1.328998 2.439648
v -10.059469 1.495101 2.233742
v -9.993226 1.436128 2.153988
v -9.368973 1.436291 2.153988
v -9.306154 1.494350 2.234673
v -10.011530 0.949973 2.153988
v -10.068031 0.910127 2.215688
v -9.356905 0.955779 2.153988
v -9.298589 0.910127 2.219705
v -9.905250 0.912189 2.537676
v -9.681229 0.912189 2.537676
v -9.905250 1.103433 2.537676
v -9.681229 1.103433 2.537676
v -9.905250 1.103433 2.435304
v -9.681229 1.103433 2.435304
v -9.905250 0.912189 2.435304
v -9.681229 0.912189 2.435304
v -10.082281 0.798453 2.535254
v -9.287864 0.798453 2.535254
v -10.082281 0.922579 2.535254
v -9.287864 0.922579 2.535254
v -10.082281 0.829800 1.804459
v -9.287864 0.829800 1.804459
v -10.082281 0.798453 1.804459
v -9.287864 0.798453 1.804459
v -10.082281 0.922579 2.129493
v -10.082281 0.798453 2.129493
v -9.287864 0.798453 2.129493
v -9.287864 0.922579 2.129493
v -9.227151 0.798120 2.397773
v -8.904294 0.798120 2.397773
v -9.227151 1.390851 2.397773
v -8.904294 1.390851 2.397773
v -9.227151 1.390851 1.883485
v -8.904294 1.390851 1.883485
v -9.227151 0.798120 1.883485
v -8.904294 0.798120 1.883485
v -10.458933 0.848861 2.252952
v -10.420626 0.848861 2.291260
v -10.420626 0.887168 2.252952
v -10.343995 0.887168 2.252952
v -10.343995 0.848861 2.291260
v -10.305687 0.848861 2.252952
v -10.458933 0.848861 2.028307
v -10.420626 0.887168 2.028307
v -10.420626 0.848861 1.990000
v -10.343995 0.848861 1.990000
v -10.343995 0.887168 2.028307
v -10.305687 0.848861 2.028307
v -10.420626 0.799382 2.291260
v -10.458933 0.799382 2.252952
v -10.305687 0.799382 2.252952
v -10.343995 0.799382 2.291260
v -10.458933 0.799382 2.028307
v -10.420626 0.799382 1.990000
v -10.343995 0.799382 1.990000
v -10.305687 0.799382 2.028307
vt 0.705788 0.282286
vt 0.498101 0.429437
vt 0.699791 0.293414
vt 0.502919 0.282345
vt 0.710335 0.434959
vt 0.695397 0.416704
vt 0.513774 0.414697
vt 0.510747 0.291172
vt 0.600452 0.438966
vt 0.600387 0.413607
vt 0.601188 0.297202
vt 0.601077 0.275737
vt 0.546506 0.276665
vt 0.556638 0.299556
vt 0.559191 0.412320
vt 0.546729 0.435174
vt 0.655403 0.434787
vt 0.643135 0.412122
vt 0.646041 0.298369
vt 0.656762 0.278079
vt 0.510012 0.354823
vt 0.557641 0.355240
vt 0.600399 0.355139
vt 0.642852 0.354772
vt 0.701178 0.354704
vt 0.490652 0.350871
vt 0.502656 0.282132
vt 0.492149 0.416687
vt 0.490486 0.358234
vt 0.725083 0.356188
vt 0.719042 0.417348
vt 0.708901 0.284517
vt 0.724762 0.351437
vt 0.260588 0.952859
vt 0.079918 0.951398
vt 0.080433 0.815870
vt 0.262407 0.817280
vt 0.297622 0.731829
vt 0.269337 0.703029
vt 0.276593 0.545715
vt 0.301904 0.524024
vt 0.044715 0.730467
vt 0.072405 0.700980
vt 0.041318 0.523858
vt 0.067845 0.546706
vt 0.000000 0.950717
vt 0.006543 0.761720
vt 0.340967 0.953543
vt 0.336645 0.764161
vt 0.133680 0.094506
vt 0.061688 0.094681
vt 0.061538 0.033223
vt 0.133530 0.033048
vt 0.061458 0.000325
vt 0.133450 0.000150
vt 0.000080 0.033372
vt 0.000000 0.000474
vt 0.194908 0.000000
vt 0.194988 0.032898
vt 0.489470 0.524521
vt 0.234176 0.523832
vt 0.234284 0.483943
vt 0.489578 0.484631
vt 0.234636 0.353547
vt 0.489930 0.354236
vt 0.490223 0.245611
vt 0.234929 0.244922
vt 0.234956 0.234848
vt 0.490250 0.235537
vt 0.490532 0.131084
vt 0.235238 0.130395
vt 0.235590 0.000000
vt 0.490884 0.000689
vt 0.000108 0.234215
vt 0.130503 0.234567
vt 0.130395 0.274456
vt 0.000000 0.274104
vt 0.594595 0.275708
vt 0.594703 0.235819
vt 0.725098 0.236171
vt 0.724991 0.276060
vt 0.834452 0.546370
vt 0.730698 0.546318
vt 0.730794 0.355837
vt 0.834548 0.355889
vt 0.730878 0.190565
vt 0.834632 0.190617
vt 0.730974 0.000084
vt 0.834728 0.000136
vt 0.565702 0.000000
vt 0.565606 0.190481
vt 1.000000 0.000220
vt 0.999904 0.190701
vt 0.214227 0.136385
vt 0.196662 0.137065
vt 0.195461 0.066161
vt 0.212345 0.063469
vt 0.195594 0.153741
vt 0.211603 0.148984
vt 0.215097 0.164930
vt 0.197763 0.169609
vt 0.172663 0.154799
vt 0.170929 0.137386
vt 0.152949 0.136637
vt 0.155620 0.062922
vt 0.172092 0.065962
vt 0.156692 0.150261
vt 0.171612 0.170030
vt 0.153577 0.166686
vt 0.211736 0.046009
vt 0.227682 0.045464
vt 0.228277 0.062936
vt 0.197171 0.049810
vt 0.171027 0.048895
vt 0.156371 0.045477
vt 0.139687 0.062285
vt 0.140428 0.044808
vt 0.171888 0.032962
vt 0.197378 0.033837
vt 0.136983 0.135895
vt 0.230207 0.135813
vn -0.289668 0.880404 -0.375476
vn -0.289668 0.880404 -0.375476
vn -0.173411 0.869900 -0.461740
vn -0.083935 0.850037 -0.519992
vn -0.184911 -0.794184 -0.578860
vn -0.184911 -0.794184 -0.578860
vn -0.053039 -0.864399 -0.500001
vn -0.106560 -0.838982 -0.533623
vn -0.412907 0.045126 -0.909655
vn -0.237732 0.059043 -0.969535
vn -0.229287 0.003774 -0.973351
vn -0.415108 0.007010 -0.909745
vn 0.099182 0.844792 -0.525823
vn 0.196306 0.853134 -0.483349
vn 0.354194 0.845400 -0.399806
vn 0.354194 0.845400 -0.399807
vn 0.379638 0.021715 -0.924880
vn 0.188999 0.019438 -0.981785
vn 0.190100 0.089051 -0.977718
vn 0.360315 0.107053 -0.926668
vn 0.080770 -0.845580 -0.527703
vn 0.035952 -0.871957 -0.488261
vn 0.177403 -0.775455 -0.605968
vn 0.177403 -0.775455 -0.605968
vn -0.006596 -0.888459 -0.458909
vn -0.006598 -0.888434 -0.458956
vn -0.005061 0.006863 -0.999964
vn 0.005601 0.070536 -0.997494
vn 0.002408 0.825603 -0.564246
vn 0.002391 0.825592 -0.564263
vn 0.198881 -0.048683 -0.978814
vn 0.394965 -0.057596 -0.916889
vn -0.015084 -0.055947 -0.998320
vn -0.245719 -0.049528 -0.968075
vn -0.416634 -0.029065 -0.908610
vn 0.837215 -0.019838 -0.546515
vn 0.892581 0.062930 -0.446475
vn 0.893555 0.064659 -0.444274
vn 0.837215 -0.019838 -0.546515
vn 0.921174 0.121099 -0.369828
vn 0.921174 0.121099 -0.369828
vn -0.926367 0.067249 -0.370570
vn -0.915924 0.048151 -0.398453
vn -0.915722 0.047801 -0.398959
vn -0.926367 0.067249 -0.370570
vn -0.898716 0.020307 -0.438060
vn -0.898716 0.020307 -0.438060
vn 0.000000 0.000000 1.000000
vn 0.000000 0.000000 1.000000
vn 0.000000 0.000000 1.000000
vn 0.000000 0.000000 1.000000
vn -0.752944 0.029965 -0.657402
vn -0.752944 0.029965 -0.657402
vn -0.752944 0.029965 -0.657402
vn -0.752944 0.029965 -0.657402
vn 0.000743 0.807908 -0.589309
vn 0.000743 0.807908 -0.589309
vn 0.000743 0.807908 -0.589309
vn 0.000743 0.807908 -0.589309
vn 0.769290 0.023162 -0.638480
vn 0.769290 0.023162 -0.638480
vn 0.769290 0.023162 -0.638480
vn 0.769290 0.023162 -0.638480
vn 0.004957 -0.830342 -0.557232
vn 0.004957 -0.830342 -0.557232
vn 0.004957 -0.830342 -0.557232
vn 0.004957 -0.830342 -0.557232
vn -0.000000 0.778322 0.627865
vn -0.000000 0.778322 0.627865
vn -0.000000 0.778322 0.627865
vn -0.000000 0.778323 0.627865
vn 0.000000 0.000000 -1.000000
vn 0.000000 0.000000 -1.000000
vn 0.000000 0.000000 -1.000000
vn 0.000000 0.000000 -1.000000
vn 0.892481 0.000002 0.451085
vn 0.892481 0.000002 0.451085
vn 0.892481 0.000002 0.451085
vn 0.892481 0.000002 0.451085
vn -0.903548 -0.000003 0.428487
vn -0.903548 -0.000003 0.428487
vn -0.903548 -0.000003 0.428487
vn -0.903548 -0.000003 0.428487
vn 0.000000 0.000000 1.000000
vn 0.000000 0.000000 1.000000
vn 0.000000 0.000000 1.000000
vn 0.000000 0.000000 1.000000
vn 0.000000 1.000000 0.000000
vn 0.000000 1.000000 0.000000
vn 0.000000 1.000000 0.000000
vn 0.000000 1.000000 0.000000
vn 1.000000 0.000000 0.000000
vn 1.000000 0.000000 0.000000
vn 1.000000 0.000000 0.000000
vn 1.000000 0.000000 0.000000
vn -1.000000 0.000000 0.000000
vn -1.000000 0.000000 0.000000
vn -1.000000 0.000000 0.000000
vn -1.000000 0.000000 0.000000
vn 0.000000 0.000000 1.000000
vn 0.000000 0.000000 1.000000
vn 0.000000 0.000000 1.000000
vn 0.000000 0.000000 1.000000
vn 0.000000 1.000000 0.000000
vn 0.000000 1.000000 0.000000
vn 0.000000 0.992037 -0.125945
vn 0.000000 0.992037 -0.125945
vn 0.000000 0.000000 -1.000000
vn 0.000000 0.000000 -1.000000
vn 0.000000 0.000000 -1.000000
vn 0.000000 0.000000 -1.000000
vn 0.000000 -1.000000 0.000000
vn 0.000000 -1.000000 0.000000
vn 0.000000 -1.000000 0.000000
vn 0.000000 -1.000000 0.000000
vn 1.000000 0.000000 0.000000
vn 1.000000 0.000000 0.000000
vn 1.000000 0.000000 0.000000
vn 1.000000 0.000000 0.000000
vn -1.000000 0.000000 0.000000
vn -1.000000 0.000000 0.000000
vn -1.000000 0.000000 0.000000
vn -1.000000 0.000000 0.000000
vn -1.000000 0.000000 0.000000
vn -1.000000 0.000000 0.000000
vn 0.000000 -1.000000 0.000000
vn 0.000000 -1.000000 0.000000
vn 1.000000 0.000000 0.000000
vn 1.000000 0.000000 0.000000
vn 0.000000 0.961593 -0.274480
vn 0.000000 0.961593 -0.274480
vn 0.000000 0.000000 1.000000
vn 0.000000 0.000000 1.000000
vn 0.000000 0.000000 1.000000
vn 0.000000 0.000000 1.000000
vn 0.000000 1.000000 0.000000
vn 0.000000 1.000000 0.000000
vn 0.000000 1.000000 0.000000
vn 0.000000 1.000000 0.000000
vn 0.000000 0.000000 -1.000000
vn 0.000000 0.000000 -1.000000
vn 0.000000 0.000000 -1.000000
vn 0.000000 0.000000 -1.000000
vn 1.000000 0.000000 0.000000
vn 1.000000 0.000000 0.000000
vn 1.000000 0.000000 0.000000
vn 1.000000 0.000000 0.000000
vn -1.000000 0.000000 0.000000
vn -1.000000 0.000000 0.000000
vn -1.000000 0.000000 0.000000
vn -1.000000 0.000000 0.000000
vn -0.707112 0.707101 0.000000
vn -0.707112 0.707101 0.000000
vn -0.707112 0.707101 0.000000
vn -0.707112 0.707101 0.000000
vn -0.707111 0.000000 0.707103
vn -0.707111 0.000000 0.707103
vn -0.707111 0.000000 0.707103
vn -0.707111 0.000000 0.707103
vn 0.000000 0.707107 0.707106
vn 0.000000 0.707107 0.707106
vn 0.000000 0.707107 0.707106
vn 0.000000 0.707107 0.707106
vn 0.707105 0.707109 0.000000
vn 0.707105 0.707109 0.000000
vn 0.707105 0.707109 0.000000
vn 0.707105 0.707109 0.000000
vn 0.707111 0.000000 0.707103
vn 0.707111 0.000000 0.707103
vn 0.707111 0.000000 0.707103
vn 0.707111 0.000000 0.707103
vn -0.707106 0.000000 -0.707107
vn -0.707106 0.000000 -0.707107
vn -0.707106 0.000000 -0.707107
vn -0.707106 0.000000 -0.707107
vn 0.000000 0.707105 -0.707109
vn 0.000000 0.707105 -0.707109
vn 0.000000 0.707105 -0.707109
vn 0.000000 0.707105 -0.707109
vn 0.707106 0.000000 -0.707107
vn 0.707106 0.000000 -0.707107
vn 0.707106 0.000000 -0.707107
vn 0.707106 0.000000 -0.707107
vn 0.000000 0.000000 1.000000
vn 0.000000 0.000000 1.000000
vn 0.000000 0.000000 1.000000
vn 0.000000 0.000000 1.000000
vn 0.000000 1.000000 0.000000
vn 0.000000 1.000000 0.000000
vn 0.000000 1.000000 0.000000
vn 0.000000 1.000000 0.000000
vn 0.000000 0.000000 -1.000000
vn 0.000000 0.000000 -1.000000
vn 0.000000 0.000000 -1.000000
vn 0.000000 0.000000 -1.000000
vn 1.000000 0.000000 0.000000
vn 1.000000 0.000000 0.000000
vn 1.000000 0.000000 0.000000
vn 1.000000 0.000000 0.000000
vn -1.000000 0.000000 0.000000
vn -1.000000 0.000000 0.000000
vn -1.000000 0.000000 0.000000
vn -1.000000 0.000000 0.000000
vn -0.577352 0.577357 0.577342
vn -0.577352 0.577357 0.577342
vn -0.577352 0.577357 0.577342
vn 0.577352 0.577357 0.577342
vn 0.577352 0.577357 0.577342
vn 0.577352 0.577357 0.577342
vn -0.577352 0.577347 -0.577352
vn -0.577352 0.577347 -0.577352
vn -0.577352 0.577347 -0.577352
vn 0.577352 0.577347 -0.577352
vn 0.577352 0.577347 -0.577352
vn 0.577352 0.577347 -0.577352
s 1
g pc
usemtl initialShadingGroup
f 2/6/1 1/5/2 17/17/3 18/18/4
s 2
f 6/1/5 5/3/6 19/19/7 20/20/8
s 3
f 2/6/9 18/18/10 24/24/11 25/25/12
s 1
f 15/15/13 16/16/14 4/2/15 3/7/16
s 3
f 21/21/17 22/22/18 15/15/19 3/7/20
s 2
f 13/13/21 14/14/22 7/8/23 8/4/24
f 12/12/25 11/11/26 14/14/22 13/13/21
s 3
f 22/22/18 23/23/27 10/10/28 15/15/19
s 1
f 10/10/29 9/9/30 16/16/14 15/15/13
f 18/18/4 17/17/3 9/9/30 10/10/29
s 3
f 23/23/27 24/24/11 18/18/10 10/10/28
s 2
f 20/20/8 19/19/7 11/11/26 12/12/25
s 3
f 14/14/31 22/22/18 21/21/17 7/8/32
f 11/11/33 23/23/27 22/22/18 14/14/31
f 19/19/34 24/24/11 23/23/27 11/11/33
f 25/25/12 24/24/11 19/19/34 5/3/35
s 7
f 7/8/36 21/21/37 26/26/38 8/27/39
f 21/21/37 3/7/40 4/28/41 26/29/38
s 8
f 2/6/42 25/25/43 27/30/44 1/31/45
f 25/25/43 5/3/46 6/32/47 27/33/44
s off
f 28/34/48 29/35/49 31/36/50 30/37/51
f 32/38/52 33/39/53 36/40/54 37/41/55
f 33/39/56 32/38/57 35/42/58 34/43/59
f 34/43/60 35/42/61 39/44/62 38/45/63
f 37/41/64 36/40/65 38/45/66 39/44/67
f 30/37/68 31/36/69 35/42/70 32/38/71
f 33/39/72 34/43/73 38/45/74 36/40/75
f 29/35/76 39/46/77 35/47/78 31/36/79
f 37/48/80 28/34/81 30/37/82 32/49/83
f 40/50/84 41/51/85 43/52/86 42/53/87
f 42/53/88 43/52/89 45/54/90 44/55/91
f 41/56/92 47/57/93 45/54/94 43/52/95
f 46/58/96 40/59/97 42/53/98 44/55/99
f 48/60/100 49/61/101 51/62/102 50/63/103
s 9
f 50/63/104 51/62/105 59/64/106 56/65/107
s off
f 52/66/108 53/67/109 55/68/110 54/69/111
s 10
f 57/70/112 58/71/113 49/72/114 48/73/115
s 11
f 49/74/116 58/75/117 59/76/118 51/77/119
s 12
f 56/78/120 57/79/121 48/80/122 50/81/123
f 54/69/124 57/79/121 56/78/120 52/66/125
s 10
f 54/69/126 55/68/127 58/71/113 57/70/112
s 11
f 59/76/118 58/75/117 55/68/128 53/67/129
s 9
f 56/65/107 59/64/106 53/67/130 52/66/131
s off
f 60/82/132 61/83/133 63/84/134 62/85/135
f 62/85/136 63/84/137 65/86/138 64/87/139
f 64/87/140 65/86/141 67/88/142 66/89/143
f 61/90/144 67/88/145 65/86/146 63/91/147
f 66/89/148 60/92/149 62/93/150 64/87/151
f 68/94/152 70/95/153 75/96/154 74/97/155
f 69/98/156 68/99/157 81/100/158 80/101/159
f 70/95/160 69/98/161 72/102/162 71/103/163
f 71/103/164 73/104/165 79/105/166 78/106/167
f 73/107/168 72/102/169 83/108/170 82/109/171
f 74/97/172 76/110/173 85/111/174 84/112/175
f 76/113/176 75/96/177 78/106/178 77/114/179
f 77/115/180 79/105/181 87/116/182 86/117/183
f 69/98/184 80/101/185 83/108/186 72/102/187
f 70/95/188 71/103/189 78/106/190 75/96/191
f 76/113/192 77/114/193 86/118/194 85/119/195
f 73/104/196 82/120/197 87/116/198 79/105/199
f 74/97/200 84/112/201 81/121/202 68/94/203
f 68/99/204 69/98/205 70/95/206
f 71/103/207 72/102/208 73/107/209
f 74/97/210 75/96/211 76/113/212
f 77/114/213 78/106/214 79/105/215
