# This file uses centimeters as units for non-parametric coordinates.

mtllib phone.mtl
g default
v -0.100344 -0.019632 -3.367753
v 0.100344 -0.019632 -3.367753
v -0.100344 0.019632 -3.367753
v 0.100344 0.019632 -3.367753
v -0.100344 0.019632 -3.683693
v 0.100344 0.019632 -3.683693
v -0.100344 -0.019632 -3.683693
v 0.100344 -0.019632 -3.683693
v -0.100344 0.019632 -3.398783
v -0.100344 -0.019632 -3.398783
v 0.100344 -0.019632 -3.398783
v 0.100344 0.019632 -3.398783
v -0.100344 -0.019632 -3.661683
v -0.100344 0.019632 -3.661683
v 0.100344 0.019632 -3.661683
v 0.100344 -0.019632 -3.661683
v 0.083442 -0.019632 -3.367753
v 0.083442 0.019632 -3.367753
v 0.083442 0.019632 -3.398783
v 0.083442 0.019632 -3.661683
v 0.083442 0.019632 -3.683693
v 0.083442 -0.019632 -3.683693
v 0.083442 -0.019632 -3.661683
v 0.083442 -0.019632 -3.398783
v -0.078156 -0.019632 -3.367753
v -0.078156 0.019632 -3.367753
v -0.078156 0.019632 -3.398783
v -0.078156 0.019632 -3.661683
v -0.078156 0.019632 -3.683693
v -0.078156 -0.019632 -3.683693
v -0.078156 -0.019632 -3.661683
v -0.078156 -0.019632 -3.398783
vt 0.379802 0.004221
vt 0.620723 0.006902
vt 0.379277 0.051358
vt 0.620198 0.054039
vt 0.375056 0.430635
vt 0.615977 0.433316
vt 0.374531 0.477771
vt 0.615453 0.480452
vt 0.370310 0.857048
vt 0.611232 0.859729
vt 1.000000 0.011123
vt 0.999475 0.058260
vt 0.000525 0.000000
vt 0.000000 0.047136
vt 0.342027 0.050943
vt 0.378862 0.088608
vt 0.342551 0.003807
vt 0.370725 0.819798
vt 0.611646 0.822479
vt 0.657973 0.007317
vt 0.619784 0.091289
vt 0.657449 0.054453
vt 0.026947 0.000294
vt 0.374237 0.504194
vt 0.026423 0.047431
vt 0.375350 0.404212
vt 0.616271 0.406893
vt 0.973053 0.057966
vt 0.615159 0.506875
vt 0.973577 0.010829
vt 0.600432 0.006677
vt 0.590941 0.859503
vt 0.599907 0.053813
vt 0.599493 0.091063
vt 0.595980 0.406667
vt 0.595686 0.433090
vt 0.595162 0.480226
vt 0.594868 0.506649
vt 0.591355 0.822253
vt 0.406438 0.004518
vt 0.396946 0.857344
vt 0.405913 0.051654
vt 0.405499 0.088904
vt 0.401986 0.404508
vt 0.401692 0.430931
vt 0.401167 0.478067
vt 0.400873 0.504490
vt 0.397361 0.820094
vn 0.000000 0.000000 1.000000
vn 0.000000 0.000000 1.000000
vn 0.000000 0.000000 1.000000
vn 0.000000 0.000000 1.000000
vn 0.000000 1.000000 0.000000
vn 0.000000 1.000000 -0.000000
vn 0.000000 1.000000 0.000000
vn 0.000000 1.000000 0.000000
vn 0.000000 0.000000 -1.000000
vn 0.000000 0.000000 -1.000000
vn 0.000000 0.000000 -1.000000
vn 0.000000 0.000000 -1.000000
vn 0.000000 -1.000000 0.000000
vn 0.000000 -1.000000 -0.000000
vn 0.000000 -1.000000 0.000000
vn 0.000000 -1.000000 0.000000
vn 1.000000 0.000000 0.000000
vn 1.000000 0.000000 0.000000
vn 1.000000 0.000000 0.000000
vn 1.000000 0.000000 0.000000
vn -1.000000 0.000000 0.000000
vn -1.000000 0.000000 0.000000
vn -1.000000 0.000000 0.000000
vn -1.000000 0.000000 0.000000
vn -1.000000 0.000000 0.000000
vn -1.000000 0.000000 0.000000
vn -1.000000 0.000000 0.000000
vn -1.000000 0.000000 0.000000
vn 0.000000 -1.000000 0.000000
vn 0.000000 -1.000000 0.000000
vn 0.000000 -1.000000 -0.000000
vn 0.000000 -1.000000 0.000000
vn 1.000000 0.000000 0.000000
vn 1.000000 0.000000 0.000000
vn 1.000000 0.000000 0.000000
vn 1.000000 0.000000 0.000000
vn 0.000000 1.000000 0.000000
vn 0.000000 1.000000 0.000000
vn 0.000000 1.000000 0.000000
vn 0.000000 1.000000 0.000000
vn 0.000000 0.000000 1.000000
vn 0.000000 0.000000 1.000000
vn 0.000000 0.000000 1.000000
vn 0.000000 0.000000 1.000000
vn 0.000000 1.000000 0.000000
vn 0.000000 1.000000 -0.000000
vn 0.000000 1.000000 0.000000
vn 0.000000 1.000000 0.000000
vn 0.000000 1.000000 0.000000
vn 0.000000 1.000000 0.000000
vn 0.000000 1.000000 0.000000
vn 0.000000 1.000000 0.000000
vn 0.000000 0.000000 -1.000000
vn 0.000000 0.000000 -1.000000
vn 0.000000 0.000000 -1.000000
vn 0.000000 0.000000 -1.000000
vn 0.000000 -1.000000 -0.000000
vn 0.000000 -1.000000 0.000000
vn 0.000000 -1.000000 0.000000
vn 0.000000 -1.000000 0.000000
vn 0.000000 -1.000000 -0.000000
vn 0.000000 -1.000000 0.000000
vn 0.000000 -1.000000 0.000000
vn 0.000000 -1.000000 0.000000
s 1
g pCube3
usemtl initialShadingGroup
f 1/1/1 25/40/2 26/42/3 3/3/4
s 2
f 3/3/5 26/42/6 27/43/7 9/16/8
s 3
f 5/5/9 29/45/10 30/46/11 7/7/12
s 4
f 10/18/13 32/48/14 25/41/15 1/9/16
s 5
f 2/2/17 11/20/18 12/22/19 4/4/20
s 6
f 9/15/21 10/17/22 1/1/23 3/3/24
f 7/13/25 13/23/26 14/25/27 5/14/28
s 4
f 7/7/29 30/46/30 31/47/31 13/24/32
s 5
f 15/28/33 16/30/34 8/11/35 6/12/36
s 2
f 14/26/37 28/44/38 29/45/39 5/5/40
s 6
f 14/25/27 13/23/26 10/17/22 9/15/21
s 2
f 9/16/8 27/43/7 28/44/38 14/26/37
s 5
f 12/22/19 11/20/18 16/30/34 15/28/33
s 4
f 13/24/32 31/47/31 32/48/14 10/18/13
s 1
f 18/33/41 17/31/42 2/2/43 4/4/44
s 2
f 19/34/45 18/33/46 4/4/47 12/21/48
f 20/35/49 19/34/45 12/21/48 15/27/50
f 21/36/51 20/35/49 15/27/50 6/6/52
s 3
f 22/37/53 21/36/54 6/6/55 8/8/56
s 4
f 23/38/57 22/37/58 8/8/59 16/29/60
f 24/39/61 23/38/57 16/29/60 11/19/62
f 17/32/63 24/39/61 11/19/62 2/10/64
s 1
f 26/42/3 25/40/2 17/31/42 18/33/41
s 2
f 27/43/7 26/42/6 18/33/46 19/34/45
f 28/44/38 27/43/7 19/34/45 20/35/49
f 29/45/39 28/44/38 20/35/49 21/36/51
s 3
f 30/46/11 29/45/10 21/36/54 22/37/53
s 4
f 31/47/31 30/46/30 22/37/58 23/38/57
f 32/48/14 31/47/31 23/38/57 24/39/61
f 25/41/15 32/48/14 24/39/61 17/32/63
