# This file uses centimeters as units for non-parametric coordinates.

mtllib pillow.mtl
g default
v -1.842704 0.003005 -1.745618
v -1.375388 0.003005 -1.745618
v -1.842704 0.003005 -2.758806
v -1.375388 0.003005 -2.758806
v -1.842704 0.156799 -1.745618
v -1.725887 0.246002 -1.862436
v -1.492205 0.246002 -1.862436
v -1.375388 0.156799 -1.745618
v -1.725887 0.246002 -2.641989
v -1.842704 0.156799 -2.758806
v -1.492205 0.246002 -2.641989
v -1.375388 0.156799 -2.758806
vt 0.625000 0.750000
vt 0.375000 1.000000
vt 0.625000 1.000000
vt 0.375000 0.591774
vt 0.437494 0.471176
vt 0.625000 0.000000
vt 0.375000 0.158226
vt 0.437494 0.278824
vt 0.562506 0.278824
vt 0.562506 0.471176
vt 0.625000 0.591774
vt 0.375000 0.750000
vt 0.875000 0.000000
vt 0.875000 0.158226
vt 0.625000 0.158226
vt 0.125000 0.000000
vt 0.375000 0.000000
vt 0.125000 0.158226
vn 0.000000 -1.000000 0.000000
vn 0.000000 -1.000000 0.000000
vn 0.000000 -1.000000 0.000000
vn 0.000000 -1.000000 0.000000
vn -0.606901 0.794777 0.000000
vn -0.606901 0.794777 0.000000
vn -0.606901 0.794777 0.000000
vn -0.606901 0.794777 0.000000
vn 0.000000 0.794777 0.606901
vn 0.000000 0.794777 0.606901
vn 0.000000 0.794777 0.606901
vn 0.000000 0.794777 0.606901
vn 0.606901 0.794777 0.000000
vn 0.606901 0.794777 0.000000
vn 0.606901 0.794777 0.000000
vn 0.606901 0.794777 0.000000
vn 0.000000 0.794778 -0.606900
vn 0.000000 0.794778 -0.606900
vn 0.000000 0.794778 -0.606900
vn 0.000000 0.794778 -0.606900
vn 0.000000 0.000000 1.000000
vn 0.000000 0.000000 1.000000
vn 0.000000 0.000000 1.000000
vn 0.000000 0.000000 1.000000
vn 0.000000 1.000000 0.000000
vn 0.000000 1.000000 0.000000
vn 0.000000 1.000000 0.000000
vn 0.000000 1.000000 0.000000
vn 0.000000 0.000000 -1.000000
vn 0.000000 0.000000 -1.000000
vn 0.000000 0.000000 -1.000000
vn 0.000000 0.000000 -1.000000
vn 1.000000 0.000000 0.000000
vn 1.000000 0.000000 0.000000
vn 1.000000 0.000000 0.000000
vn 1.000000 0.000000 0.000000
vn -1.000000 0.000000 0.000000
vn -1.000000 0.000000 0.000000
vn -1.000000 0.000000 0.000000
vn -1.000000 0.000000 0.000000
s off
g pCube4
usemtl initialShadingGroup
f 3/12/1 4/1/2 2/3/3 1/2/4
f 5/7/5 6/8/6 9/5/7 10/4/8
f 6/8/9 5/7/10 8/15/11 7/9/12
f 7/9/13 8/15/14 12/11/15 11/10/16
f 10/4/17 9/5/18 11/10/19 12/11/20
f 1/17/21 2/6/22 8/15/23 5/7/24
f 6/8/25 7/9/26 11/10/27 9/5/28
f 10/4/29 12/11/30 4/1/31 3/12/32
f 2/6/33 4/13/34 12/14/35 8/15/36
f 3/16/37 1/17/38 5/7/39 10/18/40
