# This file uses centimeters as units for non-parametric coordinates.

mtllib sink.mtl
g default
v -7.443911 0.614771 2.667461
v -7.508551 0.659297 2.758087
v -6.702882 0.660257 2.758840
v -6.765297 0.614771 2.673229
v -7.576634 0.864817 2.876508
v -7.536244 0.899430 2.834481
v -6.695729 0.899430 2.834163
v -6.650335 0.867314 2.878465
v -7.576080 0.863584 2.236056
v -7.549458 0.899430 2.165109
v -6.683307 0.899430 2.165109
v -6.650581 0.866600 2.234136
v -7.510912 0.664533 2.235671
v -7.438734 0.614771 2.165109
v -6.768224 0.614771 2.165109
v -6.699651 0.669642 2.233932
v -7.508696 0.659621 2.725813
v -7.443591 0.614771 2.636426
v -6.765477 0.614771 2.641839
v -6.702682 0.660837 2.726411
v -6.650348 0.867270 2.838659
v -6.694961 0.899430 2.792829
v -7.537059 0.899430 2.793128
v -7.576600 0.864741 2.836941
v -6.803579 0.614771 2.672904
v -6.748331 0.660203 2.758797
v -6.702589 0.867173 2.878355
v -6.743145 0.899430 2.834181
v -6.742466 0.899430 2.792846
v -6.732169 0.899430 2.151938
v -6.806049 0.554401 2.165109
v -6.803731 0.614771 2.641532
v -7.440049 0.614771 2.292654
v -7.510311 0.663204 2.368310
v -7.576221 0.863897 2.398664
v -7.546104 0.899430 2.335060
v -6.791120 0.899430 2.334984
v -6.686461 0.899430 2.334980
v -6.650518 0.866781 2.397728
v -6.700471 0.667259 2.367203
v -6.767481 0.614771 2.294119
v -6.805421 0.614771 2.294036
v -7.408046 0.614771 2.667767
v -7.465970 0.659348 2.758127
v -7.527679 0.864949 2.876612
v -7.491821 0.899430 2.834463
v -7.492553 0.899430 2.793112
v -7.444712 0.899430 2.335056
v -7.503681 0.899430 2.151938
v -7.403296 0.554401 2.165109
v -7.404501 0.614771 2.292731
v -7.407751 0.614771 2.636713
v -7.403703 0.788032 2.713175
v -7.492553 0.817906 2.793112
v -7.444712 0.791259 2.335056
v -7.367795 0.769300 2.420224
v -6.834670 0.787847 2.710103
v -6.742466 0.817908 2.792846
v -6.867899 0.769302 2.420171
v -6.791120 0.791262 2.334984
v -7.174257 -0.024222 2.485491
v -7.027039 -0.024222 2.485491
v -7.249303 0.614594 2.570046
v -6.969158 0.614594 2.570046
v -7.249303 0.614594 2.287688
v -6.969158 0.614594 2.287688
v -7.174257 -0.024222 2.335177
v -7.027039 -0.024222 2.335177
v -7.177626 0.395035 2.403668
v -7.177626 0.395035 2.319054
v -7.036983 0.395035 2.319054
v -7.036983 0.395035 2.403668
v -7.243627 0.889771 2.282279
v -7.205845 0.889771 2.282279
v -7.257295 0.956804 2.294280
v -7.192178 0.956804 2.294280
v -7.257295 0.956804 2.237103
v -7.192178 0.956804 2.237103
v -7.243627 0.889771 2.249104
v -7.205845 0.889771 2.249104
v -7.040716 0.889771 2.280895
v -7.006087 0.889771 2.280895
v -7.055960 0.956804 2.294280
v -6.990843 0.956804 2.294280
v -7.055960 0.956804 2.237103
v -6.990843 0.956804 2.237103
v -7.040716 0.889771 2.250488
v -7.006087 0.889771 2.250488
v -7.150912 0.893713 2.314980
v -7.092591 0.893713 2.314980
v -7.135970 1.038125 2.314980
v -7.107265 1.038125 2.314980
v -7.135970 1.081644 2.276490
v -7.107265 1.081644 2.276490
v -7.150912 0.893713 2.233386
v -7.092591 0.893713 2.233386
v -7.135970 1.078811 2.347799
v -7.107265 1.078811 2.347799
v -7.107265 1.136876 2.345860
v -7.135970 1.136876 2.345860
v -7.135970 1.063803 2.447946
v -7.107265 1.063803 2.447946
v -7.107265 1.105010 2.446007
v -7.135970 1.105010 2.446007
vt 0.369164 0.835970
vt 0.346993 0.888723
vt 0.339964 0.624591
vt 0.699076 0.836363
vt 0.740194 0.861766
vt 0.723707 0.620840
vt 0.096886 0.344426
vt 0.649085 0.340738
vt 0.141305 0.461258
vt 0.175349 0.552128
vt 0.607443 0.454072
vt 0.582956 0.544868
vt 0.113946 0.048175
vt 0.175450 0.028454
vt 0.603359 0.065296
vt 0.574696 0.433783
vt 0.115633 0.378438
vt 0.687991 0.597901
vt 0.224916 0.568302
vt 0.742888 0.334151
vt 0.585685 0.000001
vt 0.000000 0.339197
vt 0.331685 0.853765
vt 0.010116 0.112357
vt 0.371964 0.821441
vt 0.695893 0.817883
vt 0.736309 0.846845
vt 0.731003 0.106273
vt 0.628913 0.061377
vt 0.605018 0.084378
vt 0.175225 0.047616
vt 0.112898 0.066476
vt 0.679904 0.833335
vt 0.700794 0.877198
vt 0.561476 0.000192
vt 0.542884 0.025679
vt 0.551251 0.433599
vt 0.661439 0.591631
vt 0.677631 0.818855
vt 0.375670 0.660353
vt 0.337439 0.694714
vt 0.002765 0.277808
vt 0.101273 0.269210
vt 0.121127 0.299872
vt 0.623249 0.295759
vt 0.643593 0.265140
vt 0.727117 0.689285
vt 0.739654 0.272483
vt 0.687898 0.658085
vt 0.669860 0.658608
vt 0.387564 0.836403
vt 0.366882 0.884805
vt 0.179220 0.003201
vt 0.196031 0.028299
vt 0.193819 0.436511
vt 0.401269 0.595749
vt 0.392529 0.659761
vt 0.389078 0.821829
vt 0.237605 0.124439
vt 0.255348 0.260301
vt 0.486943 0.258440
vt 0.501242 0.123718
vt 0.195844 0.047459
vt 0.220045 0.301339
vt 0.583059 0.085853
vt 0.194386 0.087161
vt 0.523248 0.349019
vt 0.543636 0.082595
vt 0.168043 0.302244
vt 0.524790 0.297094
vt 0.947760 0.301493
vt 0.840525 0.000000
vt 0.839493 0.197959
vt 0.774343 0.199135
vt 0.832376 0.522490
vt 0.987276 0.195789
vt 0.983661 0.001382
vt 0.833943 0.328104
vt 0.743445 0.327343
vt 0.859608 0.603788
vt 0.734152 0.623678
vt 0.868901 0.299926
vt 0.897511 0.194169
vt 0.880009 0.194491
vt 0.873097 0.163063
vt 0.903261 0.162508
vt 0.872610 0.136578
vt 0.902773 0.136022
vt 0.841022 0.142720
vt 0.895861 0.104594
vt 0.878077 0.089549
vt 0.895578 0.089227
vt 0.841305 0.158088
vt 0.934849 0.156365
vt 0.720681 0.440637
vt 0.704642 0.441035
vt 0.696796 0.409551
vt 0.726956 0.408803
vt 0.696140 0.383069
vt 0.726300 0.382321
vt 0.664454 0.390058
vt 0.718454 0.350837
vt 0.702066 0.337151
vt 0.718105 0.336753
vt 0.664803 0.404141
vt 0.758642 0.401814
vt 0.067661 0.382428
vt 0.091352 0.383461
vt 0.085973 0.454806
vt 0.070390 0.454976
vt 0.061905 0.555142
vt 0.083613 0.537448
vt 0.043024 0.540470
vt 0.056163 0.536096
vt 0.046685 0.465335
vt 0.032836 0.466767
vt 0.126066 0.383412
vt 0.033971 0.380635
vt 0.000000 0.346603
vt 0.027483 0.341990
vt 0.086143 0.485646
vt 0.071307 0.485909
vt 0.032154 0.498611
vt 0.045467 0.496151
vt 0.758293 0.387731
vt 0.702415 0.351234
vt 0.934566 0.140998
vt 0.878360 0.104916
vt 0.108361 0.465831
vt 0.112645 0.495576
vt 0.100030 0.535645
vt 0.072242 0.537266
vt 0.006627 0.384956
vt 0.048760 0.559210
vt 0.171760 0.437157
vt 0.629980 0.374188
vt 0.375228 0.600565
vt 0.241630 0.596096
vt 0.535672 0.565761
vt 0.518326 0.593842
vt 0.730224 0.091266
vt 0.010776 0.097419
vt 0.873216 0.325000
vt 0.914035 0.000000
vt 0.948081 0.195011
vt 0.767224 0.521442
vt 0.765746 0.327007
vt 0.999693 0.302521
vt 0.872901 0.496621
vt 0.878124 0.302299
vt 0.863927 0.625766
vt 0.912101 0.496168
vt 0.990417 0.602274
vt 0.772330 0.001232
vt 0.136507 0.385596
vt 0.220448 0.351453
vt 0.218088 0.299572
vt 0.607804 0.381795
vt 0.574868 0.299018
vt 0.522846 0.298906
vt 0.743184 0.988117
vt 0.718893 0.986545
vt 0.325257 1.000000
vt 0.347972 0.997841
vt 0.627588 0.042983
vt 0.564851 0.025515
vt 0.565358 0.044661
vt 0.543350 0.044826
vt 0.545317 0.084403
vt 0.156540 0.003377
vt 0.137448 0.069008
vt 0.136078 0.088122
vt 0.156670 0.089175
vt 0.196130 0.085229
vt 0.722164 0.880616
vt 0.328155 0.868772
vt 0.369403 0.840065
vt 0.699260 0.832423
vt 0.325257 0.681867
vt 0.737732 0.678578
vt 0.387108 0.836458
vt 0.679976 0.833284
vn -0.229850 -0.942372 0.243111
vn -0.572708 -0.819739 -0.005778
vn -0.572292 -0.820030 -0.005766
vn -0.457261 -0.889321 -0.004606
vn -0.000539 -0.578889 0.815407
vn -0.001180 -0.925924 0.377709
vn -0.000563 -0.584657 0.811280
vn 0.596499 -0.802582 -0.007115
vn 0.232347 -0.936306 0.263338
vn 0.482134 -0.876080 -0.005552
vn 0.607212 -0.794509 -0.007039
vn -0.651660 0.758491 0.005582
vn -0.651660 0.758491 0.005582
vn -0.703329 0.710838 0.006130
vn -0.694850 0.719129 0.006040
vn -0.001671 0.773696 0.633555
vn -0.001671 0.773696 0.633555
vn -0.001685 0.789132 0.614221
vn -0.001686 0.790636 0.612285
vn 0.577875 0.816110 0.004924
vn 0.577875 0.816110 0.004924
vn 0.613714 0.789511 0.005261
vn 0.620850 0.783911 0.005329
vn -0.797901 -0.289724 -0.528596
vn -0.797901 -0.289724 -0.528596
vn -0.797901 -0.289724 -0.528596
vn -0.797901 -0.289724 -0.528596
vn 0.802203 -0.222938 -0.553867
vn 0.802203 -0.222938 -0.553867
vn 0.802203 -0.222938 -0.553867
vn 0.802203 -0.222938 -0.553867
vn -0.000358 -0.499736 0.866178
vn -0.000362 -0.499368 0.866390
vn 0.000000 1.000000 0.000001
vn 0.000000 1.000000 0.000000
vn 0.000000 1.000000 -0.000000
vn 0.000000 1.000000 -0.000000
vn -0.229251 -0.097117 -0.968511
vn -0.012927 -0.041528 -0.999054
vn -0.001291 -0.038483 -0.999258
vn -0.229251 -0.097117 -0.968511
vn 0.000000 -1.000000 0.000000
vn 0.969217 -0.246208 0.000664
vn 0.969617 -0.244627 0.000661
vn 0.969575 -0.244795 0.000661
vn 0.969217 -0.246208 0.000664
vn -0.949598 -0.313470 0.000395
vn -0.949640 -0.313344 0.000396
vn -0.949237 -0.314562 0.000385
vn -0.949237 -0.314562 0.000385
vn -0.456502 -0.889551 0.017465
vn -0.572097 -0.820166 -0.005763
vn -0.571574 -0.820530 -0.005760
vn -0.607306 -0.790317 0.081106
vn -0.033288 -0.907876 0.417915
vn -0.012837 -0.992503 0.121543
vn 0.612093 -0.790755 -0.007004
vn 0.479991 -0.877090 0.017930
vn 0.621945 -0.778535 0.084070
vn 0.625198 -0.780436 -0.006906
vn 0.969764 -0.244045 0.000665
vn 0.969801 -0.243896 0.000666
vn 0.970185 -0.242363 0.000679
vn 0.970185 -0.242363 0.000679
vn 0.657263 0.753640 0.005683
vn 0.627732 0.778411 0.005395
vn 0.684081 0.729381 0.005945
vn 0.684081 0.729381 0.005945
vn 0.000000 1.000000 -0.000000
vn 0.000000 1.000000 -0.000000
vn 0.000000 1.000000 -0.000000
vn 0.000000 1.000000 0.000000
vn -0.711191 0.702971 0.006214
vn -0.746847 0.664963 0.006592
vn -0.776413 0.630186 0.006908
vn -0.776413 0.630186 0.006908
vn -0.950211 -0.311608 0.000405
vn -0.949826 -0.312778 0.000399
vn -0.949788 -0.312893 0.000398
vn -0.950211 -0.311608 0.000405
vn -0.000570 -0.586434 0.809997
vn -0.001185 -0.925422 0.378938
vn -0.000544 -0.574267 0.818668
vn -0.000357 -0.499795 0.866144
vn -0.000347 -0.500159 0.865933
vn -0.001686 0.791534 0.611124
vn -0.001686 0.793313 0.608811
vn -0.001683 0.807841 0.589399
vn -0.001683 0.807841 0.589399
vn 0.000000 1.000000 -0.000000
vn 0.000000 1.000000 0.000000
vn 0.000000 1.000000 0.000000
vn 0.000000 1.000000 -0.000000
vn 0.000000 1.000000 -0.000000
vn 0.000000 1.000000 -0.000000
vn 0.000000 1.000000 -0.000000
vn 0.000000 1.000000 0.000000
vn 0.001875 -0.038457 -0.999259
vn 0.011746 -0.040098 -0.999127
vn 0.197486 -0.070255 -0.977785
vn 0.197486 -0.070255 -0.977785
vn 0.012654 -0.992531 0.121333
vn 0.033042 -0.908172 0.417291
vn 0.000000 -1.000000 0.000000
vn -0.000744 0.938347 -0.345693
vn -0.000744 0.938347 -0.345693
vn -0.000744 0.938347 -0.345693
vn -0.000744 0.938347 -0.345693
vn 0.299051 0.953928 -0.024293
vn 0.299051 0.953928 -0.024293
vn 0.299051 0.953928 -0.024293
vn 0.299051 0.953928 -0.024293
vn 0.000023 0.968336 0.249651
vn 0.000023 0.968336 0.249650
vn 0.000023 0.968336 0.249651
vn 0.000023 0.968336 0.249651
vn -0.294463 0.955323 -0.025488
vn -0.294463 0.955323 -0.025488
vn -0.294463 0.955323 -0.025488
vn -0.294463 0.955323 -0.025488
vn -0.000015 0.997961 -0.063824
vn -0.000015 0.997961 -0.063824
vn -0.000015 0.997961 -0.063824
vn -0.000015 0.997961 -0.063824
vn 0.994590 0.000000 0.103876
vn 0.994590 0.000000 0.103876
vn 0.994590 0.000000 0.103876
vn 0.994590 0.000000 0.103876
vn -0.000355 0.000000 -1.000000
vn -0.000355 0.000000 -1.000000
vn -0.000355 0.000000 -1.000000
vn -0.000355 0.000000 -1.000000
vn -0.994401 0.000000 0.105669
vn -0.994401 0.000000 0.105669
vn -0.994401 0.000000 0.105669
vn -0.994401 0.000000 0.105669
vn 0.000109 0.000000 1.000000
vn 0.000109 0.000000 1.000000
vn 0.000109 0.000000 1.000000
vn 0.000109 0.000000 1.000000
vn 0.000000 0.191548 0.981483
vn 0.000000 0.191548 0.981483
vn 0.000000 -0.240945 0.970539
vn 0.000000 -0.246782 0.969071
vn 0.000000 -0.088211 -0.996102
vn 0.000000 -0.087476 -0.996167
vn 0.000000 -0.038430 -0.999261
vn 0.000000 -0.038430 -0.999261
vn 0.999719 0.023710 0.000000
vn 0.999719 0.023710 0.000000
vn 0.991030 -0.133642 0.000000
vn 0.989763 -0.142718 0.000000
vn -0.999968 -0.008035 0.000000
vn -0.999968 -0.008035 0.000000
vn -0.986069 -0.166335 0.000000
vn -0.987472 -0.157798 0.000000
vn -0.950624 -0.310344 0.000000
vn -0.950624 -0.310345 0.000000
vn 0.000000 -0.141423 -0.989949
vn 0.000000 -0.141423 -0.989949
vn 0.955449 -0.295157 0.000000
vn 0.955449 -0.295157 0.000000
vn 0.000000 -0.603964 0.797012
vn 0.000000 -0.603964 0.797012
vn 0.000000 -0.176225 0.984350
vn 0.000000 -0.176225 0.984350
vn 0.000000 -0.176225 0.984350
vn 0.000000 -0.176225 0.984350
vn 0.000000 1.000000 0.000000
vn 0.000000 1.000000 0.000000
vn 0.000000 1.000000 0.000000
vn 0.000000 1.000000 0.000000
vn 0.000000 -0.176225 -0.984350
vn 0.000000 -0.176225 -0.984350
vn 0.000000 -0.176225 -0.984350
vn 0.000000 -0.176225 -0.984350
vn 0.000000 -1.000000 0.000000
vn 0.000000 -1.000000 0.000000
vn 0.000000 -1.000000 0.000000
vn 0.000000 -1.000000 0.000000
vn 0.979839 -0.199787 0.000000
vn 0.979839 -0.199787 0.000000
vn 0.979840 -0.199787 0.000000
vn 0.979840 -0.199787 0.000000
vn -0.979842 -0.199773 0.000000
vn -0.979842 -0.199773 0.000000
vn -0.979842 -0.199773 0.000000
vn -0.979842 -0.199773 0.000000
vn 0.000000 -0.195814 0.980641
vn 0.000000 -0.195814 0.980641
vn 0.000000 -0.195814 0.980641
vn 0.000000 -0.195814 0.980641
vn 0.000000 1.000000 0.000000
vn 0.000000 1.000000 0.000000
vn 0.000000 1.000000 0.000000
vn 0.000000 1.000000 0.000000
vn 0.000000 -0.195814 -0.980641
vn 0.000000 -0.195814 -0.980641
vn 0.000000 -0.195814 -0.980641
vn 0.000000 -0.195814 -0.980641
vn 0.000000 -1.000000 0.000000
vn 0.000000 -1.000000 0.000000
vn 0.000000 -1.000000 0.000000
vn 0.000000 -1.000000 0.000000
vn 0.975103 -0.221754 0.000000
vn 0.975103 -0.221754 0.000000
vn 0.975103 -0.221754 0.000000
vn 0.975103 -0.221754 0.000000
vn -0.975101 -0.221763 0.000000
vn -0.975101 -0.221763 0.000000
vn -0.975101 -0.221763 0.000000
vn -0.975101 -0.221763 0.000000
vn 0.000000 0.000000 1.000000
vn 0.000000 0.000000 1.000000
vn 0.000000 0.000000 1.000000
vn 0.000000 0.000000 1.000000
vn 0.000000 0.047010 0.998894
vn 0.000000 0.047010 0.998894
vn 0.000000 0.047010 0.998894
vn 0.000000 0.047010 0.998894
vn 0.000000 0.223557 -0.974691
vn 0.000000 0.223557 -0.974691
vn 0.000000 0.223557 -0.974691
vn 0.000000 0.223557 -0.974691
vn 0.000000 -1.000000 0.000000
vn 0.000000 -1.000000 0.000000
vn 0.000000 -1.000000 0.000000
vn 0.000000 -1.000000 0.000000
vn 0.996000 0.084004 0.030443
vn 0.996000 0.084005 0.030443
vn 0.998318 0.054508 0.019754
vn 0.997211 0.070176 0.025432
vn -0.995854 0.085526 0.030995
vn -0.995854 0.085526 0.030995
vn -0.997108 0.071449 0.025893
vn -0.998256 0.055503 0.020114
vn 0.000000 -0.627850 0.778334
vn 0.000000 -0.627850 0.778334
vn 0.000000 -0.627850 0.778334
vn 0.000000 -0.627850 0.778334
vn 1.000000 -0.000001 0.000000
vn 1.000000 -0.000002 0.000000
vn 0.000000 0.782319 -0.622878
vn 0.000000 0.782319 -0.622878
vn 0.000000 0.782319 -0.622878
vn 0.000000 0.782319 -0.622878
vn -1.000000 0.000000 0.000000
vn -1.000000 0.000000 0.000000
vn 0.000000 -0.988957 -0.148203
vn 0.000000 -0.988957 -0.148203
vn 0.000000 -0.988957 -0.148203
vn 0.000000 -0.988957 -0.148203
vn 1.000000 0.000000 0.000000
vn 1.000000 0.000000 0.000000
vn 0.000000 0.952923 0.303212
vn 0.000000 0.952923 0.303212
vn 0.000000 0.952923 0.303212
vn 0.000000 0.952923 0.303212
vn -1.000000 0.000000 0.000000
vn -1.000000 0.000000 0.000000
s 1
g sink
usemtl initialShadingGroup
f 1/1/1 2/176/2 17/23/3 18/25/4
f 2/2/5 1/177/1 43/181/6 44/52/7
f 3/5/8 4/178/9 19/26/10 20/27/11
s 3
f 5/13/12 6/171/13 23/172/14 24/32/15
s 4
f 6/14/16 5/170/17 45/53/18 46/54/19
s 5
f 7/15/20 8/165/21 21/29/22 22/30/23
s off
f 9/9/24 10/135/25 14/19/26 13/10/27
f 11/16/28 12/11/29 16/12/30 15/139/31
s 1
f 2/2/5 44/52/7 45/164/32 5/163/33
s 6
f 6/14/34 46/54/35 47/63/36 23/31/37
s 7
f 10/135/38 49/55/39 50/138/40 14/19/41
s 1
f 18/25/4 52/58/42 43/51/6 1/1/1
s 8
f 3/141/43 20/28/44 21/29/45 8/165/46
s 9
f 24/32/47 17/24/48 2/142/49 5/13/50
s 1
f 33/40/51 34/179/52 13/3/53 14/137/54
f 14/137/54 50/56/55 51/57/56 33/40/51
f 40/180/57 41/49/58 15/18/59 16/6/60
s 8
f 39/46/61 40/48/62 16/20/63 12/8/64
s 5
f 38/45/65 39/46/66 12/8/67 11/136/68
s 6
f 36/44/69 48/69/70 49/155/71 10/17/72
s 3
f 35/43/73 36/44/74 10/17/75 9/7/76
s 9
f 13/22/77 34/42/78 35/43/79 9/7/80
s 1
f 26/34/81 25/33/82 4/4/9 3/175/83
f 27/162/84 26/34/81 3/175/83 8/161/85
s 4
f 28/36/86 27/35/87 8/21/88 7/166/89
s 6
f 29/168/90 28/36/91 7/166/92 22/167/93
f 30/158/94 37/159/95 38/45/96 11/136/97
s 7
f 31/140/98 30/37/99 11/16/100 15/139/101
s 1
f 41/49/58 42/50/102 31/38/103 15/18/59
f 25/182/82 32/39/104 19/26/10 4/178/9
f 18/25/4 17/23/3 34/41/52 33/40/51
s 9
f 35/43/79 34/42/78 17/24/48 24/32/47
s 3
f 24/32/15 23/172/14 36/44/74 35/43/73
s 6
f 23/172/37 47/173/36 48/69/70 36/44/69
f 38/45/96 37/159/95 29/65/90 22/30/93
s 5
f 22/30/23 21/29/22 39/46/66 38/45/65
s 8
f 21/29/45 20/28/44 40/48/62 39/46/61
s 1
f 20/27/11 19/26/10 41/49/58 40/47/57
f 32/39/104 42/50/102 41/49/58 19/26/10
f 33/40/51 51/57/56 52/58/42 18/25/4
f 44/52/7 43/181/6 25/33/82 26/34/81
f 45/164/32 44/52/7 26/34/81 27/162/84
s 4
f 46/54/19 45/53/18 27/35/87 28/36/86
s 6
f 47/63/36 46/54/35 28/36/91 29/168/90
f 49/55/71 48/156/70 37/67/95 30/37/94
s 7
f 50/138/40 49/55/39 30/37/99 31/140/98
s 1
f 51/57/56 50/56/55 31/38/103 42/50/102
f 52/58/42 51/57/56 42/50/102 32/39/104
f 43/51/6 52/58/42 32/39/104 25/182/82
s off
f 53/59/105 54/174/106 58/68/107 57/62/108
f 54/66/109 53/59/110 56/60/111 55/157/112
f 55/64/113 56/60/114 59/61/115 60/160/116
f 57/62/117 58/169/118 60/70/119 59/61/120
f 56/60/121 53/59/122 57/62/123 59/61/124
f 48/69/125 47/173/126 54/66/127 55/157/128
f 47/63/129 29/168/130 58/68/131 54/174/132
f 29/65/133 37/159/134 60/70/135 58/169/136
f 37/67/137 48/156/138 55/64/139 60/160/140
s 10
f 61/154/141 62/72/142 72/73/143 69/74/144
s 11
f 70/75/145 71/146/146 68/147/147 67/78/148
s 12
f 62/144/149 68/77/150 71/76/151 72/145/152
s 13
f 67/150/153 61/71/154 69/152/155 70/149/156
f 70/149/156 69/152/155 63/153/157 65/80/158
s 11
f 65/151/159 66/81/160 71/146/146 70/75/145
s 12
f 72/145/152 71/76/151 66/148/161 64/82/162
s 10
f 69/74/144 72/73/143 64/143/163 63/79/164
s off
f 73/83/165 74/84/166 76/85/167 75/86/168
f 75/86/169 76/85/170 78/87/171 77/88/172
f 77/88/173 78/87/174 80/128/175 79/90/176
f 79/90/177 80/128/178 74/91/179 73/92/180
f 74/93/181 80/89/182 78/87/183 76/85/184
f 79/127/185 73/94/186 75/86/187 77/88/188
f 81/95/189 82/96/190 84/97/191 83/98/192
f 83/98/193 84/97/194 86/99/195 85/100/196
f 85/100/197 86/99/198 88/126/199 87/102/200
f 87/102/201 88/126/202 82/103/203 81/104/204
f 82/105/205 88/101/206 86/99/207 84/97/208
f 87/125/209 81/106/210 83/98/211 85/100/212
f 89/107/213 90/108/214 92/109/215 91/110/216
f 101/111/217 102/134/218 103/113/219 104/114/220
f 93/115/221 94/116/222 96/133/223 95/118/224
f 95/118/225 96/133/226 90/119/227 89/120/228
s 14
f 90/108/229 96/117/230 94/129/231 92/109/232
s 15
f 95/118/233 89/107/234 91/110/235 93/115/236
s off
f 91/110/237 92/109/238 98/121/239 97/122/240
s 14
f 92/109/232 94/129/231 99/130/241 98/121/242
s off
f 94/116/243 93/115/244 100/124/245 99/123/246
s 15
f 93/115/236 91/110/235 97/122/247 100/124/248
s off
f 97/122/249 98/121/250 102/112/251 101/132/252
s 14
f 98/121/242 99/130/241 103/131/253 102/112/254
s off
f 99/123/255 100/124/256 104/114/257 103/113/258
s 15
f 100/124/248 97/122/247 101/132/259 104/114/260
