# This file uses centimeters as units for non-parametric coordinates.

mtllib trashbag.mtl
g default
v 0.482219 -0.007893 0.575936
v 1.471277 -0.007893 0.575936
v 0.482219 -0.007893 -0.575936
v 1.471277 -0.007893 -0.575936
v 1.042326 1.922114 0.265553
v 1.573432 1.922114 0.265553
v 1.573432 1.922114 -0.265553
v 1.042326 1.922114 -0.265553
v 0.967206 2.717920 0.221064
v 1.400304 2.717920 0.217117
v 1.403859 2.717920 -0.221316
v 0.967206 2.717920 -0.221097
v 0.875399 2.478537 0.367578
v 0.954646 2.291245 0.321283
v 0.875392 2.478488 -0.367664
v 0.954528 2.291330 -0.321448
v 1.603043 2.497195 0.367742
v 1.590402 2.301046 0.317570
v 1.602672 2.500218 -0.368477
v 1.590448 2.303772 -0.318575
v 0.230680 0.620016 0.756582
v 0.437423 1.335021 0.570281
v 1.978340 0.579465 0.835656
v 1.824033 1.426509 0.619115
v 0.245476 0.685151 -0.873440
v 0.439466 1.336441 -0.679620
v 1.816743 0.614915 -0.909770
v 1.828948 1.408587 -0.733185
vt 0.421860 0.306776
vt 0.178615 0.303241
vt 0.280099 0.424965
vt 0.340964 0.756012
vt 0.370248 0.812932
vt 0.365416 0.773901
vt 0.419860 0.737420
vt 0.401698 0.764633
vt 0.420516 0.836608
vt 0.398409 0.814682
vt 0.344649 0.835630
vt 0.326234 0.754889
vt 0.426422 0.731883
vt 0.429169 0.845033
vt 0.324856 0.840653
vt 0.034278 0.127458
vt 0.188760 0.000000
vt 0.448591 0.622172
vt 0.536509 0.359119
vt 0.603647 0.470787
vt 0.388905 0.078530
vt 0.491559 0.030745
vt 0.086978 0.238529
vt 0.320377 0.185052
vt 0.253531 0.553357
vt 0.281914 0.064371
vt 0.523675 0.646169
vt 0.301923 0.724181
vt 0.493865 0.985744
vt 0.431898 0.732067
vt 0.166176 0.951505
vt 0.448303 0.856574
vt 0.211991 0.577492
vt 0.315183 0.857321
vt 0.644265 0.193401
vt 0.572803 0.926266
vt 0.128301 0.620839
vt 0.000000 0.438689
vt 0.327752 0.547111
vt 0.544326 0.277004
vt 0.072394 0.339325
vt 0.494377 0.631209
vt 0.133907 0.696878
vt 0.206437 1.000000
vn 0.000000 -1.000000 0.000000
vn 0.000000 -1.000000 0.000000
vn 0.000000 -1.000000 0.000000
vn 0.000000 -1.000000 0.000000
vn 0.000000 1.000000 0.000000
vn 0.000000 1.000000 0.000000
vn 0.000000 1.000000 0.000000
vn 0.000000 1.000000 0.000000
vn 0.000199 0.202424 0.979298
vn 0.007592 -0.242731 0.970064
vn 0.007592 -0.242731 0.970064
vn 0.001941 0.101375 0.994847
vn -0.921002 -0.389558 0.000074
vn -0.921002 -0.389558 0.000074
vn -0.921002 -0.389558 0.000074
vn -0.921002 -0.389558 0.000074
vn 0.007527 -0.241810 -0.970295
vn -0.002651 0.198500 -0.980097
vn -0.000355 0.100614 -0.994926
vn 0.007527 -0.241810 -0.970294
vn 0.937763 0.347270 0.001842
vn 0.998610 -0.052701 -0.000254
vn 0.998608 -0.052751 -0.000255
vn 0.936764 0.349957 0.001857
vn -0.933697 0.358064 -0.000009
vn -0.933697 0.358064 -0.000009
vn -0.933697 0.358064 -0.000009
vn -0.933697 0.358064 -0.000009
vn -0.005964 0.541482 0.840691
vn -0.005964 0.541482 0.840691
vn 0.737419 0.675425 0.003736
vn 0.737419 0.675425 0.003736
vn -0.010805 0.538747 -0.842398
vn -0.010805 0.538747 -0.842398
vn 0.004344 -0.142161 0.989834
vn 0.004344 -0.142161 0.989834
vn 0.004344 -0.142161 0.989834
vn 0.004344 -0.142161 0.989834
vn 0.942911 0.333040 -0.001503
vn 0.941245 0.337720 -0.001521
vn 0.003962 -0.143185 -0.989688
vn 0.003962 -0.143185 -0.989688
vn 0.003962 -0.143185 -0.989688
vn 0.003962 -0.143185 -0.989688
vn -0.972901 -0.231222 0.000081
vn -0.972901 -0.231222 0.000081
vn -0.972901 -0.231222 0.000081
vn -0.972901 -0.231222 0.000081
vn -0.999384 -0.034503 -0.006436
vn -0.899049 0.437847 0.000540
vn -0.904313 0.426870 0.000566
vn -0.999980 -0.002621 -0.005722
vn -0.044374 0.299017 0.953216
vn -0.040854 0.026241 0.998820
vn -0.041503 0.067428 0.996861
vn -0.044781 0.325011 0.944649
vn 0.986928 0.155804 -0.041207
vn 0.974052 -0.219720 -0.054271
vn 0.977764 -0.202594 -0.054153
vn 0.988170 0.147433 -0.042245
vn -0.029118 -0.049819 -0.998334
vn -0.033478 0.340084 -0.939799
vn -0.035511 0.386802 -0.921479
vn -0.029315 -0.012624 -0.999491
vn -0.032170 -0.334522 0.941839
vn -0.032170 -0.334522 0.941839
vn -0.024618 -0.430794 -0.902114
vn -0.024618 -0.430794 -0.902114
vn 0.814866 -0.577266 -0.052512
vn 0.814866 -0.577266 -0.052512
vn -0.937512 -0.347706 -0.013128
vn -0.937512 -0.347706 -0.013128
vn -0.046849 0.530097 0.846641
vn -0.046849 0.530097 0.846642
vn -0.045343 0.633743 -0.772213
vn -0.045343 0.633743 -0.772213
vn -0.696625 0.717435 -0.000227
vn -0.696625 0.717435 -0.000227
s off
g pCube2
usemtl initialShadingGroup
f 3/24/1 4/1/2 2/3/3 1/2/4
f 9/6/5 10/8/6 11/10/7 12/5/8
s 1
f 13/4/9 14/12/10 18/13/11 17/7/12
s off
f 14/12/13 13/4/14 15/11/15 16/15/16
s 2
f 16/15/17 15/11/18 19/9/19 20/14/20
s 3
f 17/7/21 18/13/22 20/14/23 19/9/24
s off
f 13/4/25 9/6/26 12/5/27 15/11/28
s 1
f 9/6/29 13/4/9 17/7/12 10/8/30
s 3
f 10/8/31 17/7/21 19/9/24 11/10/32
s 2
f 11/10/33 19/9/19 15/11/18 12/5/34
s off
f 5/28/35 6/30/36 18/13/37 14/12/38
s 3
f 6/30/39 7/32/40 20/14/23 18/13/22
s off
f 7/32/41 8/34/42 16/15/43 20/14/44
f 8/34/45 5/28/46 14/12/47 16/15/48
s 4
f 21/23/49 22/16/50 26/17/51 25/26/52
s 5
f 22/38/53 21/41/54 23/25/55 24/37/56
s 3
f 24/18/57 23/39/58 27/19/59 28/20/60
s 7
f 25/21/61 26/22/62 28/35/63 27/40/64
s 5
f 1/2/65 2/3/66 23/25/55 21/41/54
s 7
f 25/21/61 27/40/64 4/1/67 3/24/68
s 3
f 2/3/69 4/1/70 27/19/59 23/39/58
s 4
f 3/24/71 1/2/72 21/23/49 25/26/52
s 5
f 22/33/53 24/42/56 6/30/73 5/28/74
s 3
f 24/27/57 28/36/60 7/32/40 6/30/39
s 7
f 28/29/63 26/44/62 8/34/75 7/32/76
s 4
f 26/31/51 22/43/50 5/28/77 8/34/78
