# This file uses centimeters as units for non-parametric coordinates.

mtllib tv.mtl
g default
v -3.615721 1.825997 -3.573689
v -1.615905 1.825997 -3.573689
v -3.615721 0.740516 -3.573689
v -1.615905 0.740516 -3.573689
v -3.538785 0.817451 -3.390165
v -3.615721 0.740516 -3.496739
v -1.692839 0.817451 -3.390165
v -1.615905 0.740516 -3.496739
v -3.538785 1.749062 -3.390165
v -3.615721 1.825997 -3.496739
v -1.692839 1.749062 -3.390165
v -1.615905 1.825997 -3.496739
v -1.675217 1.825997 -3.573689
v -1.675217 0.740516 -3.573689
v -1.675217 0.740516 -3.496739
v -1.747589 0.817451 -3.390165
v -1.747588 1.749062 -3.390165
v -1.675218 1.825997 -3.496739
v -3.557984 1.825997 -3.573689
v -3.557984 0.740516 -3.573689
v -3.557984 0.740516 -3.496739
v -3.485492 0.817451 -3.390165
v -3.485492 1.749062 -3.390165
v -3.557984 1.825997 -3.496739
v -3.615721 0.802759 -3.573689
v -3.615721 0.802759 -3.496739
v -3.538785 0.870870 -3.390165
v -3.485492 0.870870 -3.390165
v -1.747588 0.870870 -3.390165
v -1.692839 0.870870 -3.390165
v -1.615905 0.802759 -3.496739
v -1.615905 0.802759 -3.573689
v -1.675217 0.802759 -3.573689
v -3.557984 0.802759 -3.573689
v -3.615721 1.769017 -3.573689
v -3.615721 1.769017 -3.496739
v -3.538785 1.700159 -3.390165
v -3.485492 1.700159 -3.390165
v -1.747588 1.700159 -3.390165
v -1.692839 1.700159 -3.390165
v -1.615905 1.769017 -3.496739
v -1.615905 1.769017 -3.573689
v -1.675217 1.769017 -3.573689
v -3.557984 1.769017 -3.573689
v -1.675217 0.802759 -3.542765
v -3.557984 0.802759 -3.542765
v -3.557984 1.769017 -3.542765
v -1.675217 1.769017 -3.542765
v -2.655078 0.670121 -3.325287
v -2.512839 0.670121 -3.325287
v -2.655078 1.431926 -3.362580
v -2.512839 1.431926 -3.362580
v -2.655078 1.431926 -3.393080
v -2.512839 1.431926 -3.393080
v -2.655078 0.670121 -3.393080
v -2.512839 0.670121 -3.393080
v -3.083958 0.578984 -3.308647
v -2.083958 0.578984 -3.308647
v -3.083958 0.619911 -3.308647
v -2.083958 0.619911 -3.308647
v -3.083958 0.619911 -3.403738
v -2.083958 0.619911 -3.403738
v -3.083958 0.578984 -3.403738
v -2.083958 0.578984 -3.403738
v -2.576883 0.578984 -3.281601
v -2.576883 0.693125 -3.281601
v -2.576883 0.693125 -3.430784
v -2.576883 0.578984 -3.430784
v -3.707450 -0.014424 -3.161359
v -1.502549 -0.014424 -3.161359
v -3.707450 0.579941 -3.161359
v -1.502549 0.579941 -3.161359
v -3.707450 0.579941 -3.898483
v -1.502549 0.579941 -3.898483
v -3.707450 -0.014424 -3.898483
v -1.502549 -0.014424 -3.898483
v -3.707450 0.506071 -3.161359
v -3.707450 0.506071 -3.898483
v -1.502549 0.506071 -3.898483
v -1.502549 0.506071 -3.161359
v -3.707450 0.060301 -3.161359
v -3.707450 0.060301 -3.898483
v -1.502549 0.060301 -3.898483
v -1.502549 0.060301 -3.161359
v -3.619939 -0.014424 -3.161359
v -3.619939 0.060301 -3.161359
v -3.619939 0.506071 -3.161359
v -3.619939 0.579941 -3.161359
v -3.619939 0.579941 -3.898483
v -3.619939 0.506071 -3.898483
v -3.619939 0.060301 -3.898483
v -3.619939 -0.014424 -3.898483
v -1.584135 0.506071 -3.161359
v -1.584135 0.060301 -3.161359
v -1.584134 -0.014424 -3.161359
v -1.584134 -0.014424 -3.898483
v -1.584134 0.060301 -3.898483
v -1.584134 0.506071 -3.898483
v -1.584134 0.579941 -3.898483
v -1.584134 0.579941 -3.161359
v -3.619939 0.506071 -3.316127
v -3.619939 0.060301 -3.316127
v -1.584134 0.506071 -3.316127
v -1.584134 0.060301 -3.316127
vt 0.591716 0.721448
vt 0.996054 0.497638
vt 0.567407 0.767111
vt 0.593409 0.782226
vt 0.578847 0.992200
vt 0.593962 0.966198
vt 0.984496 0.980216
vt 0.957941 0.781130
vt 0.958494 0.965102
vt 0.591305 0.736727
vt 0.995826 0.723204
vt 0.591589 0.496430
vt 0.591816 0.480937
vt 0.996256 0.482283
vt 0.973055 0.755127
vt 0.999047 0.765813
vt 0.999692 0.980171
vt 0.552211 0.767157
vt 0.568051 0.981469
vt 0.552855 0.981514
vt 0.603500 0.721560
vt 0.603435 0.496497
vt 0.961343 0.755163
vt 0.603682 0.481081
vt 0.947129 0.781162
vt 0.947682 0.965134
vt 0.962052 0.991048
vt 0.603182 0.736965
vt 0.984270 0.723047
vt 0.984568 0.497610
vt 0.589540 0.756281
vt 0.984747 0.482201
vt 0.603933 0.782194
vt 0.604487 0.966166
vt 0.590249 0.992166
vt 0.983910 0.738464
vt 0.552248 0.779449
vt 0.995948 0.509865
vt 0.567443 0.779403
vt 0.593441 0.792775
vt 0.603965 0.792744
vt 0.947161 0.791712
vt 0.957972 0.791679
vt 0.983889 0.778150
vt 0.591524 0.509067
vt 0.999084 0.778105
vt 0.603415 0.508976
vt 0.984377 0.510068
vt 0.552822 0.970262
vt 0.996027 0.711478
vt 0.568017 0.970216
vt 0.593933 0.956541
vt 0.604457 0.956509
vt 0.947653 0.955477
vt 0.958465 0.955444
vt 0.984462 0.968964
vt 0.591888 0.710290
vt 0.999658 0.968918
vt 0.603777 0.710162
vt 0.984450 0.711623
vt 0.607339 0.513397
vt 0.980763 0.514745
vt 0.980523 0.707199
vt 0.607393 0.705487
vt 0.106222 0.482298
vt 0.134311 0.482338
vt 0.134099 0.632957
vt 0.106009 0.632918
vt 0.134090 0.638980
vt 0.106001 0.638941
vt 0.133878 0.789420
vt 0.105789 0.789380
vt 0.133859 0.802807
vt 0.105770 0.802768
vt 0.147682 0.483011
vt 0.140114 0.633260
vt 0.092850 0.482934
vt 0.099993 0.633204
vt 0.783459 0.264628
vt 0.789375 0.164524
vt 0.788172 0.373914
vt 0.783412 0.272710
vt 0.664275 0.286484
vt 0.764634 0.272602
vt 0.759915 0.164355
vt 0.764681 0.264520
vt 0.981222 0.265764
vt 1.000000 0.265871
vt 0.999954 0.273954
vt 0.782266 0.472291
vt 0.566871 0.271467
vt 0.765815 0.067046
vt 0.145565 0.001618
vt 0.162846 0.001570
vt 0.162887 0.016326
vt 0.145606 0.016374
vt 0.145892 0.118991
vt 0.163173 0.118943
vt 0.163579 0.264508
vt 0.031615 0.379878
vt 0.031901 0.482495
vt 0.049183 0.482447
vt 0.164546 0.611885
vt 0.147264 0.611933
vt 0.164951 0.757450
vt 0.147670 0.757498
vt 0.580982 0.000405
vt 0.726547 0.000000
vt 0.726588 0.014756
vt 0.581023 0.015162
vt 0.000000 0.002023
vt 0.000041 0.016780
vt 0.000286 0.104809
vt 0.145851 0.104403
vt 0.000327 0.119397
vt 0.163619 0.279096
vt 0.031656 0.394466
vt 0.581268 0.103191
vt 0.726833 0.102786
vt 0.726874 0.117373
vt 0.581309 0.117779
vt 0.163132 0.104355
vt 0.564912 0.015207
vt 0.564871 0.000450
vt 0.565157 0.103236
vt 0.565198 0.117824
vt 0.565603 0.263389
vt 0.697036 0.378025
vt 0.680966 0.392658
vt 0.697077 0.392613
vt 0.566529 0.596009
vt 0.582640 0.595964
vt 0.566570 0.610766
vt 0.582682 0.610721
vt 0.566976 0.756331
vt 0.583087 0.756286
vt 0.164184 0.482127
vt 0.163939 0.394098
vt 0.565964 0.392978
vt 0.566209 0.481007
vt 0.578138 0.756315
vt 0.995433 0.738738
vt 0.973765 0.991013
vt 0.983852 0.765859
vt 0.883606 0.287744
vt 0.981176 0.273846
vt 0.758713 0.373744
vt 0.763489 0.472183
vt 0.664404 0.263944
vt 0.566918 0.263385
vt 0.784593 0.067153
vt 0.883736 0.265204
vt 0.146297 0.264556
vt 0.581714 0.263344
vt 0.048897 0.379830
vt 0.048937 0.394418
vt 0.697322 0.480642
vt 0.147223 0.597177
vt 0.681211 0.480687
vt 0.164505 0.597129
vt 0.565644 0.277976
vt 0.680925 0.378070
vn 0.000000 0.000000 -1.000000
vn 0.000000 0.000000 -1.000000
vn 0.000000 0.000000 -1.000000
vn 0.000000 0.000000 -1.000000
vn 0.000000 -0.810807 0.585314
vn 0.000000 -0.810807 0.585314
vn 0.000000 -0.810808 0.585312
vn 0.000000 -0.810808 0.585312
vn -0.810805 0.000000 0.585316
vn -0.810805 0.000000 0.585316
vn -0.810805 0.000000 0.585316
vn -0.810805 0.000000 0.585317
vn 0.810808 0.000000 0.585312
vn 0.810808 0.000000 0.585312
vn 0.810809 0.000000 0.585311
vn 0.810809 0.000000 0.585311
vn 0.000000 0.810808 0.585313
vn 0.000000 0.810808 0.585313
vn 0.000000 0.810808 0.585312
vn 0.000000 0.810808 0.585312
vn 0.000000 0.000000 1.000000
vn 0.000000 0.000000 1.000000
vn 0.000000 0.000000 1.000000
vn 0.000000 0.000000 1.000000
vn 0.000000 1.000000 0.000000
vn 0.000000 1.000000 0.000000
vn 0.000000 1.000000 0.000000
vn 0.000000 1.000000 0.000000
vn 0.000000 -1.000000 0.000000
vn 0.000000 -1.000000 0.000000
vn 0.000000 -1.000000 0.000000
vn 0.000000 -1.000000 0.000000
vn 1.000000 0.000000 0.000000
vn 1.000000 0.000000 0.000000
vn 1.000000 0.000000 0.000000
vn 1.000000 0.000000 0.000000
vn -1.000000 0.000000 0.000000
vn -1.000000 0.000000 0.000000
vn -1.000000 0.000000 0.000000
vn -1.000000 0.000000 0.000000
vn 0.000000 0.000000 -1.000000
vn 0.000000 0.000000 -1.000000
vn 0.000000 0.000000 -1.000000
vn 0.000000 0.000000 -1.000000
vn 0.000000 -1.000000 0.000000
vn 0.000000 -1.000000 0.000000
vn 0.000000 -1.000000 0.000000
vn 0.000000 -1.000000 0.000000
vn 0.000000 -0.810808 0.585312
vn 0.000000 -0.810808 0.585312
vn 0.000000 -0.810808 0.585312
vn 0.000000 -0.810808 0.585312
vn 0.000000 0.000000 1.000000
vn 0.000000 0.000000 1.000000
vn 0.000000 0.000000 1.000000
vn 0.000000 0.000000 1.000000
vn 0.000000 0.810808 0.585312
vn 0.000000 0.810808 0.585312
vn 0.000000 0.810808 0.585313
vn 0.000000 0.810808 0.585313
vn 0.000000 1.000000 0.000000
vn 0.000000 1.000000 0.000000
vn 0.000000 1.000000 0.000000
vn 0.000000 1.000000 0.000000
vn -1.000000 0.000000 0.000000
vn -1.000000 0.000000 0.000000
vn -1.000000 0.000000 0.000000
vn -1.000000 0.000000 0.000000
vn -0.810806 0.000000 0.585316
vn -0.810806 0.000000 0.585316
vn -0.810805 0.000000 0.585316
vn -0.810805 0.000000 0.585316
vn 0.000000 0.000000 1.000000
vn 0.000000 0.000000 1.000000
vn 0.000000 0.000000 1.000000
vn 0.000000 0.000000 1.000000
vn 0.000000 0.000000 1.000000
vn 0.000000 0.000000 1.000000
vn 0.000000 0.000000 1.000000
vn 0.000000 0.000000 1.000000
vn 0.810808 0.000000 0.585313
vn 0.810808 0.000000 0.585313
vn 0.810808 0.000000 0.585312
vn 0.810808 0.000000 0.585312
vn 1.000000 0.000000 0.000000
vn 1.000000 0.000000 0.000000
vn 1.000000 0.000000 0.000000
vn 1.000000 0.000000 0.000000
vn 0.000000 0.000000 -1.000000
vn 0.000000 0.000000 -1.000000
vn 0.000000 0.000000 -1.000000
vn 0.000000 0.000000 -1.000000
vn 0.000000 0.000000 -1.000000
vn 0.000000 0.000000 -1.000000
vn 0.000000 0.000000 -1.000000
vn 0.000000 0.000000 -1.000000
vn 0.000000 0.000000 -1.000000
vn 0.000000 0.000000 -1.000000
vn 0.000000 0.000000 -1.000000
vn 0.000000 0.000000 -1.000000
vn 0.000000 1.000000 0.000000
vn 0.000000 1.000000 0.000000
vn 0.000000 1.000000 0.000000
vn 0.000000 1.000000 0.000000
vn 1.000000 0.000000 0.000000
vn 1.000000 0.000000 0.000000
vn 1.000000 0.000000 0.000000
vn 1.000000 0.000000 0.000000
vn 0.000000 -1.000000 0.000000
vn 0.000000 -1.000000 0.000000
vn 0.000000 -1.000000 0.000000
vn 0.000000 -1.000000 0.000000
vn -1.000000 0.000000 0.000000
vn -1.000000 0.000000 0.000000
vn -1.000000 0.000000 0.000000
vn -1.000000 0.000000 0.000000
vn 0.000000 0.048895 0.998804
vn 0.000000 0.048895 0.998804
vn 0.000000 0.048895 0.998804
vn 0.000000 0.048895 0.998804
vn 0.000000 1.000000 0.000000
vn 0.000000 1.000000 0.000000
vn 0.000000 1.000000 0.000000
vn 0.000000 1.000000 0.000000
vn 0.000000 0.000000 -1.000000
vn 0.000000 0.000000 -1.000000
vn 0.000000 0.000000 -1.000000
vn 0.000000 0.000000 -1.000000
vn 0.000000 -1.000000 0.000000
vn 0.000000 -1.000000 0.000000
vn 0.000000 -1.000000 0.000000
vn 0.000000 -1.000000 0.000000
vn 1.000000 0.000000 0.000000
vn 1.000000 0.000000 0.000000
vn 1.000000 0.000000 0.000000
vn 1.000000 0.000000 0.000000
vn -1.000000 0.000000 0.000000
vn -1.000000 0.000000 0.000000
vn -1.000000 0.000000 0.000000
vn -1.000000 0.000000 0.000000
vn -0.053262 0.000000 0.998581
vn 0.000000 0.000000 1.000000
vn -0.000077 0.000000 1.000000
vn -0.053262 0.000000 0.998581
vn -0.142902 0.989737 0.000000
vn -0.000071 1.000000 0.000000
vn -0.000071 1.000000 0.000000
vn -0.142902 0.989737 0.000000
vn -0.053262 0.000000 -0.998581
vn -0.000077 0.000000 -1.000000
vn 0.000000 0.000000 -1.000000
vn -0.053262 0.000000 -0.998581
vn 0.000000 -1.000000 0.000000
vn 0.000000 -1.000000 0.000000
vn 0.000000 -1.000000 0.000000
vn 0.000000 -1.000000 0.000000
vn 1.000000 0.000000 0.000000
vn 1.000000 0.000000 0.000000
vn 1.000000 0.000000 0.000000
vn 1.000000 0.000000 0.000000
vn -1.000000 0.000000 0.000000
vn -1.000000 0.000000 0.000000
vn -1.000000 0.000000 0.000000
vn -1.000000 0.000000 0.000000
vn 0.054786 0.000000 0.998498
vn 0.054786 0.000000 0.998498
vn 0.146917 0.989149 0.000000
vn 0.146917 0.989149 0.000000
vn 0.054786 0.000000 -0.998498
vn 0.054786 0.000000 -0.998498
vn 0.000000 -1.000000 0.000000
vn 0.000000 -1.000000 0.000000
vn 0.000000 0.000000 1.000000
vn 0.000000 0.000000 1.000000
vn 0.000000 0.000000 1.000000
vn 0.000000 0.000000 1.000000
vn 0.000000 1.000000 0.000000
vn 0.000000 1.000000 0.000000
vn 0.000000 1.000000 0.000000
vn 0.000000 1.000000 0.000000
vn 0.000000 0.000000 -1.000000
vn 0.000000 0.000000 -1.000000
vn 0.000000 0.000000 -1.000000
vn 0.000000 0.000000 -1.000000
vn 0.000000 -1.000000 0.000000
vn 0.000000 -1.000000 0.000000
vn 0.000000 -1.000000 0.000000
vn 0.000000 -1.000000 0.000000
vn 1.000000 0.000000 0.000000
vn 1.000000 0.000000 0.000000
vn 1.000000 0.000000 0.000000
vn 1.000000 0.000000 0.000000
vn -1.000000 0.000000 0.000000
vn -1.000000 0.000000 0.000000
vn -1.000000 0.000000 0.000000
vn -1.000000 0.000000 0.000000
vn -1.000000 0.000000 0.000000
vn -1.000000 0.000000 0.000000
vn -1.000000 0.000000 0.000000
vn -1.000000 0.000000 0.000000
vn 0.000000 0.000000 -1.000000
vn 0.000000 0.000000 -1.000000
vn 0.000000 0.000000 -1.000000
vn 0.000000 0.000000 -1.000000
vn 1.000000 0.000000 0.000000
vn 1.000000 0.000000 0.000000
vn 1.000000 0.000000 0.000000
vn 1.000000 0.000000 0.000000
vn 0.000000 0.000000 1.000000
vn 0.000000 0.000000 1.000000
vn 0.000000 0.000000 1.000000
vn 0.000000 0.000000 1.000000
vn 0.000000 0.000000 1.000000
vn 0.000000 0.000000 1.000000
vn 0.000000 0.000000 1.000000
vn 0.000000 0.000000 1.000000
vn 0.000000 0.000000 1.000000
vn 0.000000 0.000000 1.000000
vn 0.000000 0.000000 1.000000
vn 0.000000 0.000000 1.000000
vn 0.000000 1.000000 0.000000
vn 0.000000 1.000000 0.000000
vn 0.000000 1.000000 0.000000
vn 0.000000 1.000000 0.000000
vn 0.000000 0.000000 -1.000000
vn 0.000000 0.000000 -1.000000
vn 0.000000 0.000000 -1.000000
vn 0.000000 0.000000 -1.000000
vn 0.000000 0.000000 -1.000000
vn 0.000000 0.000000 -1.000000
vn 0.000000 0.000000 -1.000000
vn 0.000000 0.000000 -1.000000
vn 0.000000 -1.000000 0.000000
vn 0.000000 -1.000000 0.000000
vn 0.000000 -1.000000 0.000000
vn 0.000000 -1.000000 0.000000
vn 0.000000 0.000000 -1.000000
vn 0.000000 0.000000 -1.000000
vn 0.000000 0.000000 -1.000000
vn 0.000000 0.000000 -1.000000
vn 1.000000 0.000000 0.000000
vn 1.000000 0.000000 0.000000
vn 1.000000 0.000000 0.000000
vn 1.000000 0.000000 0.000000
vn 0.000000 -1.000000 0.000000
vn 0.000000 -1.000000 0.000000
vn 0.000000 -1.000000 0.000000
vn 0.000000 -1.000000 0.000000
vn -1.000000 0.000000 0.000000
vn -1.000000 0.000000 0.000000
vn -1.000000 0.000000 0.000000
vn -1.000000 0.000000 0.000000
vn 0.000000 1.000000 0.000000
vn 0.000000 1.000000 0.000000
vn 0.000000 1.000000 0.000000
vn 0.000000 1.000000 0.000000
s 1
g pCube17
usemtl initialShadingGroup
f 1/11/1 19/29/2 44/60/3 35/50/4
s 2
f 5/4/5 6/141/6 21/31/7 22/33/8
s 3
f 36/51/9 37/52/10 9/6/11 10/19/12
s 4
f 40/55/13 41/56/14 12/7/15 11/9/16
s 5
f 10/5/17 9/6/18 23/34/19 24/35/20
s 6
f 37/52/21 38/53/22 23/34/23 9/6/24
s 7
f 10/142/25 24/36/26 19/29/27 1/11/28
s 8
f 3/2/29 20/30/30 21/32/31 6/14/32
s 9
f 41/56/33 42/58/34 2/17/35 12/7/36
s 10
f 35/49/37 36/51/38 10/19/39 1/20/40
s 1
f 42/57/41 43/59/42 13/21/43 2/1/44
s 8
f 15/24/45 14/22/46 4/12/47 8/13/48
s 2
f 16/25/49 15/23/50 8/15/51 7/8/52
s 6
f 17/26/53 39/54/54 40/55/55 11/9/56
s 5
f 18/27/57 17/26/58 11/9/59 12/143/60
s 7
f 13/21/61 18/28/62 12/10/63 2/1/64
s 1
f 43/59/42 44/60/3 19/29/2 13/21/43
s 8
f 21/32/31 20/30/30 14/22/46 15/24/45
s 2
f 22/33/8 21/31/7 15/23/50 16/25/49
s 6
f 23/34/23 38/53/22 39/54/54 17/26/53
s 5
f 24/35/20 23/34/19 17/26/58 18/27/57
s 7
f 19/29/27 24/36/26 18/28/62 13/21/61
s 10
f 3/18/65 6/3/66 26/39/67 25/37/68
s 3
f 6/3/69 5/4/70 27/40/71 26/39/72
s 6
f 5/4/73 22/33/74 28/41/75 27/40/76
f 29/42/77 28/41/75 22/33/74 16/25/78
f 30/43/79 29/42/77 16/25/78 7/8/80
s 4
f 7/8/81 8/144/82 31/44/83 30/43/84
s 9
f 8/144/85 4/16/86 32/46/87 31/44/88
s 1
f 14/22/89 33/47/90 32/45/91 4/12/92
f 20/30/93 34/48/94 33/47/90 14/22/89
f 25/38/95 34/48/94 20/30/93 3/2/96
s 10
f 25/37/68 26/39/67 36/51/38 35/49/37
s 3
f 26/39/72 27/40/71 37/52/10 36/51/9
s 6
f 27/40/76 28/41/75 38/53/22 37/52/21
f 39/54/54 38/53/22 28/41/75 29/42/77
f 40/55/55 39/54/54 29/42/77 30/43/79
s 4
f 30/43/84 31/44/83 41/56/14 40/55/13
s 9
f 31/44/88 32/46/87 42/58/34 41/56/33
s 1
f 32/45/91 33/47/90 43/59/42 42/57/41
s off
f 45/61/97 46/62/98 47/63/99 48/64/100
s 1
f 35/50/4 44/60/3 34/48/94 25/38/95
s off
f 33/47/101 34/48/102 46/62/103 45/61/104
f 34/48/105 44/60/106 47/63/107 46/62/108
f 44/60/109 43/59/110 48/64/111 47/63/112
f 43/59/113 33/47/114 45/61/115 48/64/116
f 49/65/117 50/66/118 52/67/119 51/68/120
f 51/68/121 52/67/122 54/69/123 53/70/124
f 53/70/125 54/69/126 56/71/127 55/72/128
f 55/72/129 56/71/130 50/73/131 49/74/132
f 50/66/133 56/75/134 54/76/135 52/67/136
f 55/77/137 49/65/138 51/68/139 53/78/140
s 14
f 57/79/141 65/152/142 66/145/143 59/82/144
s 15
f 59/82/145 66/81/146 67/147/147 61/84/148
s 16
f 61/84/149 67/83/150 68/149/151 63/86/152
s 17
f 63/86/153 68/85/154 65/80/155 57/79/156
s off
f 58/87/157 64/88/158 62/89/159 60/146/160
f 63/86/161 57/79/162 59/82/163 61/84/164
s 14
f 66/145/143 65/152/142 58/87/165 60/146/166
s 15
f 67/147/147 66/81/146 60/90/167 62/148/168
s 16
f 68/149/151 67/83/150 62/91/169 64/150/170
s 17
f 65/80/155 68/85/154 64/92/171 58/151/172
s 18
f 69/93/173 85/94/174 86/95/175 81/96/176
s 19
f 71/97/177 88/98/178 89/99/179 73/153/180
s 20
f 82/158/181 91/160/182 92/103/183 75/104/184
s 21
f 75/104/185 92/103/186 85/105/187 69/106/188
s 22
f 70/107/189 76/108/190 83/109/191 84/110/192
s 23
f 75/111/193 69/93/194 81/96/195 82/112/196
f 78/113/197 77/114/198 71/97/199 73/115/200
s 20
f 73/100/201 89/155/202 90/156/203 78/117/204
s 22
f 80/118/205 79/119/206 74/120/207 72/121/208
s 18
f 77/114/209 87/122/210 88/98/211 71/97/212
s 23
f 82/112/196 81/96/195 77/114/198 78/113/197
s 20
f 78/117/204 90/156/203 91/102/182 82/101/181
s 22
f 84/110/192 83/109/191 79/119/206 80/118/205
s 18
f 81/96/176 86/95/175 87/122/210 77/114/209
f 94/123/213 95/124/214 70/107/215 84/110/216
f 93/125/217 94/123/213 84/110/216 80/118/218
f 100/126/219 93/125/217 80/118/218 72/121/220
s 19
f 99/127/221 100/126/222 72/121/223 74/154/224
s 20
f 98/129/225 99/162/226 74/128/227 79/130/228
f 97/159/229 98/129/225 79/130/228 83/157/230
f 96/133/231 97/131/229 83/132/230 76/134/232
s 21
f 95/135/233 96/133/234 76/134/235 70/136/236
s 18
f 87/122/210 86/95/175 94/123/213 93/125/217
f 86/95/175 85/94/174 95/124/214 94/123/213
s 21
f 85/105/187 92/103/186 96/133/234 95/135/233
s 20
f 92/103/183 91/160/182 97/131/229 96/133/231
s off
f 102/137/237 101/138/238 103/139/239 104/140/240
s 20
f 90/116/203 89/99/202 99/127/226 98/161/225
s 19
f 89/99/179 88/98/178 100/126/222 99/127/221
s 18
f 88/98/211 87/122/210 93/125/217 100/126/219
s off
f 91/102/241 90/156/242 101/138/243 102/137/244
f 90/116/245 98/161/246 103/139/247 101/138/248
f 98/129/249 97/159/250 104/140/251 103/139/252
f 97/131/253 91/160/254 102/137/255 104/140/256
