# This file uses centimeters as units for non-parametric coordinates.

mtllib Bowl.mtl
g default
v -0.176224 0.861580 -3.993376
v -0.253885 0.861580 -3.993376
v -0.308799 0.861580 -3.938462
v -0.308799 0.861580 -3.860801
v -0.253885 0.861580 -3.805887
v -0.176224 0.861580 -3.805887
v -0.121310 0.861580 -3.860801
v -0.121310 0.861580 -3.938462
v -0.165219 0.952279 -4.019946
v -0.264890 0.952279 -4.019946
v -0.335369 0.952279 -3.949467
v -0.335369 0.952279 -3.849796
v -0.264890 0.952279 -3.779317
v -0.165219 0.952279 -3.779317
v -0.094740 0.952279 -3.849796
v -0.094740 0.952279 -3.949467
v -0.215055 0.861580 -3.899631
v -0.169200 0.952279 -4.010335
v -0.260909 0.952279 -4.010335
v -0.325758 0.952279 -3.945486
v -0.325758 0.952279 -3.853777
v -0.260909 0.952279 -3.788928
v -0.169200 0.952279 -3.788928
v -0.104351 0.952279 -3.853777
v -0.104351 0.952279 -3.945486
v -0.177412 0.870164 -3.990509
v -0.252697 0.870164 -3.990509
v -0.305932 0.870164 -3.937274
v -0.305932 0.870164 -3.861989
v -0.252697 0.870164 -3.808754
v -0.177412 0.870164 -3.808754
v -0.124177 0.870164 -3.861989
v -0.124177 0.870164 -3.937274
v -0.215055 0.870164 -3.899632
v -0.166989 0.906749 -4.015672
v -0.263120 0.906749 -4.015672
v -0.331095 0.906749 -3.947697
v -0.331095 0.906749 -3.851566
v -0.263120 0.906749 -3.783591
v -0.166989 0.906749 -3.783591
v -0.099014 0.906749 -3.851566
v -0.099014 0.906749 -3.947697
v -0.169791 0.911402 -4.008908
v -0.260318 0.911402 -4.008908
v -0.324331 0.911402 -3.944895
v -0.324331 0.911402 -3.854368
v -0.260318 0.911402 -3.790355
v -0.169791 0.911402 -3.790355
v -0.105778 0.911402 -3.854368
v -0.105778 0.911402 -3.944895
vt 0.189120 0.204085
vt 0.078122 0.279534
vt 0.052985 0.411373
vt 0.128435 0.522370
vt 0.260273 0.547507
vt 0.371270 0.472057
vt 0.396406 0.340219
vt 0.320958 0.229222
vt 0.520022 0.057619
vt 0.349166 0.008710
vt 0.172050 0.000000
vt 0.000000 0.028065
vt 0.973465 0.575151
vt 0.908457 0.409691
vt 0.807202 0.263426
vt 0.675411 0.144029
vt 0.224696 0.375796
vt 0.000000 0.000002
vt 0.000000 0.000002
vt 0.000000 0.000002
vt 0.000000 0.000002
vt 0.000000 0.000002
vt 0.000000 0.000002
vt 0.000000 0.000002
vt 0.000000 0.000002
vt 0.000000 0.000002
vt 0.000000 0.000002
vt 0.000000 0.000002
vt 0.000000 0.000002
vt 0.000000 0.000002
vt 0.000000 0.000002
vt 0.000000 0.000002
vt 0.000000 0.000002
vt 0.000000 0.000002
vt 0.489887 0.130850
vt 0.336287 0.086748
vt 0.176223 0.078425
vt 0.919779 0.758293
vt 0.897157 0.596458
vt 0.838780 0.447284
vt 0.747849 0.315856
vt 0.629480 0.208550
vt 0.000000 0.000002
vt 0.000000 0.000002
vt 0.000000 0.000002
vt 0.000000 0.000002
vt 0.000000 0.000002
vt 0.000000 0.000002
vt 0.000000 0.000002
vt 0.000000 0.000002
vt 0.000000 0.000002
vt 0.014897 0.106175
vt 0.390210 0.451925
vt 1.000000 0.748850
vt 0.402721 0.464835
vt 0.000000 0.000002
vt 0.690945 0.762249
vt 0.543583 0.820596
vt 0.753887 0.616791
vt 0.695541 0.469430
vt 0.550083 0.406487
vt 0.339778 0.610293
vt 0.398125 0.757654
vt 0.703456 0.775159
vt 0.543302 0.838572
vt 0.771863 0.617073
vt 0.708450 0.456919
vt 0.550365 0.388512
vt 0.321803 0.610011
vt 0.385217 0.770164
vt 0.000000 0.000002
vt 0.000000 0.000002
vt 0.000000 0.000002
vt 0.000000 0.000002
vt 0.000000 0.000002
vt 0.000000 0.000002
vt 0.000000 0.000002
vt 0.000000 0.000002
vt 0.000000 0.000002
vt 0.577571 0.280063
vt 0.455521 0.212257
vt 0.681090 0.373717
vt 0.760692 0.488292
vt 0.812263 0.617573
vt 0.047458 0.190852
vt 0.830527 0.752592
vt 0.182239 0.166476
vt 0.321316 0.173793
vn -0.000000 -0.093454 -0.995624
vn -0.000000 -0.093454 -0.995624
vn -0.000000 -0.093454 -0.995624
vn -0.000000 -0.093454 -0.995624
vn -0.704012 -0.093454 -0.704012
vn -0.704012 -0.093454 -0.704012
vn -0.704012 -0.093454 -0.704012
vn -0.704012 -0.093454 -0.704012
vn -0.995624 -0.093454 0.000000
vn -0.995624 -0.093454 0.000000
vn -0.995624 -0.093454 0.000000
vn -0.995624 -0.093454 0.000000
vn -0.704012 -0.093453 0.704012
vn -0.704012 -0.093453 0.704012
vn -0.704012 -0.093453 0.704012
vn -0.704012 -0.093453 0.704012
vn 0.000000 -0.093453 0.995624
vn 0.000000 -0.093453 0.995624
vn 0.000000 -0.093453 0.995624
vn 0.000000 -0.093453 0.995624
vn 0.704012 -0.093453 0.704012
vn 0.704012 -0.093453 0.704012
vn 0.704012 -0.093453 0.704012
vn 0.704012 -0.093453 0.704012
vn 0.995624 -0.093453 0.000000
vn 0.995624 -0.093453 0.000000
vn 0.995624 -0.093453 0.000000
vn 0.995624 -0.093453 0.000000
vn 0.704012 -0.093454 -0.704012
vn 0.704012 -0.093454 -0.704012
vn 0.704012 -0.093454 -0.704012
vn 0.704012 -0.093454 -0.704012
vn 0.000000 -1.000000 0.000000
vn -0.000000 -1.000000 -0.000000
vn 0.000000 -1.000000 0.000000
vn 0.000000 -1.000000 0.000000
vn 0.000000 -1.000000 0.000000
vn -0.000000 -1.000000 -0.000000
vn 0.000000 -1.000000 0.000000
vn 0.000000 -1.000000 0.000000
vn 0.000000 -1.000000 0.000000
vn 0.000000 1.000000 0.000000
vn 0.000000 1.000000 0.000000
vn 0.000000 1.000000 0.000000
vn 0.000000 1.000000 0.000000
vn 0.000000 1.000000 0.000000
vn 0.000000 1.000000 0.000000
vn 0.000000 1.000000 0.000000
vn 0.000000 1.000000 0.000000
vn -0.000000 1.000000 -0.000000
vn -0.000000 1.000000 -0.000000
vn -0.000000 1.000000 -0.000000
vn -0.000000 1.000000 -0.000000
vn 0.000000 1.000000 0.000000
vn 0.000000 1.000000 0.000000
vn 0.000000 1.000000 0.000000
vn 0.000000 1.000000 0.000000
vn -0.000000 1.000000 -0.000000
vn -0.000000 1.000000 -0.000000
vn -0.000000 1.000000 -0.000000
vn -0.000000 1.000000 -0.000000
vn 0.000000 1.000000 0.000000
vn 0.000000 1.000000 0.000000
vn 0.000000 1.000000 0.000000
vn 0.000000 1.000000 0.000000
vn -0.000000 1.000000 -0.000000
vn -0.000000 1.000000 -0.000000
vn -0.000000 1.000000 -0.000000
vn -0.000000 1.000000 -0.000000
vn 0.000000 1.000000 0.000000
vn 0.000000 1.000000 0.000000
vn 0.000000 1.000000 0.000000
vn 0.000000 1.000000 0.000000
vn 0.000000 0.407442 0.913231
vn 0.000000 0.407442 0.913231
vn 0.000000 0.407442 0.913231
vn 0.000000 0.407442 0.913231
vn 0.645752 0.407442 0.645752
vn 0.645752 0.407442 0.645752
vn 0.645752 0.407442 0.645752
vn 0.645752 0.407442 0.645752
vn 0.913231 0.407441 -0.000000
vn 0.913231 0.407442 -0.000000
vn 0.913231 0.407441 -0.000000
vn 0.913231 0.407442 -0.000000
vn 0.645752 0.407442 -0.645752
vn 0.645752 0.407442 -0.645752
vn 0.645752 0.407442 -0.645752
vn 0.645752 0.407442 -0.645752
vn -0.000001 0.407442 -0.913231
vn -0.000001 0.407442 -0.913231
vn -0.000001 0.407442 -0.913231
vn -0.000001 0.407442 -0.913231
vn -0.645751 0.407442 -0.645752
vn -0.645752 0.407442 -0.645752
vn -0.645751 0.407442 -0.645752
vn -0.645752 0.407442 -0.645752
vn -0.913231 0.407442 -0.000000
vn -0.913231 0.407442 -0.000000
vn -0.913231 0.407442 -0.000000
vn -0.913231 0.407442 -0.000000
vn -0.645752 0.407441 0.645752
vn -0.645752 0.407441 0.645752
vn -0.645752 0.407441 0.645752
vn -0.645752 0.407441 0.645752
vn -0.000000 1.000000 -0.000000
vn -0.000000 1.000000 -0.000000
vn -0.000000 1.000000 -0.000000
vn -0.000000 1.000000 -0.000000
vn -0.000000 1.000000 -0.000000
vn -0.000000 1.000000 -0.000000
vn -0.000000 1.000000 0.000000
vn -0.000000 1.000000 0.000000
vn -0.000000 1.000000 0.000000
vn -0.000000 1.000000 0.000000
vn -0.000000 1.000000 0.000000
vn -0.000000 1.000000 0.000000
vn 0.000000 1.000000 0.000000
vn 0.000000 1.000000 0.000000
vn 0.000000 1.000000 0.000000
vn 0.000000 1.000000 0.000000
vn 0.000000 1.000000 0.000000
vn 0.000000 1.000000 0.000000
vn 0.000000 1.000000 -0.000000
vn 0.000000 1.000000 -0.000000
vn 0.000000 1.000000 -0.000000
vn 0.000000 1.000000 -0.000000
vn 0.000000 1.000000 -0.000000
vn 0.000000 1.000000 -0.000000
vn 0.000001 -0.442618 -0.896710
vn 0.000001 -0.442618 -0.896710
vn 0.000001 -0.442618 -0.896710
vn 0.000001 -0.442618 -0.896710
vn -0.634070 -0.442618 -0.634069
vn -0.634070 -0.442618 -0.634069
vn -0.634070 -0.442618 -0.634069
vn -0.634070 -0.442618 -0.634069
vn -0.896710 -0.442619 -0.000000
vn -0.896710 -0.442619 -0.000000
vn -0.896710 -0.442619 -0.000000
vn -0.896710 -0.442619 -0.000000
vn -0.634070 -0.442618 0.634070
vn -0.634070 -0.442618 0.634070
vn -0.634070 -0.442618 0.634070
vn -0.634070 -0.442618 0.634070
vn 0.000000 -0.442618 0.896710
vn 0.000000 -0.442618 0.896710
vn 0.000000 -0.442618 0.896710
vn 0.000000 -0.442618 0.896710
vn 0.634070 -0.442618 0.634070
vn 0.634070 -0.442618 0.634070
vn 0.634070 -0.442618 0.634070
vn 0.634070 -0.442618 0.634070
vn 0.896710 -0.442618 0.000000
vn 0.896710 -0.442618 -0.000000
vn 0.896710 -0.442618 0.000000
vn 0.896710 -0.442618 0.000000
vn 0.634070 -0.442618 -0.634070
vn 0.634070 -0.442618 -0.634070
vn 0.634070 -0.442618 -0.634070
vn 0.634070 -0.442618 -0.634070
vn -0.000000 0.034896 0.999391
vn -0.000000 0.034896 0.999391
vn -0.000000 0.034896 0.999391
vn -0.000000 0.034896 0.999391
vn 0.706676 0.034896 0.706676
vn 0.706676 0.034896 0.706676
vn 0.706676 0.034896 0.706676
vn 0.706676 0.034896 0.706676
vn 0.999391 0.034896 -0.000000
vn 0.999391 0.034896 -0.000000
vn 0.999391 0.034896 -0.000000
vn 0.999391 0.034896 -0.000000
vn 0.706676 0.034896 -0.706676
vn 0.706676 0.034896 -0.706676
vn 0.706676 0.034896 -0.706676
vn 0.706676 0.034896 -0.706676
vn -0.000001 0.034897 -0.999391
vn -0.000001 0.034897 -0.999391
vn -0.000001 0.034897 -0.999391
vn -0.000000 0.034897 -0.999391
vn -0.706676 0.034897 -0.706677
vn -0.706676 0.034897 -0.706676
vn -0.706676 0.034897 -0.706676
vn -0.706676 0.034897 -0.706677
vn -0.999391 0.034896 0.000000
vn -0.999391 0.034896 0.000000
vn -0.999391 0.034896 0.000000
vn -0.999391 0.034896 0.000000
vn -0.706676 0.034896 0.706676
vn -0.706676 0.034896 0.706676
vn -0.706676 0.034896 0.706676
vn -0.706676 0.034896 0.706676
s off
g pCylinder2
usemtl initialShadingGroup
f 35/35/1 36/36/2 10/10/3 9/9/4
f 36/36/5 37/37/6 11/11/7 10/10/8
f 37/37/9 38/52/10 12/12/11 11/11/12
f 38/38/13 39/39/14 13/13/15 12/54/16
f 39/39/17 40/40/18 14/14/19 13/13/20
f 40/40/21 41/41/22 15/15/23 14/14/24
f 41/41/25 42/42/26 16/16/27 15/15/28
f 42/42/29 35/35/30 9/9/31 16/16/32
s 1
f 2/2/33 1/1/34 17/17/35
f 3/3/36 2/2/33 17/17/35
f 4/4/37 3/3/36 17/17/35
f 5/5/38 4/4/37 17/17/35
f 6/6/39 5/5/38 17/17/35
f 7/7/40 6/6/39 17/17/35
f 8/8/41 7/7/40 17/17/35
f 1/1/34 8/8/41 17/17/35
s off
f 9/65/42 10/70/43 19/63/44 18/58/45
f 10/70/46 11/69/47 20/62/48 19/63/49
f 11/69/50 12/53/51 21/55/52 20/62/53
f 12/53/54 13/68/55 22/61/56 21/55/57
f 13/68/58 14/67/59 23/60/60 22/61/61
f 14/67/62 15/66/63 24/59/64 23/60/65
f 15/66/66 16/64/67 25/57/68 24/59/69
f 16/64/70 9/65/71 18/58/72 25/57/73
f 43/43/74 44/44/75 27/26/76 26/27/77
f 44/44/78 45/45/79 28/28/80 27/26/81
f 45/45/82 46/51/83 29/29/84 28/28/85
f 46/46/86 47/47/87 30/30/88 29/77/89
f 47/47/90 48/48/91 31/31/92 30/30/93
f 48/48/94 49/49/95 32/32/96 31/31/97
f 49/49/98 50/50/99 33/33/100 32/32/101
f 50/50/102 43/43/103 26/27/104 33/33/105
f 26/72/106 27/79/107 34/34/108
f 27/79/109 28/78/110 34/34/111
f 28/78/112 29/76/113 34/34/114
f 29/76/115 30/75/116 34/34/117
f 30/75/118 31/74/119 34/34/120
f 31/74/121 32/73/122 34/34/123
f 32/73/124 33/71/125 34/34/126
f 33/71/127 26/72/128 34/34/129
f 1/81/130 2/88/131 36/36/132 35/35/133
f 2/88/134 3/87/135 37/37/136 36/36/137
f 3/87/138 4/85/139 38/52/140 37/37/141
f 4/86/142 5/84/143 39/39/144 38/38/145
f 5/84/146 6/83/147 40/40/148 39/39/149
f 6/83/150 7/82/151 41/41/152 40/40/153
f 7/82/154 8/80/155 42/42/156 41/41/157
f 8/80/158 1/81/159 35/35/160 42/42/161
f 18/19/162 19/18/163 44/44/164 43/43/165
f 19/18/166 20/20/167 45/45/168 44/44/169
f 20/20/170 21/56/171 46/51/172 45/45/173
f 21/21/174 22/22/175 47/47/176 46/46/177
f 22/22/178 23/23/179 48/48/180 47/47/181
f 23/23/182 24/24/183 49/49/184 48/48/185
f 24/24/186 25/25/187 50/50/188 49/49/189
f 25/25/190 18/19/191 43/43/192 50/50/193
