# This file uses centimeters as units for non-parametric coordinates.

mtllib Cup.mtl
g default
v -0.196361 0.866415 -4.215448
v -0.233748 0.866415 -4.215448
v -0.260185 0.866415 -4.189011
v -0.260185 0.866415 -4.151624
v -0.233748 0.866415 -4.125187
v -0.196361 0.866415 -4.125187
v -0.169924 0.866415 -4.151624
v -0.169924 0.866415 -4.189011
v -0.191063 0.981602 -4.228239
v -0.239046 0.981602 -4.228239
v -0.272976 0.981602 -4.194309
v -0.272976 0.981602 -4.146326
v -0.239046 0.981602 -4.112396
v -0.191063 0.981602 -4.112396
v -0.157133 0.981602 -4.146326
v -0.157133 0.981602 -4.194309
v -0.215055 0.866415 -4.170318
v -0.192979 0.981602 -4.223612
v -0.237130 0.981602 -4.223612
v -0.268349 0.981602 -4.192393
v -0.268349 0.981602 -4.148242
v -0.237130 0.981602 -4.117023
v -0.192979 0.981602 -4.117023
v -0.161760 0.981602 -4.148242
v -0.161760 0.981602 -4.192393
v -0.196933 0.870548 -4.214067
v -0.233176 0.870548 -4.214067
v -0.258804 0.870548 -4.188439
v -0.258804 0.870548 -4.152196
v -0.233176 0.870548 -4.126568
v -0.196933 0.870548 -4.126568
v -0.171305 0.870548 -4.152196
v -0.171305 0.870548 -4.188439
v -0.215055 0.870548 -4.170318
v -0.207650 0.895280 -4.246398
v -0.207549 0.923747 -4.261510
v -0.208239 0.954558 -4.252079
v -0.208490 0.886576 -4.215667
v -0.207832 0.901116 -4.242971
v -0.207750 0.924112 -4.255179
v -0.208307 0.949002 -4.247560
v -0.208504 0.893484 -4.218089
v -0.216529 0.896319 -4.245721
v -0.216431 0.923775 -4.260295
v -0.217097 0.953492 -4.251199
v -0.217325 0.886462 -4.215941
v -0.216679 0.901340 -4.242966
v -0.216598 0.924040 -4.255016
v -0.217148 0.948609 -4.247496
v -0.217343 0.893807 -4.218404
v -0.209284 0.968990 -4.224360
v -0.209161 0.961285 -4.225131
v -0.217991 0.960737 -4.225341
v -0.218121 0.968884 -4.224556
vt 0.418154 0.750042
vt 0.470026 0.827235
vt 0.561290 0.845140
vt 0.638483 0.793268
vt 0.656388 0.702004
vt 0.604515 0.624811
vt 0.513252 0.606906
vt 0.436059 0.658778
vt 0.176726 0.732109
vt 0.283885 0.679533
vt 0.396835 0.718128
vt 0.449411 0.825287
vt 0.410816 0.938237
vt 0.303657 0.990813
vt 0.190707 0.952218
vt 0.138130 0.845059
vt 0.537271 0.726023
vt 0.150563 0.844269
vt 0.186076 0.740342
vt 0.198940 0.942868
vt 0.704490 0.021603
vt 0.302867 0.978381
vt 0.401466 0.930004
vt 0.436979 0.826077
vt 0.388602 0.727478
vt 0.284675 0.691965
vt 0.586236 0.005373
vt 0.820769 0.048555
vt 0.934104 0.086004
vt 0.113286 0.049018
vt 0.229530 0.021914
vt 0.347762 0.005529
vt 0.466996 0.000000
vt 0.606416 0.319465
vt 0.715387 0.333155
vt 0.671067 0.607037
vt 0.581612 0.595799
vt 0.823114 0.354531
vt 0.759501 0.624585
vt 0.169086 0.342355
vt 0.277533 0.325003
vt 0.311629 0.600345
vt 0.222603 0.614590
vt 0.386938 0.315379
vt 0.401440 0.592444
vt 0.860728 0.831640
vt 0.777433 0.866142
vt 0.777433 0.748345
vt 0.694137 0.831640
vt 0.895230 0.748345
vt 0.659635 0.748345
vt 0.860728 0.665050
vt 0.694138 0.665050
vt 0.777433 0.630548
vt 0.496750 0.313529
vt 0.491585 0.590926
vt 0.062140 0.367346
vt 0.134810 0.635105
vt 0.846469 0.648355
vt 0.302867 0.978381
vt 0.929056 0.383486
vt 0.000000 0.086615
vt 0.303657 0.990813
vt 0.831141 0.355606
vt 0.652232 0.305427
vt 0.560093 0.292781
vt 0.742833 0.326427
vt 0.103317 0.356082
vt 0.191585 0.326788
vt 0.282159 0.305669
vt 0.374281 0.292903
vt 0.467185 0.288595
vt 0.061644 0.673468
vt 0.066984 0.780104
vt 0.033335 0.781955
vt 0.028815 0.675611
vt 0.072558 0.886610
vt 0.039453 0.888251
vt 0.057462 0.560369
vt 0.022537 0.561286
vt 0.012594 0.781865
vt 0.006484 0.681337
vt 0.015541 0.883236
vt 0.000000 0.579711
vt 0.114427 0.678047
vt 0.117521 0.776493
vt 0.084243 0.778110
vt 0.080910 0.677755
vt 0.125115 0.874888
vt 0.092154 0.878597
vt 0.116011 0.578852
vt 0.082399 0.578247
vt 0.045452 1.000000
vt 0.019037 0.983961
vt 0.138252 0.971545
vt 0.104966 0.976146
vt 0.080336 0.997382
vn 0.000000 -0.110369 -0.993891
vn 0.000000 -0.110369 -0.993891
vn 0.000000 -0.110369 -0.993891
vn 0.000000 -0.110369 -0.993891
vn -0.702796 -0.110366 -0.702778
vn -0.702796 -0.110366 -0.702778
vn -0.702796 -0.110366 -0.702778
vn -0.702796 -0.110366 -0.702778
vn -0.993891 -0.110368 0.000000
vn -0.993891 -0.110368 0.000000
vn -0.993891 -0.110368 0.000000
vn -0.993891 -0.110368 0.000000
vn -0.702794 -0.110367 0.702780
vn -0.702794 -0.110367 0.702780
vn -0.702794 -0.110367 0.702780
vn -0.702794 -0.110367 0.702780
vn 0.000000 -0.110369 0.993891
vn 0.000000 -0.110369 0.993891
vn 0.000000 -0.110369 0.993891
vn 0.000000 -0.110369 0.993891
vn 0.702793 -0.110367 0.702781
vn 0.702793 -0.110367 0.702781
vn 0.702793 -0.110367 0.702781
vn 0.702793 -0.110367 0.702781
vn 0.993891 -0.110368 0.000000
vn 0.993891 -0.110368 0.000000
vn 0.993891 -0.110368 0.000000
vn 0.993891 -0.110368 0.000000
vn 0.702797 -0.110366 -0.702778
vn 0.702797 -0.110366 -0.702778
vn 0.702797 -0.110366 -0.702778
vn 0.702797 -0.110367 -0.702778
vn 0.000000 -1.000000 0.000000
vn 0.000000 -1.000000 0.000001
vn 0.000000 -1.000000 0.000000
vn 0.000000 -1.000000 0.000000
vn 0.000000 -1.000000 0.000000
vn 0.000000 -1.000000 0.000000
vn 0.000000 -1.000000 0.000000
vn 0.000000 -1.000000 0.000000
vn 0.000000 -1.000000 0.000001
vn 0.000000 1.000000 0.000001
vn 0.000000 1.000000 0.000001
vn 0.000000 1.000000 0.000001
vn 0.000000 1.000000 0.000001
vn 0.000000 1.000000 0.000002
vn 0.000000 1.000000 0.000002
vn 0.000000 1.000000 0.000002
vn 0.000000 1.000000 0.000002
vn 0.000000 1.000000 0.000000
vn 0.000000 1.000000 0.000000
vn 0.000000 1.000000 0.000000
vn 0.000000 1.000000 0.000000
vn 0.000000 1.000000 -0.000002
vn 0.000000 1.000000 -0.000002
vn 0.000000 1.000000 -0.000002
vn 0.000000 1.000000 -0.000002
vn 0.000000 1.000000 -0.000002
vn 0.000000 1.000000 -0.000002
vn 0.000000 1.000000 -0.000002
vn 0.000000 1.000000 -0.000002
vn 0.000000 1.000000 0.000002
vn 0.000000 1.000000 0.000002
vn 0.000000 1.000000 0.000002
vn 0.000000 1.000000 0.000002
vn 0.000000 1.000000 0.000000
vn 0.000000 1.000000 0.000000
vn 0.000000 1.000000 0.000000
vn 0.000000 1.000000 0.000000
vn 0.000000 1.000000 0.000002
vn 0.000000 1.000000 0.000002
vn 0.000000 1.000000 0.000002
vn 0.000000 1.000000 0.000002
vn 0.000000 0.085632 0.996327
vn 0.000000 0.085632 0.996327
vn 0.000000 0.085632 0.996327
vn 0.000000 0.085632 0.996327
vn 0.704503 0.085632 0.704516
vn 0.704503 0.085632 0.704516
vn 0.704503 0.085632 0.704516
vn 0.704503 0.085632 0.704516
vn 0.996327 0.085629 0.000000
vn 0.996327 0.085629 0.000000
vn 0.996327 0.085629 0.000000
vn 0.996327 0.085629 0.000000
vn 0.704506 0.085631 -0.704513
vn 0.704506 0.085631 -0.704513
vn 0.704506 0.085631 -0.704513
vn 0.704506 0.085631 -0.704513
vn 0.000000 0.085632 -0.996327
vn 0.000000 0.085632 -0.996327
vn 0.000000 0.085632 -0.996327
vn 0.000000 0.085632 -0.996327
vn -0.704506 0.085631 -0.704513
vn -0.704506 0.085631 -0.704513
vn -0.704506 0.085631 -0.704513
vn -0.704506 0.085631 -0.704513
vn -0.996327 0.085629 0.000000
vn -0.996327 0.085629 0.000000
vn -0.996327 0.085629 0.000000
vn -0.996327 0.085629 0.000000
vn -0.704502 0.085632 0.704517
vn -0.704502 0.085632 0.704517
vn -0.704502 0.085632 0.704517
vn -0.704502 0.085632 0.704517
vn 0.000000 1.000000 0.000000
vn 0.000000 1.000000 0.000000
vn 0.000000 1.000000 0.000000
vn 0.000000 1.000000 -0.000002
vn 0.000000 1.000000 -0.000002
vn 0.000000 1.000000 -0.000002
vn 0.000000 1.000000 0.000000
vn 0.000000 1.000000 0.000000
vn 0.000000 1.000000 0.000000
vn 0.000000 1.000000 0.000005
vn 0.000000 1.000000 0.000005
vn 0.000000 1.000000 0.000005
vn 0.000000 1.000000 0.000000
vn 0.000000 1.000000 0.000000
vn 0.000000 1.000000 0.000000
vn 0.000000 1.000000 0.000000
vn 0.000000 1.000000 0.000000
vn 0.000000 1.000000 0.000000
vn 0.000000 1.000000 0.000005
vn 0.000000 1.000000 0.000005
vn 0.000000 1.000000 0.000005
vn 0.000000 1.000000 0.000000
vn 0.000000 1.000000 0.000000
vn 0.000000 1.000000 0.000000
vn -0.121367 -0.465075 -0.876912
vn -0.121367 -0.465075 -0.876912
vn -0.121367 -0.465075 -0.876913
vn -0.121367 -0.465075 -0.876913
vn -0.128870 0.287620 -0.949035
vn -0.128870 0.287620 -0.949035
vn -0.128870 0.287620 -0.949035
vn -0.128870 0.287620 -0.949035
vn -0.056525 -0.954083 -0.294163
vn -0.056525 -0.954082 -0.294162
vn -0.056525 -0.954082 -0.294162
vn -0.056525 -0.954082 -0.294162
vn 0.999437 0.012894 0.030975
vn 0.999437 0.012894 0.030975
vn 0.999437 0.012894 0.030975
vn 0.999437 0.012894 0.030975
vn 0.999437 0.012894 0.030974
vn 0.999437 0.012894 0.030974
vn 0.999437 0.012894 0.030974
vn 0.999437 0.012894 0.030974
vn 0.999437 0.012893 0.030974
vn 0.999437 0.012893 0.030974
vn 0.999437 0.012893 0.030974
vn 0.999437 0.012893 0.030974
vn 0.012389 0.468809 0.883212
vn 0.012389 0.468809 0.883212
vn 0.012389 0.468809 0.883212
vn 0.012389 0.468809 0.883212
vn 0.019937 -0.292234 0.956139
vn 0.019937 -0.292234 0.956139
vn 0.019937 -0.292234 0.956139
vn 0.019937 -0.292234 0.956139
vn 0.024382 0.955571 0.293751
vn 0.024382 0.955571 0.293751
vn 0.024382 0.955571 0.293751
vn 0.024382 0.955571 0.293751
vn -0.999437 -0.012895 -0.030966
vn -0.999437 -0.012895 -0.030966
vn -0.999437 -0.012895 -0.030966
vn -0.999437 -0.012895 -0.030966
vn -0.999437 -0.012891 -0.030967
vn -0.999437 -0.012891 -0.030967
vn -0.999437 -0.012891 -0.030967
vn -0.999437 -0.012891 -0.030967
vn -0.999437 -0.012890 -0.030972
vn -0.999437 -0.012890 -0.030972
vn -0.999437 -0.012890 -0.030972
vn -0.999437 -0.012890 -0.030972
vn 0.999437 0.012892 0.030972
vn 0.999437 0.012892 0.030972
vn 0.999437 0.012892 0.030972
vn 0.999437 0.012892 0.030972
vn 0.042664 -0.875646 0.481065
vn 0.042664 -0.875646 0.481065
vn 0.042664 -0.875646 0.481065
vn 0.042664 -0.875646 0.481065
vn -0.076448 0.872924 -0.481830
vn -0.076448 0.872924 -0.481830
vn -0.076448 0.872924 -0.481830
vn -0.076448 0.872924 -0.481830
vn -0.999437 -0.012898 -0.030969
vn -0.999437 -0.012898 -0.030969
vn -0.999437 -0.012898 -0.030969
vn -0.999437 -0.012898 -0.030969
s off
g pCylinder9
usemtl initialShadingGroup
f 1/66/1 2/72/2 10/33/3 9/27/4
f 2/72/5 3/71/6 11/32/7 10/33/8
f 3/71/9 4/70/10 12/31/11 11/32/12
f 4/70/13 5/69/14 13/30/15 12/31/16
f 5/69/17 6/68/18 14/62/19 13/30/20
f 6/64/21 7/67/22 15/28/23 14/29/24
f 7/67/25 8/65/26 16/21/27 15/28/28
f 8/65/29 1/66/30 9/27/31 16/21/32
s 1
f 2/2/33 1/1/34 17/17/35
f 3/3/36 2/2/33 17/17/35
f 4/4/37 3/3/36 17/17/35
f 5/5/38 4/4/37 17/17/35
f 6/6/39 5/5/38 17/17/35
f 7/7/40 6/6/39 17/17/35
f 8/8/41 7/7/40 17/17/35
f 1/1/34 8/8/41 17/17/35
s off
f 9/9/42 10/10/43 19/26/44 18/19/45
f 10/10/46 11/11/47 20/25/48 19/26/49
f 11/11/50 12/12/51 21/24/52 20/25/53
f 12/12/54 13/13/55 22/23/56 21/24/57
f 13/13/58 14/63/59 23/60/60 22/23/61
f 14/14/62 15/15/63 24/20/64 23/22/65
f 15/15/66 16/16/67 25/18/68 24/20/69
f 16/16/70 9/9/71 18/19/72 25/18/73
f 18/44/74 19/55/75 27/56/76 26/45/77
f 19/55/78 20/34/79 28/37/80 27/56/81
f 20/34/82 21/35/83 29/36/84 28/37/85
f 21/35/86 22/38/87 30/39/88 29/36/89
f 22/38/90 23/61/91 31/59/92 30/39/93
f 23/57/94 24/40/95 32/43/96 31/58/97
f 24/40/98 25/41/99 33/42/100 32/43/101
f 25/41/102 18/44/103 26/45/104 33/42/105
f 26/46/106 27/47/107 34/48/108
f 27/47/109 28/49/110 34/48/111
f 28/49/112 29/51/113 34/48/114
f 29/51/115 30/53/116 34/48/117
f 30/53/118 31/54/119 34/48/120
f 31/54/121 32/52/122 34/48/123
f 32/52/124 33/50/125 34/48/126
f 33/50/127 26/46/128 34/48/129
f 43/73/130 44/74/131 36/75/132 35/76/133
f 44/74/134 45/77/135 37/78/136 36/75/137
f 46/79/138 43/73/139 35/76/140 38/80/141
f 35/76/142 36/75/143 40/81/144 39/82/145
f 36/75/146 37/78/147 41/83/148 40/81/149
f 38/80/150 35/76/151 39/82/152 42/84/153
f 39/85/154 40/86/155 48/87/156 47/88/157
f 40/86/158 41/89/159 49/90/160 48/87/161
f 42/91/162 39/85/163 47/88/164 50/92/165
f 45/77/166 44/74/167 48/87/168 49/90/169
f 44/74/170 43/73/171 47/88/172 48/87/173
f 43/73/174 46/79/175 50/92/176 47/88/177
f 41/83/178 37/78/179 51/93/180 52/94/181
f 49/90/182 41/89/183 52/95/184 53/96/185
f 37/78/186 45/77/187 54/97/188 51/93/189
f 45/77/190 49/90/191 53/96/192 54/97/193
