# This file uses centimeters as units for non-parametric coordinates.

mtllib Pan.mtl
g default
v -0.230228 0.895427 -4.637618
v -0.205673 0.895427 -4.637618
v -0.230228 0.905389 -4.636746
v -0.205673 0.905389 -4.636746
v -0.230228 0.913348 -4.727719
v -0.205673 0.913348 -4.727719
v -0.205673 0.903386 -4.728591
v -0.230228 0.903386 -4.728591
v -0.234970 0.915272 -4.727551
v -0.200930 0.915272 -4.727551
v -0.197816 0.924495 -4.818413
v -0.238084 0.924495 -4.818413
v -0.197816 0.908158 -4.819842
v -0.238084 0.908158 -4.819842
v -0.200930 0.901462 -4.728759
v -0.234970 0.901462 -4.728759
v -0.170328 0.860164 -4.622457
v -0.259781 0.860164 -4.622457
v -0.323033 0.860164 -4.559204
v -0.323033 0.860164 -4.469752
v -0.259781 0.860164 -4.406499
v -0.170328 0.860164 -4.406500
v -0.107076 0.860164 -4.469752
v -0.107076 0.860164 -4.559205
v -0.157652 0.920934 -4.653060
v -0.272457 0.920934 -4.653060
v -0.353637 0.920934 -4.571881
v -0.353636 0.920934 -4.457076
v -0.272457 0.920934 -4.375896
v -0.157652 0.920934 -4.375896
v -0.076473 0.920934 -4.457076
v -0.076473 0.920934 -4.571881
v -0.215055 0.860164 -4.514478
v -0.162237 0.920934 -4.641990
v -0.267872 0.920934 -4.641990
v -0.342566 0.920934 -4.567296
v -0.342566 0.920934 -4.461661
v -0.267872 0.920934 -4.386966
v -0.162237 0.920934 -4.386966
v -0.087543 0.920934 -4.461661
v -0.087543 0.920934 -4.567296
v -0.171696 0.870052 -4.619154
v -0.258413 0.870052 -4.619154
v -0.319730 0.870052 -4.557837
v -0.319730 0.870052 -4.471120
v -0.258413 0.870052 -4.409802
v -0.171696 0.870052 -4.409802
v -0.110379 0.870052 -4.471120
v -0.110379 0.870052 -4.557837
v -0.215055 0.870052 -4.514478
vt 0.790510 0.000008
vt 0.862932 0.000008
vt 0.806765 0.000008
vt 0.846677 0.000008
vt 0.655993 0.153734
vt 0.721439 0.152755
vt 0.629353 0.152855
vt 0.748042 0.151079
vt 0.164217 0.003268
vt 0.124310 0.003897
vt 0.124566 0.020149
vt 0.164473 0.019520
vt 0.658836 0.005225
vt 0.116553 0.000879
vt 0.736648 0.002982
vt 0.172230 0.022537
vt 0.636316 0.004481
vt 0.171875 0.000007
vt 0.714160 0.004399
vt 0.581167 0.000006
vt 0.116908 0.023409
vt 0.750599 0.148444
vt 0.862932 0.148444
vt 0.790510 0.148444
vt 0.806765 0.148444
vt 0.846677 0.148444
vt 0.656392 0.180387
vt 0.721837 0.179409
vt 0.564115 0.147559
vt 0.750599 0.000008
vt 0.722447 0.369475
vt 0.828405 0.269906
vt 0.919155 0.336390
vt 0.783169 0.464180
vt 0.891396 0.138860
vt 1.000000 0.168204
vt 0.112228 0.007806
vt 0.128884 0.152248
vt 0.021377 0.185386
vt 0.000000 0.000006
vt 0.196437 0.281002
vt 0.108076 0.350630
vt 0.305824 0.376790
vt 0.248465 0.473567
vt 0.442367 0.426760
vt 0.423707 0.537701
vt 0.587744 0.424208
vt 0.610286 0.534425
vt 0.329242 0.000000
vt 0.473070 0.021320
vt 0.375422 0.184275
vt 0.212466 0.086627
vt 0.191146 0.230454
vt 0.277773 0.347231
vt 0.421600 0.368550
vt 0.538377 0.281924
vt 0.559696 0.138096
vt 0.417528 0.887565
vt 0.245677 0.960297
vt 0.245527 0.940821
vt 0.403651 0.873899
vt 0.072732 0.890209
vt 0.086397 0.876332
vt 0.000000 0.718358
vt 0.019475 0.718209
vt 0.070087 0.545412
vt 0.083964 0.559078
vt 0.241938 0.472681
vt 0.242088 0.492156
vt 0.414884 0.542768
vt 0.401219 0.556645
vt 0.487616 0.714619
vt 0.468140 0.714769
vt 0.000000 0.000008
vt 0.000000 0.000008
vt 0.000000 0.000008
vt 0.000000 0.000008
vt 0.000000 0.000008
vt 0.000000 0.000008
vt 0.000000 0.000008
vt 0.000000 0.000008
vt 0.000000 0.000008
vt 0.000000 0.000008
vt 0.000000 0.000008
vt 0.000000 0.000008
vt 0.000000 0.000008
vt 0.000000 0.000008
vt 0.000000 0.000008
vt 0.000000 0.000008
vt 0.000000 0.000008
vt 0.000000 0.000008
vt 0.000000 0.000008
vt 0.000000 0.000008
vt 0.000000 0.000008
vt 0.000000 0.000008
vt 0.000000 0.000008
vt 0.000000 0.000008
vt 0.000000 0.000008
vn 0.000000 0.994888 0.100980
vn 0.000000 0.994888 0.100980
vn 0.000000 0.994888 0.100980
vn 0.000000 0.994888 0.100980
vn 0.000000 0.087143 -0.996196
vn 0.000000 0.087143 -0.996196
vn 0.000000 0.087143 -0.996196
vn 0.000000 0.087143 -0.996196
vn 0.000000 -0.997309 -0.073314
vn 0.000000 -0.997309 -0.073314
vn 0.000000 -0.997309 -0.073314
vn 0.000000 -0.997309 -0.073314
vn 0.999419 -0.002969 0.033951
vn 0.999419 -0.002969 0.033951
vn 0.999419 -0.002969 0.033951
vn 0.999419 -0.002969 0.033951
vn -0.999419 -0.002970 0.033951
vn -0.999419 -0.002970 0.033951
vn -0.999419 -0.002970 0.033951
vn -0.999419 -0.002970 0.033951
vn 0.000000 0.996195 0.087156
vn 0.000000 0.996195 0.087156
vn 0.000000 0.996195 0.087156
vn 0.000000 0.996195 0.087156
vn 1.000000 -0.000001 0.000000
vn 1.000000 -0.000001 0.000000
vn 1.000000 -0.000001 0.000000
vn 1.000000 -0.000001 0.000000
vn 0.000000 -0.996195 -0.087155
vn 0.000000 -0.996195 -0.087155
vn 0.000000 -0.996195 -0.087155
vn 0.000000 -0.996195 -0.087155
vn -1.000000 0.000000 0.000000
vn -1.000000 0.000000 0.000000
vn -1.000000 0.000000 0.000000
vn -1.000000 0.000000 0.000000
vn 0.000000 -0.087154 0.996195
vn 0.000000 -0.087154 0.996195
vn 0.000000 -0.087154 0.996195
vn 0.000000 -0.087154 0.996195
vn 0.000000 -0.087151 0.996195
vn 0.000000 -0.087151 0.996195
vn 0.000000 -0.087151 0.996195
vn 0.000000 -0.087151 0.996195
vn -0.000066 -0.087163 0.996194
vn -0.000066 -0.087163 0.996194
vn -0.000066 -0.087163 0.996194
vn -0.000066 -0.087163 0.996194
vn 0.000066 -0.087163 0.996194
vn 0.000066 -0.087163 0.996194
vn 0.000066 -0.087163 0.996194
vn 0.000066 -0.087163 0.996194
vn 0.000000 -0.449782 -0.893139
vn 0.000000 -0.449782 -0.893138
vn 0.000000 -0.449782 -0.893138
vn 0.000000 -0.449782 -0.893138
vn -0.631545 -0.449781 -0.631544
vn -0.631545 -0.449781 -0.631544
vn -0.631545 -0.449781 -0.631544
vn -0.631545 -0.449781 -0.631544
vn -0.893139 -0.449781 0.000000
vn -0.893139 -0.449781 0.000000
vn -0.893139 -0.449781 0.000000
vn -0.893139 -0.449781 0.000000
vn -0.631543 -0.449780 0.631547
vn -0.631543 -0.449780 0.631547
vn -0.631543 -0.449780 0.631547
vn -0.631543 -0.449780 0.631547
vn 0.000000 -0.449779 0.893140
vn 0.000000 -0.449779 0.893140
vn 0.000000 -0.449779 0.893140
vn 0.000000 -0.449779 0.893140
vn 0.631543 -0.449781 0.631547
vn 0.631543 -0.449781 0.631547
vn 0.631543 -0.449781 0.631547
vn 0.631543 -0.449781 0.631547
vn 0.893140 -0.449780 0.000000
vn 0.893140 -0.449780 0.000000
vn 0.893140 -0.449780 0.000000
vn 0.893140 -0.449780 0.000000
vn 0.631542 -0.449783 -0.631546
vn 0.631542 -0.449783 -0.631546
vn 0.631542 -0.449783 -0.631546
vn 0.631542 -0.449783 -0.631546
vn 0.000000 -1.000000 0.000000
vn 0.000000 -1.000000 0.000000
vn 0.000000 -1.000000 -0.000000
vn 0.000000 -1.000000 0.000000
vn 0.000000 -1.000000 0.000000
vn 0.000000 -1.000000 -0.000000
vn 0.000000 -1.000000 -0.000000
vn 0.000000 -1.000000 0.000000
vn 0.000000 -1.000000 0.000000
vn 0.000000 1.000000 -0.000002
vn 0.000000 1.000000 -0.000002
vn 0.000000 1.000000 -0.000002
vn 0.000000 1.000000 -0.000002
vn 0.000000 1.000000 -0.000003
vn 0.000000 1.000000 -0.000003
vn 0.000000 1.000000 -0.000003
vn 0.000000 1.000000 -0.000003
vn 0.000000 1.000000 0.000000
vn 0.000000 1.000000 0.000000
vn 0.000000 1.000000 0.000000
vn 0.000000 1.000000 0.000000
vn 0.000000 1.000000 -0.000002
vn 0.000000 1.000000 -0.000002
vn 0.000000 1.000000 -0.000002
vn 0.000000 1.000000 -0.000002
vn 0.000000 1.000000 -0.000000
vn 0.000000 1.000000 -0.000000
vn 0.000000 1.000000 -0.000000
vn 0.000000 1.000000 -0.000000
vn 0.000000 1.000000 0.000000
vn 0.000000 1.000000 0.000000
vn 0.000000 1.000000 0.000000
vn 0.000000 1.000000 0.000000
vn 0.000000 1.000000 0.000000
vn 0.000000 1.000000 0.000000
vn 0.000000 1.000000 0.000000
vn 0.000000 1.000000 0.000000
vn 0.000000 1.000000 -0.000003
vn 0.000000 1.000000 -0.000003
vn 0.000000 1.000000 -0.000003
vn 0.000000 1.000000 -0.000003
vn 0.000000 0.409458 0.912329
vn 0.000000 0.409458 0.912329
vn 0.000000 0.409458 0.912329
vn 0.000000 0.409458 0.912329
vn 0.645117 0.409456 0.645112
vn 0.645117 0.409456 0.645112
vn 0.645117 0.409456 0.645112
vn 0.645117 0.409456 0.645112
vn 0.912328 0.409460 -0.000000
vn 0.912328 0.409460 -0.000000
vn 0.912328 0.409460 -0.000000
vn 0.912328 0.409460 -0.000000
vn 0.645117 0.409456 -0.645112
vn 0.645117 0.409456 -0.645112
vn 0.645117 0.409456 -0.645112
vn 0.645117 0.409456 -0.645112
vn 0.000000 0.409458 -0.912329
vn 0.000000 0.409458 -0.912329
vn 0.000000 0.409458 -0.912329
vn 0.000000 0.409458 -0.912329
vn -0.645117 0.409456 -0.645112
vn -0.645117 0.409456 -0.645112
vn -0.645117 0.409456 -0.645112
vn -0.645117 0.409456 -0.645112
vn -0.912328 0.409461 -0.000000
vn -0.912328 0.409461 -0.000000
vn -0.912328 0.409461 -0.000000
vn -0.912328 0.409461 -0.000000
vn -0.645117 0.409456 0.645112
vn -0.645117 0.409456 0.645112
vn -0.645117 0.409456 0.645112
vn -0.645117 0.409456 0.645112
vn 0.000000 1.000000 -0.000001
vn 0.000000 1.000000 -0.000001
vn 0.000000 1.000000 -0.000001
vn 0.000000 1.000000 0.000001
vn 0.000000 1.000000 0.000001
vn 0.000000 1.000000 0.000001
vn 0.000000 1.000000 0.000000
vn 0.000000 1.000000 0.000000
vn 0.000000 1.000000 0.000000
vn 0.000000 1.000000 0.000000
vn 0.000000 1.000000 0.000000
vn 0.000000 1.000000 0.000000
vn 0.000000 1.000000 0.000001
vn 0.000000 1.000000 0.000001
vn 0.000000 1.000000 0.000001
vn 0.000000 1.000000 -0.000001
vn 0.000000 1.000000 -0.000001
vn 0.000000 1.000000 -0.000001
vn 0.000000 1.000000 0.000000
vn 0.000000 1.000000 0.000000
vn 0.000000 1.000000 0.000000
vn 0.000000 1.000000 0.000000
vn 0.000000 1.000000 0.000000
vn 0.000000 1.000000 0.000000
s off
g pCube15
usemtl initialShadingGroup
f 9/13/1 10/19/2 11/6/3 12/5/4
f 12/5/5 11/6/6 13/28/7 14/27/8
f 14/7/9 13/29/10 15/20/11 16/17/12
f 10/19/13 15/15/14 13/8/15 11/6/16
f 14/7/17 16/17/18 9/13/19 12/5/20
f 3/3/21 4/4/22 6/26/23 5/25/24
f 2/2/25 7/23/26 6/26/27 4/4/28
f 8/24/29 7/22/30 2/30/31 1/1/32
f 5/25/33 8/24/34 1/1/35 3/3/36
f 5/9/37 6/10/38 10/14/39 9/18/40
f 7/11/41 8/12/42 16/16/43 15/21/44
f 6/10/45 7/11/46 15/21/47 10/14/48
f 8/12/49 5/9/50 9/18/51 16/16/52
f 17/31/53 18/32/54 26/33/55 25/34/56
f 18/32/57 19/35/58 27/36/59 26/33/60
f 19/37/61 20/38/62 28/39/63 27/40/64
f 20/38/65 21/41/66 29/42/67 28/39/68
f 21/41/69 22/43/70 30/44/71 29/42/72
f 22/43/73 23/45/74 31/46/75 30/44/76
f 23/45/77 24/47/78 32/48/79 31/46/80
f 24/47/81 17/31/82 25/34/83 32/48/84
s 1
f 18/49/85 17/50/86 33/51/87
f 19/52/88 18/49/85 33/51/87
f 20/53/89 19/52/88 33/51/87
f 21/54/90 20/53/89 33/51/87
f 22/55/91 21/54/90 33/51/87
f 23/56/92 22/55/91 33/51/87
f 24/57/93 23/56/92 33/51/87
f 17/50/86 24/57/93 33/51/87
s off
f 25/58/94 26/59/95 35/60/96 34/61/97
f 26/59/98 27/62/99 36/63/100 35/60/101
f 27/62/102 28/64/103 37/65/104 36/63/105
f 28/64/106 29/66/107 38/67/108 37/65/109
f 29/66/110 30/68/111 39/69/112 38/67/113
f 30/68/114 31/70/115 40/71/116 39/69/117
f 31/70/118 32/72/119 41/73/120 40/71/121
f 32/72/122 25/58/123 34/61/124 41/73/125
f 34/74/126 35/75/127 43/76/128 42/77/129
f 35/75/130 36/78/131 44/79/132 43/76/133
f 36/78/134 37/80/135 45/81/136 44/79/137
f 37/80/138 38/82/139 46/83/140 45/81/141
f 38/82/142 39/84/143 47/85/144 46/83/145
f 39/84/146 40/86/147 48/87/148 47/85/149
f 40/86/150 41/88/151 49/89/152 48/87/153
f 41/88/154 34/74/155 42/77/156 49/89/157
f 42/90/158 43/91/159 50/92/160
f 43/91/161 44/93/162 50/92/163
f 44/93/164 45/94/165 50/92/166
f 45/94/167 46/95/168 50/92/169
f 46/95/170 47/96/171 50/92/172
f 47/96/173 48/97/174 50/92/175
f 48/97/176 49/98/177 50/92/178
f 49/98/179 42/90/180 50/92/181
