# This file uses centimeters as units for non-parametric coordinates.

mtllib Closet.mtl
g default
v 5.761624 0.856495 -2.351538
v 5.641984 0.856495 -2.351538
v 5.761624 0.968753 -2.351538
v 5.641984 0.968753 -2.351538
v 5.761624 0.968753 -2.285707
v 5.641984 0.968753 -2.285707
v 5.761624 0.856495 -2.285707
v 5.641984 0.856495 -2.285707
v 6.053230 0.554411 -2.291329
v 5.350377 0.554411 -2.291329
v 6.053230 1.270837 -2.291329
v 5.350377 1.270837 -2.291329
v 6.053230 1.270837 -1.863688
v 5.350377 1.270837 -1.863688
v 6.053230 0.554411 -1.863688
v 5.350377 0.554411 -1.863688
v 4.957286 0.856495 -2.351538
v 4.837646 0.856495 -2.351538
v 4.957286 0.968753 -2.351538
v 4.837646 0.968753 -2.351538
v 4.957286 0.968753 -2.285707
v 4.837646 0.968753 -2.285707
v 4.957286 0.856495 -2.285707
v 4.837646 0.856495 -2.285707
v 5.248892 0.554411 -2.291329
v 4.546039 0.554411 -2.291329
v 5.248892 1.270837 -2.291329
v 4.546039 1.270837 -2.291329
v 5.248892 1.270837 -1.863688
v 4.546039 1.270837 -1.863688
v 5.248892 0.554411 -1.863688
v 4.546039 0.554411 -1.863688
v 4.487534 0.504493 -2.296535
v 4.487534 0.504493 -1.486638
v 4.487534 2.814835 -2.296535
v 4.487534 2.814835 -1.486638
v 6.114901 2.814835 -2.296535
v 6.114901 2.814835 -1.486638
v 6.114901 0.504493 -2.296535
v 6.114901 0.504493 -1.486638
v 4.487534 1.318822 -2.296535
v 6.114901 1.318822 -2.296535
v 4.487534 1.837517 -2.296535
v 6.114901 1.837517 -2.296535
v 4.487534 2.356212 -2.296535
v 6.114901 2.356212 -2.296535
v 6.064900 2.406212 -2.296536
v 4.537534 2.406212 -2.296536
v 4.537534 2.764835 -2.296535
v 6.064900 2.764835 -2.296535
v 6.064900 1.368822 -2.296535
v 4.537534 1.368822 -2.296535
v 4.537534 1.787517 -2.296535
v 6.064900 1.787517 -2.296535
v 6.064900 1.887517 -2.296535
v 4.537534 1.887516 -2.296535
v 4.537534 2.306212 -2.296535
v 6.064900 2.306212 -2.296535
v 6.069888 0.543456 -2.296535
v 4.532546 0.545033 -2.296535
v 4.532546 1.279859 -2.296535
v 6.069888 1.279859 -2.296535
v 6.064900 2.406212 -1.722990
v 4.537534 2.406212 -1.722990
v 4.537534 2.764835 -1.722990
v 6.064900 2.764835 -1.722990
v 6.064900 1.368822 -1.722990
v 4.537534 1.368822 -1.722990
v 4.537534 1.787517 -1.722990
v 6.064900 1.787517 -1.722990
v 6.064900 1.887517 -1.722990
v 4.537534 1.887516 -1.722990
v 4.537534 2.306212 -1.722990
v 6.064900 2.306212 -1.722990
v 6.069888 0.543456 -1.722990
v 4.532546 0.545033 -1.722990
v 4.532546 1.279859 -1.722990
v 6.069888 1.279859 -1.722990
v 4.487534 0.504493 -2.296535
v 5.339823 0.543456 -2.296535
v 5.339823 0.543456 -1.722990
v 5.339823 1.279859 -1.722990
v 5.339823 1.279859 -2.296535
v 5.262612 0.545033 -2.296535
v 5.262612 0.545033 -1.722990
v 5.262612 1.279859 -1.722990
v 5.262612 1.279859 -2.296535
v 5.301217 0.504493 -2.296535
v 5.301217 0.504493 -1.486638
v 5.301217 1.318822 -2.296535
v 5.301217 1.368822 -2.296535
vt 0.010265 0.010347
vt 0.026647 0.010347
vt 0.010264 0.025718
vt 0.026647 0.025718
vt 0.010265 0.034733
vt 0.026647 0.034733
vt 0.010265 0.001332
vt 0.026647 0.001332
vt 0.035661 0.010347
vt 0.035661 0.025718
vt 0.001250 0.010347
vt 0.001250 0.025718
vt 0.834292 0.559498
vt 0.931799 0.559498
vt 0.931799 0.658888
vt 0.834292 0.658888
vt 0.931799 0.718215
vt 0.834292 0.718215
vt 0.834292 0.500171
vt 0.931799 0.500171
vt 0.991126 0.559498
vt 0.991126 0.658888
vt 0.774965 0.559498
vt 0.774965 0.658888
vt 0.051534 0.010347
vt 0.067917 0.010347
vt 0.067917 0.025718
vt 0.051534 0.025718
vt 0.067917 0.034733
vt 0.051534 0.034733
vt 0.051535 0.001332
vt 0.067917 0.001332
vt 0.076931 0.010347
vt 0.076931 0.025718
vt 0.042520 0.010347
vt 0.042520 0.025718
vt 0.825121 0.059333
vt 0.922628 0.059333
vt 0.922628 0.158723
vt 0.825121 0.158723
vt 0.922628 0.218051
vt 0.825121 0.218051
vt 0.825121 0.000006
vt 0.922628 0.000006
vt 0.981956 0.059333
vt 0.981956 0.158723
vt 0.765793 0.059333
vt 0.765793 0.158723
vt 0.175903 0.000189
vt 0.432874 0.112364
vt 0.112358 0.112593
vt 0.112278 0.000235
vt 0.000000 0.112673
vt 0.112519 0.338359
vt 0.000162 0.338439
vt 0.112599 0.450716
vt 0.433035 0.338130
vt 0.176224 0.450671
vt 0.320143 0.450568
vt 0.433115 0.450487
vt 0.319821 0.000086
vt 0.247862 0.000138
vt 0.248184 0.450620
vt 0.001346 0.844660
vt 0.227104 0.844660
vt 0.219089 0.851596
vt 0.007203 0.851596
vt 0.227104 0.908283
vt 0.219089 0.901346
vt 0.001346 0.908283
vt 0.007203 0.901346
vt 0.115067 0.707683
vt 0.115067 0.700747
vt 0.227104 0.700747
vt 0.220263 0.707683
vt 0.227104 0.772703
vt 0.220263 0.765767
vt 0.001346 0.772703
vt 0.008377 0.765767
vt 0.001346 0.700747
vt 0.008377 0.707683
vt 0.219658 0.779639
vt 0.007773 0.779639
vt 0.219658 0.837723
vt 0.007773 0.837723
vt 0.227104 0.587778
vt 0.221730 0.695812
vt 0.221730 0.593873
vt 0.115067 0.587778
vt 0.109741 0.694871
vt 0.109741 0.592713
vt 0.001346 0.587778
vt 0.008462 0.592713
vt 0.008462 0.694871
vt 0.432793 0.000006
vt 0.545231 0.112283
vt 0.545312 0.225166
vt 0.432954 0.225247
vt 0.469344 0.588272
vt 0.681237 0.588272
vt 0.681237 0.667840
vt 0.469344 0.667840
vt 0.760806 0.667840
vt 0.760806 0.717592
vt 0.681237 0.717592
vt 0.681237 0.797161
vt 0.469344 0.797161
vt 0.469344 0.717592
vt 0.389775 0.717592
vt 0.389775 0.667840
vt 0.465714 0.530185
vt 0.359767 0.450617
vt 0.465714 0.450617
vt 0.545282 0.530185
vt 0.545282 0.588271
vt 0.465714 0.588271
vt 0.465714 0.667840
vt 0.253821 0.667840
vt 0.253821 0.588271
vt 0.174252 0.588271
vt 0.174252 0.530185
vt 0.253821 0.530185
vt 0.762908 0.079574
vt 0.762908 0.291467
vt 0.683340 0.291467
vt 0.683340 0.079574
vt 0.683340 0.371036
vt 0.625254 0.371036
vt 0.625254 0.291467
vt 0.545685 0.291467
vt 0.545685 0.079574
vt 0.625254 0.079574
vt 0.625254 0.000006
vt 0.683340 0.000006
vt 0.227442 0.921850
vt 0.227442 0.820601
vt 0.306984 0.820601
vt 0.306984 0.921850
vt 0.685546 0.305593
vt 0.786821 0.305593
vt 0.786821 0.384640
vt 0.685546 0.384640
vt 0.409112 0.820601
vt 0.488654 0.820601
vt 0.488654 0.921850
vt 0.409112 0.921850
vt 0.409112 1.001391
vt 0.306984 1.001391
vt 0.685546 0.485260
vt 0.606498 0.485260
vt 0.606498 0.384640
vt 0.786821 0.485260
vt 0.865869 0.384640
vt 0.865869 0.485260
vt 0.306984 0.741059
vt 0.409112 0.741059
vt 0.685546 0.564307
vt 0.786821 0.564307
vt 0.545393 0.338049
vt 0.120451 0.593873
vt 0.120451 0.695812
vt 0.253821 0.450617
vn 0.000000 0.000000 -1.000000
vn 0.000000 0.000000 -1.000000
vn 0.000000 0.000000 -1.000000
vn 0.000000 0.000000 -1.000000
vn 0.000000 1.000000 0.000000
vn 0.000000 1.000000 0.000000
vn 0.000000 1.000000 0.000000
vn 0.000000 1.000000 0.000000
vn 0.000000 -1.000000 0.000000
vn 0.000000 -1.000000 0.000000
vn 0.000000 -1.000000 0.000000
vn 0.000000 -1.000000 0.000000
vn -1.000000 0.000000 0.000000
vn -1.000000 0.000000 0.000000
vn -1.000000 0.000000 0.000000
vn -1.000000 0.000000 0.000000
vn 1.000000 0.000000 0.000000
vn 1.000000 0.000000 0.000000
vn 1.000000 0.000000 0.000000
vn 1.000000 0.000000 0.000000
vn 0.000000 0.000000 -1.000000
vn 0.000000 0.000000 -1.000000
vn 0.000000 0.000000 -1.000000
vn 0.000000 0.000000 -1.000000
vn 0.000000 1.000000 0.000000
vn 0.000000 1.000000 0.000000
vn 0.000000 1.000000 0.000000
vn 0.000000 1.000000 0.000000
vn 0.000000 -1.000000 0.000000
vn 0.000000 -1.000000 0.000000
vn 0.000000 -1.000000 0.000000
vn 0.000000 -1.000000 0.000000
vn -1.000000 0.000000 0.000000
vn -1.000000 0.000000 0.000000
vn -1.000000 0.000000 0.000000
vn -1.000000 0.000000 0.000000
vn 1.000000 0.000000 0.000000
vn 1.000000 0.000000 0.000000
vn 1.000000 0.000000 0.000000
vn 1.000000 0.000000 0.000000
vn 0.000000 0.000000 -1.000000
vn 0.000000 0.000000 -1.000000
vn 0.000000 0.000000 -1.000000
vn 0.000000 0.000000 -1.000000
vn 0.000000 1.000000 0.000000
vn 0.000000 1.000000 0.000000
vn 0.000000 1.000000 0.000000
vn 0.000000 1.000000 0.000000
vn 0.000000 -1.000000 0.000000
vn 0.000000 -1.000000 0.000000
vn 0.000000 -1.000000 0.000000
vn 0.000000 -1.000000 0.000000
vn -1.000000 0.000000 0.000000
vn -1.000000 0.000000 0.000000
vn -1.000000 0.000000 0.000000
vn -1.000000 0.000000 0.000000
vn 1.000000 0.000000 0.000000
vn 1.000000 0.000000 0.000000
vn 1.000000 0.000000 0.000000
vn 1.000000 0.000000 0.000000
vn 0.000000 0.000000 -1.000000
vn 0.000000 0.000000 -1.000000
vn 0.000000 0.000000 -1.000000
vn 0.000000 0.000000 -1.000000
vn 0.000000 1.000000 0.000000
vn 0.000000 1.000000 0.000000
vn 0.000000 1.000000 0.000000
vn 0.000000 1.000000 0.000000
vn 0.000000 -1.000000 0.000000
vn 0.000000 -1.000000 0.000000
vn 0.000000 -1.000000 0.000000
vn 0.000000 -1.000000 0.000000
vn -1.000000 0.000000 0.000000
vn -1.000000 0.000000 0.000000
vn -1.000000 0.000000 0.000000
vn -1.000000 0.000000 0.000000
vn 1.000000 0.000000 0.000000
vn 1.000000 0.000000 0.000000
vn 1.000000 0.000000 0.000000
vn 1.000000 0.000000 0.000000
vn -1.000000 0.000000 0.000000
vn -1.000000 0.000000 0.000000
vn -1.000000 0.000000 0.000000
vn -1.000000 0.000000 0.000000
vn 0.000000 1.000000 0.000000
vn 0.000000 1.000000 0.000000
vn 0.000000 1.000000 0.000000
vn 0.000000 1.000000 0.000000
vn 1.000000 0.000000 0.000000
vn 1.000000 0.000000 0.000000
vn 1.000000 0.000000 0.000000
vn 1.000000 0.000000 0.000000
vn 1.000000 0.000000 0.000000
vn 1.000000 0.000000 0.000000
vn -1.000000 0.000000 0.000000
vn -1.000000 0.000000 0.000000
vn 1.000000 0.000000 0.000000
vn 0.000001 -0.000004 -1.000000
vn -0.000000 -0.000004 -1.000000
vn -0.000001 -0.000007 -1.000000
vn 0.000001 -0.000007 -1.000000
vn -0.000001 0.000000 -1.000000
vn -0.000001 0.000000 -1.000000
vn 0.000001 0.000000 -1.000000
vn 0.000001 0.000000 -1.000000
vn 0.000000 0.000000 -1.000000
vn 0.000000 0.000000 -1.000000
vn 0.000000 0.000000 -1.000000
vn 0.000000 0.000000 -1.000000
vn 0.000000 0.000000 -1.000000
vn 0.000000 0.000000 -1.000000
vn 0.000000 0.000000 -1.000000
vn 0.000000 0.000000 -1.000000
vn 0.000001 0.000000 -1.000000
vn 0.000001 0.000000 -1.000000
vn 0.000000 0.000000 -1.000000
vn -0.000000 0.000000 -1.000000
vn 0.000000 0.000000 -1.000000
vn -0.000000 0.000000 -1.000000
vn -0.000002 0.000000 -1.000000
vn -0.000002 0.000000 -1.000000
vn -0.000002 0.000000 -1.000000
vn -0.000002 0.000000 -1.000000
vn -0.000003 0.000000 -1.000000
vn -0.000002 0.000000 -1.000000
vn -0.000002 0.000000 -1.000000
vn -0.000003 0.000000 -1.000000
vn 0.000003 0.000000 -1.000000
vn 0.000003 0.000000 -1.000000
vn 0.000003 0.000000 -1.000000
vn 0.000003 0.000000 -1.000000
vn -1.000000 0.000000 0.000000
vn -1.000000 0.000000 0.000000
vn -1.000000 0.000000 0.000000
vn 0.000000 -1.000000 0.000000
vn 0.000000 -1.000000 0.000000
vn 0.000000 -1.000000 0.000000
vn 0.000000 -1.000000 0.000000
vn -0.000000 1.000000 0.000000
vn -0.000000 1.000000 0.000000
vn -0.000000 1.000000 0.000000
vn -0.000000 1.000000 0.000000
vn 1.000000 0.000000 0.000000
vn 1.000000 0.000000 0.000000
vn 1.000000 0.000000 0.000000
vn 1.000000 0.000000 0.000000
vn 0.000000 -1.000000 0.000001
vn 0.000000 -1.000000 0.000001
vn 0.000000 -1.000000 0.000001
vn 0.000000 -1.000000 0.000001
vn -1.000000 0.000000 0.000000
vn -1.000000 0.000000 0.000000
vn -1.000000 0.000000 0.000000
vn -1.000000 0.000000 0.000000
vn 0.000000 1.000000 0.000000
vn 0.000000 1.000000 0.000000
vn 0.000000 1.000000 0.000000
vn 1.000000 0.000000 0.000000
vn 1.000000 0.000000 0.000000
vn 1.000000 0.000000 0.000000
vn 1.000000 0.000000 0.000000
vn 0.000000 -1.000000 0.000000
vn 0.000000 -1.000000 0.000000
vn 0.000000 -1.000000 0.000000
vn 0.000000 -1.000000 0.000000
vn -1.000000 0.000000 0.000000
vn -1.000000 0.000000 0.000000
vn -1.000000 0.000000 0.000000
vn -1.000000 0.000000 0.000000
vn -0.000000 1.000000 0.000000
vn -0.000000 1.000000 0.000000
vn -0.000000 1.000000 0.000000
vn -0.000000 1.000000 0.000000
vn 1.000000 0.000000 0.000000
vn 1.000000 0.000000 0.000000
vn 1.000000 0.000000 0.000000
vn 1.000000 0.000000 0.000000
vn 0.000000 -1.000000 0.000000
vn 0.000000 -1.000000 0.000000
vn 0.000000 -1.000000 0.000000
vn 0.000000 -1.000000 0.000000
vn -1.000000 0.000000 0.000000
vn -1.000000 0.000000 0.000000
vn -1.000000 0.000000 0.000000
vn -1.000000 0.000000 0.000000
vn 0.000000 1.000000 0.000000
vn 0.000000 1.000000 0.000000
vn 0.000000 1.000000 0.000000
vn 0.000000 1.000000 0.000000
vn 1.000000 0.000000 0.000000
vn 1.000000 0.000000 0.000000
vn 1.000000 0.000000 0.000000
vn 1.000000 0.000000 0.000000
vn 0.000000 -1.000000 0.000000
vn 0.000000 -1.000000 0.000000
vn 0.000000 -1.000000 0.000000
vn 0.000000 -1.000000 0.000000
vn -1.000000 0.000000 0.000000
vn -1.000000 0.000000 0.000000
vn -1.000000 0.000000 0.000000
vn -1.000000 0.000000 0.000000
vn 0.000000 0.000001 -1.000000
vn 0.000000 0.000001 -1.000000
vn 0.000000 0.000001 -1.000000
vn 0.000000 0.000001 -1.000000
vn 0.000000 0.000000 -1.000000
vn 0.000000 0.000000 -1.000000
vn 0.000000 0.000000 -1.000000
vn 0.000000 0.000000 -1.000000
vn -0.000000 0.000000 -1.000000
vn -0.000000 0.000000 -1.000000
vn -0.000000 0.000000 -1.000000
vn -0.000000 0.000000 -1.000000
vn 0.000000 0.000000 -1.000000
vn 0.000000 0.000000 -1.000000
vn 0.000000 0.000000 -1.000000
vn 0.000000 0.000000 -1.000000
vn 0.000000 0.000000 1.000000
vn 0.000000 0.000000 1.000000
vn 0.000000 0.000000 1.000000
vn 0.000000 0.000000 1.000000
vn 0.000000 0.000000 1.000000
vn -0.000000 1.000000 0.000000
vn -0.000000 1.000000 0.000000
vn -0.000000 1.000000 0.000000
vn -0.000000 1.000000 0.000000
vn 0.000000 0.000000 -1.000000
vn 0.000000 0.000000 -1.000000
vn 0.000000 0.000000 -1.000000
vn 0.000000 0.000000 -1.000000
vn 0.000000 -1.000000 0.000000
vn 0.000000 -1.000000 0.000000
vn 0.000000 -1.000000 0.000000
vn 0.000000 -1.000000 0.000000
vn 1.000000 0.000000 0.000000
vn 1.000000 0.000000 0.000000
vn 1.000000 0.000000 0.000000
vn 1.000000 0.000000 0.000000
vn -1.000000 0.000000 0.000000
vn -1.000000 0.000000 0.000000
vn -1.000000 0.000000 0.000000
vn -1.000000 0.000000 0.000000
vn 0.000000 -1.000000 0.000000
vn 0.000000 -1.000000 0.000000
vn 0.000000 -1.000000 0.000000
vn 0.000000 -1.000000 0.000000
vn 0.000000 0.000000 -1.000000
vn 0.000000 0.000000 -1.000000
vn 0.000000 0.000000 -1.000000
vn 0.000000 0.000000 -1.000000
vn 0.000000 0.000000 -1.000000
vn 0.000000 0.000000 -1.000000
vn 0.000000 0.000000 -1.000000
vn 0.000000 0.000000 -1.000000
vn 0.000000 0.000000 -1.000000
vn 0.000002 0.000000 -1.000000
vn 0.000002 0.000000 -1.000000
vn 0.000000 0.000000 -1.000000
vn 0.000000 0.000000 -1.000000
vn 0.000000 0.000000 -1.000000
vn 0.000004 0.000000 -1.000000
vn 0.000004 0.000000 -1.000000
vn 0.000000 1.000000 0.000000
vn 0.000000 1.000000 0.000000
s off
g pCube8
usemtl initialShadingGroup
f 1/1/1 2/2/2 4/4/3 3/3/4
f 3/3/5 4/4/6 6/6/7 5/5/8
f 7/7/9 8/8/10 2/2/11 1/1/12
f 2/2/13 8/9/14 6/10/15 4/4/16
f 7/11/17 1/1/18 3/3/19 5/12/20
f 9/13/21 10/14/22 12/15/23 11/16/24
f 11/16/25 12/15/26 14/17/27 13/18/28
f 15/19/29 16/20/30 10/14/31 9/13/32
f 10/14/33 16/21/34 14/22/35 12/15/36
f 15/23/37 9/13/38 11/16/39 13/24/40
f 17/25/41 18/26/42 20/27/43 19/28/44
f 19/28/45 20/27/46 22/29/47 21/30/48
f 23/31/49 24/32/50 18/26/51 17/25/52
f 18/26/53 24/33/54 22/34/55 20/27/56
f 23/35/57 17/25/58 19/28/59 21/36/60
f 25/37/61 26/38/62 28/39/63 27/40/64
f 27/40/65 28/39/66 30/41/67 29/42/68
f 31/43/69 32/44/70 26/38/71 25/37/72
f 26/38/73 32/45/74 30/46/75 28/39/76
f 31/47/77 25/37/78 27/40/79 29/48/80
s 1
f 45/49/81 34/50/82 36/51/83 35/52/84
s off
f 35/53/85 36/51/86 38/54/87 37/55/88
s 2
f 37/56/89 38/54/90 40/57/91 46/58/92
f 42/59/93 40/57/91 39/60/94
s 1
f 41/61/95 34/50/82 43/62/96
s 2
f 44/63/97 40/57/91 42/59/93
s 1
f 43/62/96 34/50/82 45/49/81
s 2
f 46/58/92 40/57/91 44/63/97
s 4
f 46/64/98 45/65/99 48/66/100 47/67/101
f 45/65/99 35/68/102 49/69/103 48/66/100
f 35/68/102 37/70/104 50/71/105 49/69/103
f 37/70/104 46/64/98 47/67/101 50/71/105
f 91/72/106 90/73/107 41/74/108 52/75/109
f 41/74/108 43/76/110 53/77/111 52/75/109
f 43/76/110 44/78/112 54/79/113 53/77/111
f 44/78/112 42/80/114 51/81/115 54/79/113
f 44/78/112 43/76/110 56/82/116 55/83/117
f 43/76/110 45/65/99 57/84/118 56/82/116
f 45/65/99 46/64/98 58/85/119 57/84/118
f 46/64/98 44/78/112 55/83/117 58/85/119
s off
f 33/86/120 41/74/121 61/87/122 60/88/123
s 6
f 88/89/124 90/73/125 83/90/126 80/91/127
s off
f 42/80/128 39/92/129 59/93/130 62/94/131
f 79/95/132 34/50/133 41/61/134
f 34/50/135 33/96/136 88/97/137 89/98/138
f 47/99/139 48/100/140 64/101/141 63/102/142
f 48/103/143 49/104/144 65/105/145 64/101/146
f 49/106/147 50/107/148 66/108/149 65/105/150
f 50/109/151 47/110/152 63/102/153 66/108/154
s 7
f 68/111/155 91/112/156 52/113/157
s off
f 52/114/158 53/115/159 69/116/160 68/111/161
f 53/117/162 54/118/163 70/119/164 69/116/165
f 54/120/166 51/121/167 67/122/168 70/119/169
f 55/123/170 56/124/171 72/125/172 71/126/173
f 56/127/174 57/128/175 73/129/176 72/125/177
f 57/130/178 58/131/179 74/132/180 73/129/181
f 58/133/182 55/134/183 71/126/184 74/132/185
f 59/135/186 80/136/187 81/137/188 75/138/189
f 60/139/190 61/140/191 77/141/192 76/142/193
f 82/143/194 83/144/195 62/145/196 78/146/197
f 62/147/198 59/148/199 75/138/200 78/146/201
f 63/102/202 64/101/203 65/105/204 66/108/205
f 71/126/206 72/125/207 73/129/208 74/132/209
f 67/122/210 68/111/211 69/116/212 70/119/213
f 75/138/214 81/137/215 82/143/216 78/146/217
f 40/57/218 38/54/219 36/51/220 34/50/221 89/98/222
f 85/149/223 84/150/224 60/151/225 76/142/226
f 86/152/227 85/149/228 76/142/229 77/141/230
f 61/153/231 87/154/232 86/152/233 77/141/234
f 81/137/235 80/155/236 83/156/237 82/143/238
f 84/157/239 85/149/240 86/152/241 87/158/242
f 89/98/243 88/97/244 39/159/245 40/57/246
f 80/91/247 59/93/248 39/92/249 88/89/250
f 88/89/251 33/86/252 60/88/253 84/160/254
s 8
f 41/74/255 90/73/256 87/161/257 61/87/258
s 6
f 83/90/126 90/73/125 42/80/259 62/94/260
s 8
f 87/161/257 90/73/256 88/89/261 84/160/262
s 7
f 51/162/263 91/112/156 68/111/155 67/122/264
s 4
f 42/80/114 90/73/107 91/72/106 51/81/115
