# This file uses centimeters as units for non-parametric coordinates.

mtllib Bread.mtl
g default
v -1.948348 1.367313 -5.916515
v -1.803142 1.374424 -6.074439
v -1.956164 1.348972 -5.924527
v -1.810958 1.356083 -6.082451
v -2.054799 1.453729 -6.010501
v -2.056712 1.467779 -6.040800
v -2.062614 1.435388 -6.018513
v -2.064527 1.449438 -6.048811
v -1.940543 1.473468 -6.167143
v -1.909593 1.460840 -6.168426
v -1.917408 1.442498 -6.176437
v -1.948358 1.455127 -6.175155
v -2.027117 1.451270 -6.089498
v -2.019302 1.469611 -6.081486
v -1.985768 1.453295 -6.134469
v -1.977953 1.471636 -6.126457
v -1.995702 1.443563 -6.102499
v -1.987886 1.461904 -6.094487
v -1.946332 1.376963 -5.940573
v -1.827351 1.382790 -6.069975
v -1.914576 1.453598 -6.146988
v -1.939937 1.463946 -6.145937
v -1.970590 1.462445 -6.112599
v -1.978730 1.454471 -6.086403
v -2.004472 1.460786 -6.075750
v -2.035125 1.459285 -6.042411
v -2.033558 1.447772 -6.017585
v -1.858308 1.366455 -5.778275
v -1.779940 1.386139 -5.977138
v -1.863548 1.346022 -5.782362
v -1.785179 1.365706 -5.981225
v -2.007662 1.415552 -5.832273
v -2.022881 1.425098 -5.860491
v -2.012902 1.395119 -5.836360
v -2.028120 1.404665 -5.864579
v -1.960184 1.440846 -6.019587
v -1.929294 1.435236 -6.031136
v -1.934533 1.414803 -6.035223
v -1.965423 1.420413 -6.023674
v -2.007930 1.409737 -5.915812
v -2.002691 1.430170 -5.911725
v -1.985613 1.415342 -5.972441
v -1.980374 1.435775 -5.968354
v -1.981701 1.407585 -5.938677
v -1.976462 1.428018 -5.934590
v -1.866800 1.373350 -5.801861
v -1.802585 1.389479 -5.964809
v -1.924966 1.429709 -6.009055
v -1.950277 1.434306 -5.999592
v -1.966821 1.430151 -5.957612
v -1.963615 1.423795 -5.929946
v -1.985107 1.425558 -5.911210
v -2.001651 1.421403 -5.869229
v -1.989181 1.413580 -5.846107
v -2.121899 1.347798 -6.036787
v -1.974812 1.347798 -6.193121
v -2.112207 1.347798 -6.322388
v -2.121899 1.514029 -6.036787
v -2.107193 1.539689 -6.052418
v -2.259294 1.514029 -6.166053
v -2.244587 1.539689 -6.181685
v -1.989520 1.539689 -6.177491
v -1.974812 1.514029 -6.193121
v -2.112207 1.514029 -6.322388
v -2.126913 1.539689 -6.306758
v -2.206693 1.539689 -6.221961
v -2.069300 1.539689 -6.092696
v -2.164808 1.539689 -6.266480
v -2.027414 1.539689 -6.137214
v -2.185752 1.522915 -6.244221
v -2.048356 1.522915 -6.114954
v -2.108617 1.365126 -6.050904
v -1.988094 1.365126 -6.179006
v -1.988094 1.501336 -6.179006
v -2.000145 1.522361 -6.166196
v -2.031197 1.522361 -6.133194
v -2.048356 1.508617 -6.114954
v -2.065517 1.522361 -6.096715
v -2.096566 1.522361 -6.063712
v -2.108617 1.501336 -6.050904
v -2.259294 1.347798 -6.166053
vt 0.976197 0.520419
vt 0.679121 0.542586
vt 0.960521 0.538551
vt 0.994770 0.733903
vt 0.665326 0.522563
vt 0.663129 0.721316
vt 0.637605 0.726702
vt 0.675353 0.771491
vt 0.946966 0.758398
vt 0.688020 0.752725
vt 0.971275 0.729569
vt 0.961206 0.779323
vt 0.765242 0.792105
vt 0.767653 0.766676
vt 0.872793 0.793115
vt 0.871324 0.768906
vt 0.820325 0.784172
vt 0.819738 0.756619
vt -0.000002 0.654596
vt 0.240226 0.654585
vt 0.240233 0.810199
vt 0.922526 0.742992
vt 0.858931 0.749853
vt 0.120119 0.818522
vt 0.780864 0.748463
vt 0.714213 0.737712
vt 0.000005 0.810209
vt 0.703924 0.563418
vt 0.691517 0.711123
vt 0.024026 0.834229
vt 0.085916 0.834226
vt 0.820083 0.736542
vt 0.154324 0.834223
vt 0.216215 0.834220
vt 0.942516 0.718701
vt 0.935636 0.559332
vt 0.298429 0.001824
vt 0.538650 0.000000
vt 0.419783 0.164839
vt 0.299610 0.157433
vt 0.523429 0.705178
vt 0.522414 0.680945
vt 0.598239 0.671858
vt 0.612084 0.693046
vt 0.631927 0.434468
vt 0.615914 0.452303
vt 0.334487 0.451061
vt 0.321071 0.430783
vt 0.646494 0.648263
vt 0.623085 0.643489
vt 0.315148 0.629460
vt 0.289527 0.634366
vt 0.339445 0.661330
vt 0.326428 0.679855
vt 0.418802 0.676772
vt 0.415915 0.702151
vt 0.471137 0.695253
vt 0.471067 0.667693
vt 0.590643 0.472614
vt 0.358895 0.472355
vt 0.594534 0.632083
vt 0.574093 0.655995
vt 0.510380 0.661663
vt 0.471789 0.647626
vt 0.432352 0.658810
vt 0.365915 0.646811
vt 0.343721 0.619801
vt 0.539831 0.155609
vt 0.515995 0.179811
vt 0.454106 0.180281
vt 0.385700 0.180800
vt 0.323811 0.181270
vt 0.542146 0.001330
vt 0.782371 -0.000000
vt 0.663165 0.164594
vt 0.543008 0.156941
vt 0.601239 0.220867
vt 0.600618 0.436385
vt 0.525088 0.436168
vt 0.525707 0.220650
vt 0.293721 0.435503
vt 0.294341 0.219984
vt 0.484252 0.220531
vt 0.483632 0.436050
vt 0.999999 0.222017
vt 0.999379 0.437534
vt 0.809468 0.436987
vt 0.810088 0.221470
vt 0.768012 0.436867
vt 0.768632 0.221350
vt 0.692481 0.436649
vt 0.693102 0.221132
vt 0.647171 0.220998
vt 0.646550 0.436518
vt 0.000547 0.434659
vt 0.267192 0.455223
vt 0.026964 0.454531
vt 0.293174 0.625414
vt 0.266744 0.610836
vt 0.263776 0.654644
vt 0.242653 0.634787
vt 0.188246 0.654426
vt 0.180763 0.634609
vt 0.146557 0.635143
vt 0.146605 0.618808
vt 0.104760 0.654186
vt 0.112355 0.634412
vt 0.029229 0.653968
vt 0.050467 0.634233
vt 0.000000 0.624570
vt 0.026516 0.610144
vt 0.783232 0.155611
vt 0.759344 0.179764
vt 0.697455 0.180107
vt 0.629048 0.180485
vt 0.567160 0.180828
vt 0.294887 0.030073
vt 0.148329 0.019500
vt 0.190128 0.000457
vt 0.265661 0.000675
vt 0.001714 0.029230
vt 0.031112 0.000000
vt 0.106642 0.000217
vt 0.001168 0.219141
vn 0.363737 0.853613 0.372881
vn 0.363737 0.853613 0.372881
vn 0.363737 0.853613 0.372881
vn 0.363737 0.853613 0.372881
vn -0.758192 0.503858 -0.413850
vn -0.758193 0.503858 -0.413849
vn -0.640374 0.519853 -0.565397
vn -0.640374 0.519853 -0.565397
vn 0.640374 -0.519852 0.565398
vn 0.640374 -0.519852 0.565398
vn 0.640374 -0.519852 0.565398
vn 0.640374 -0.519852 0.565398
vn 0.676479 0.033121 -0.735717
vn 0.676479 0.033121 -0.735717
vn 0.676479 0.033121 -0.735717
vn 0.676479 0.033121 -0.735717
vn -0.676461 -0.033126 0.735733
vn -0.676461 -0.033126 0.735733
vn -0.676461 -0.033126 0.735733
vn -0.676461 -0.033126 0.735733
vn -0.929745 0.308120 0.201587
vn -0.929745 0.308120 0.201587
vn -0.929745 0.308120 0.201587
vn -0.929744 0.308120 0.201587
vn 0.108044 0.358938 -0.927087
vn 0.108044 0.358938 -0.927087
vn 0.108044 0.358938 -0.927087
vn 0.108044 0.358938 -0.927087
vn -0.640372 0.519847 -0.565405
vn -0.640372 0.519847 -0.565405
vn -0.498793 0.516556 -0.695971
vn -0.498792 0.516556 -0.695972
vn -0.886855 0.439792 -0.141676
vn -0.886855 0.439792 -0.141676
vn -0.235906 0.471666 -0.849635
vn -0.235906 0.471666 -0.849635
vn 0.363740 0.853614 0.372875
vn 0.363740 0.853614 0.372875
vn 0.363740 0.853614 0.372875
vn 0.363740 0.853614 0.372875
vn 0.363727 0.853619 0.372878
vn 0.363727 0.853619 0.372878
vn 0.363727 0.853619 0.372878
vn 0.363727 0.853619 0.372878
vn 0.363742 0.853614 0.372873
vn 0.363742 0.853614 0.372873
vn 0.363743 0.853614 0.372873
vn 0.363742 0.853614 0.372873
vn 0.363735 0.853614 0.372880
vn 0.363735 0.853614 0.372880
vn 0.363735 0.853614 0.372880
vn 0.363735 0.853614 0.372880
vn 0.363738 0.853612 0.372882
vn 0.363738 0.853612 0.372882
vn 0.363738 0.853612 0.372882
vn 0.363738 0.853612 0.372882
vn 0.363728 0.853612 0.372893
vn 0.363728 0.853612 0.372893
vn 0.363728 0.853612 0.372893
vn 0.363728 0.853612 0.372893
vn 0.363744 0.853606 0.372889
vn 0.363744 0.853607 0.372889
vn 0.363744 0.853606 0.372889
vn 0.363744 0.853607 0.372889
vn 0.363739 0.853613 0.372878
vn 0.363739 0.853613 0.372878
vn 0.363739 0.853613 0.372878
vn 0.363739 0.853613 0.372878
vn 0.363728 0.853620 0.372875
vn 0.363728 0.853620 0.372875
vn 0.363728 0.853620 0.372875
vn 0.363728 0.853620 0.372875
vn 0.363738 0.853619 0.372868
vn 0.363738 0.853618 0.372868
vn 0.363738 0.853618 0.372868
vn 0.363738 0.853618 0.372868
vn 0.363740 0.853614 0.372876
vn 0.363740 0.853614 0.372876
vn 0.363740 0.853614 0.372876
vn 0.363740 0.853614 0.372876
vn 0.363740 0.853613 0.372878
vn 0.363740 0.853613 0.372878
vn 0.363740 0.853613 0.372878
vn 0.243837 0.950978 0.190223
vn 0.243837 0.950978 0.190223
vn 0.243837 0.950978 0.190223
vn 0.243837 0.950978 0.190223
vn -0.951801 0.272288 -0.141187
vn -0.951801 0.272288 -0.141190
vn -0.898475 0.295339 -0.324835
vn -0.898475 0.295339 -0.324835
vn 0.898470 -0.295354 0.324835
vn 0.898470 -0.295354 0.324835
vn 0.898470 -0.295354 0.324835
vn 0.898470 -0.295354 0.324835
vn 0.365094 0.091693 -0.926444
vn 0.365094 0.091693 -0.926444
vn 0.365094 0.091693 -0.926444
vn 0.365094 0.091693 -0.926444
vn -0.365090 -0.091713 0.926444
vn -0.365090 -0.091713 0.926444
vn -0.365090 -0.091713 0.926444
vn -0.365090 -0.091713 0.926444
vn -0.856493 0.119138 0.502221
vn -0.856493 0.119138 0.502221
vn -0.856493 0.119138 0.502221
vn -0.856493 0.119138 0.502221
vn -0.296401 0.259830 -0.919040
vn -0.296401 0.259830 -0.919040
vn -0.296401 0.259830 -0.919040
vn -0.296401 0.259830 -0.919040
vn -0.898469 0.295358 -0.324833
vn -0.898469 0.295358 -0.324833
vn -0.811802 0.307456 -0.496436
vn -0.811804 0.307456 -0.496433
vn -0.963299 0.214812 0.160969
vn -0.963299 0.214812 0.160969
vn -0.611977 0.303033 -0.730517
vn -0.611977 0.303033 -0.730517
vn 0.243838 0.950978 0.190223
vn 0.243838 0.950978 0.190223
vn 0.243838 0.950978 0.190223
vn 0.243838 0.950978 0.190223
vn 0.243836 0.950979 0.190220
vn 0.243836 0.950979 0.190220
vn 0.243836 0.950979 0.190220
vn 0.243836 0.950979 0.190220
vn 0.243838 0.950977 0.190228
vn 0.243838 0.950977 0.190228
vn 0.243838 0.950977 0.190228
vn 0.243838 0.950977 0.190228
vn 0.243831 0.950980 0.190221
vn 0.243831 0.950980 0.190221
vn 0.243831 0.950980 0.190221
vn 0.243831 0.950980 0.190221
vn 0.243849 0.950974 0.190228
vn 0.243849 0.950974 0.190229
vn 0.243849 0.950974 0.190228
vn 0.243849 0.950974 0.190228
vn 0.243837 0.950978 0.190225
vn 0.243837 0.950978 0.190225
vn 0.243837 0.950978 0.190225
vn 0.243837 0.950978 0.190225
vn 0.243843 0.950975 0.190227
vn 0.243843 0.950975 0.190227
vn 0.243843 0.950975 0.190227
vn 0.243843 0.950975 0.190227
vn 0.243837 0.950979 0.190218
vn 0.243837 0.950979 0.190218
vn 0.243837 0.950979 0.190218
vn 0.243837 0.950979 0.190218
vn 0.243838 0.950978 0.190219
vn 0.243838 0.950978 0.190219
vn 0.243838 0.950978 0.190219
vn 0.243838 0.950978 0.190219
vn 0.243840 0.950977 0.190224
vn 0.243840 0.950977 0.190224
vn 0.243840 0.950977 0.190224
vn 0.243840 0.950977 0.190224
vn 0.243838 0.950978 0.190220
vn 0.243838 0.950978 0.190220
vn 0.243838 0.950978 0.190220
vn 0.243838 0.950978 0.190220
vn 0.243841 0.950977 0.190224
vn 0.243841 0.950977 0.190224
vn 0.243841 0.950977 0.190224
vn 0.728321 -0.000003 0.685236
vn 0.728321 -0.000003 0.685236
vn 0.728321 -0.000003 0.685236
vn 0.728321 -0.000003 0.685236
vn -0.131379 0.981448 0.139640
vn -0.131378 0.981448 0.139639
vn 0.000000 1.000000 -0.000001
vn 0.000000 1.000000 -0.000001
vn 0.685234 0.000000 -0.728323
vn 0.685234 0.000000 -0.728323
vn 0.685234 0.000000 -0.728323
vn 0.685234 0.000000 -0.728323
vn -0.685234 0.000000 0.728323
vn -0.685234 0.000000 0.728323
vn -0.685234 0.000000 0.728323
vn -0.685234 0.000000 0.728323
vn -0.525609 0.641589 0.558658
vn -0.525609 0.641589 0.558658
vn -0.525609 0.641589 0.558658
vn -0.525609 0.641589 0.558658
vn 0.525619 0.641574 -0.558666
vn 0.525619 0.641574 -0.558666
vn 0.525619 0.641574 -0.558666
vn 0.525619 0.641574 -0.558666
vn 0.000000 1.000000 -0.000002
vn 0.000000 1.000000 -0.000002
vn 0.131382 0.981447 -0.139644
vn 0.131382 0.981447 -0.139644
vn -0.329678 0.876656 0.350409
vn -0.329678 0.876656 0.350409
vn 0.329689 0.876649 -0.350417
vn 0.329689 0.876649 -0.350417
vn 0.728321 0.000030 0.685236
vn 0.728321 0.000030 0.685236
vn 0.728321 0.000030 0.685236
vn 0.728321 0.000030 0.685236
vn 0.728281 0.000000 0.685278
vn 0.728281 0.000000 0.685278
vn 0.728281 0.000000 0.685278
vn 0.728281 0.000000 0.685278
vn 0.728310 0.000000 0.685247
vn 0.728310 0.000000 0.685247
vn 0.728310 0.000000 0.685247
vn 0.728310 0.000000 0.685247
vn 0.728308 0.000009 0.685250
vn 0.728308 0.000009 0.685250
vn 0.728308 0.000009 0.685250
vn 0.728308 0.000009 0.685250
vn 0.728384 -0.000054 0.685169
vn 0.728384 -0.000054 0.685169
vn 0.728384 -0.000054 0.685169
vn 0.728384 -0.000054 0.685169
vn 0.728302 0.000028 0.685257
vn 0.728302 0.000028 0.685257
vn 0.728302 0.000028 0.685257
vn 0.728302 0.000028 0.685257
vn 0.728332 0.000075 0.685225
vn 0.728332 0.000075 0.685225
vn 0.728332 0.000075 0.685225
vn 0.728332 0.000075 0.685225
vn 0.728327 0.000003 0.685230
vn 0.728327 0.000003 0.685230
vn 0.728327 0.000003 0.685230
vn 0.728327 0.000003 0.685230
vn 0.728321 0.000000 0.685236
vn 0.728321 0.000000 0.685236
vn 0.728321 0.000000 0.685236
vn 0.728321 0.000000 0.685236
vn 0.728315 0.000057 0.685243
vn 0.728315 0.000057 0.685243
vn 0.728315 0.000057 0.685243
vn 0.728315 0.000057 0.685243
vn 0.728318 0.000013 0.685239
vn 0.728318 0.000013 0.685239
vn 0.728318 0.000013 0.685239
vn 0.728318 0.000013 0.685239
vn 0.728334 0.000000 0.685223
vn 0.728334 0.000000 0.685223
vn 0.728334 0.000000 0.685223
vn -0.728311 0.000017 -0.685247
vn -0.728311 0.000017 -0.685247
vn -0.728311 0.000017 -0.685247
vn -0.728311 0.000017 -0.685247
vn -0.728333 0.000017 -0.685223
vn -0.728333 0.000017 -0.685223
vn -0.728333 0.000017 -0.685223
vn -0.728333 0.000017 -0.685223
vn 0.000000 -1.000000 0.000000
vn 0.000000 -1.000000 0.000000
vn 0.000000 -1.000000 0.000000
vn 0.000000 -1.000000 0.000000
vn -0.728341 0.000000 -0.685215
vn -0.728341 0.000000 -0.685215
vn -0.728341 0.000000 -0.685215
vn -0.728319 -0.000006 -0.685238
vn -0.728319 -0.000006 -0.685238
vn -0.728319 -0.000006 -0.685238
vn -0.728319 -0.000006 -0.685238
s off
g Bread1
usemtl initialShadingGroup
f 19/19/1 20/20/2 24/24/3 27/27/4
s 1
f 15/15/5 16/16/6 9/9/7 12/12/8
s off
f 4/1/9 2/3/10 1/2/11 3/5/12
f 2/3/13 4/1/14 11/4/15 10/11/16
f 3/5/17 1/2/18 5/6/19 7/7/20
f 5/6/21 6/10/22 8/8/23 7/7/24
f 9/9/25 10/11/26 11/4/27 12/12/28
s 2
f 8/8/29 6/10/30 14/14/31 13/13/32
s 1
f 17/17/33 18/18/34 16/16/6 15/15/5
s 2
f 13/13/32 14/14/31 18/18/35 17/17/36
s off
f 1/2/37 2/3/38 20/36/39 19/28/40
f 2/3/41 10/11/42 21/35/43 20/36/44
f 10/11/45 9/9/46 22/22/47 21/35/48
f 9/9/49 16/16/50 23/23/51 22/22/52
f 16/16/53 18/18/54 24/32/55 23/23/56
f 18/18/57 14/14/58 25/25/59 24/32/60
f 14/14/61 6/10/62 26/26/63 25/25/64
f 6/10/65 5/6/66 27/29/67 26/26/68
f 5/6/69 1/2/70 19/28/71 27/29/72
f 24/24/73 21/21/74 22/34/75 23/33/76
f 27/27/77 24/24/78 25/31/79 26/30/80
f 24/24/81 20/20/82 21/21/83
f 46/37/84 47/38/85 51/39/86 54/40/87
s 3
f 42/41/88 43/42/89 36/43/90 39/44/91
s off
f 31/45/92 29/46/93 28/47/94 30/48/95
f 29/46/96 31/45/97 38/49/98 37/50/99
f 30/48/100 28/47/101 32/51/102 34/52/103
f 32/51/104 33/53/105 35/54/106 34/52/107
f 36/43/108 37/50/109 38/49/110 39/44/111
s 4
f 35/54/112 33/53/113 41/55/114 40/56/115
s 3
f 44/57/116 45/58/117 43/42/89 42/41/88
s 4
f 40/56/115 41/55/114 45/58/118 44/57/119
s off
f 28/47/120 29/46/121 47/59/122 46/60/123
f 29/46/124 37/50/125 48/61/126 47/59/127
f 37/50/128 36/43/129 49/62/130 48/61/131
f 36/43/132 43/42/133 50/63/134 49/62/135
f 43/42/136 45/58/137 51/64/138 50/63/139
f 45/58/140 41/55/141 52/65/142 51/64/143
f 41/55/144 33/53/145 53/66/146 52/65/147
f 33/53/148 32/51/149 54/67/150 53/66/151
f 32/51/152 28/47/153 46/60/154 54/67/155
f 51/39/156 48/68/157 49/69/158 50/70/159
f 54/40/160 51/39/161 52/71/162 53/72/163
f 51/39/164 47/38/165 48/68/166
f 72/73/167 73/74/168 77/75/169 80/76/170
s 5
f 68/77/171 69/78/172 62/79/173 65/80/174
s off
f 56/81/175 57/82/176 64/83/177 63/84/178
f 81/85/179 55/86/180 58/87/181 60/88/182
f 58/87/183 59/89/184 61/90/185 60/88/186
f 62/79/187 63/84/188 64/83/189 65/80/190
s 6
f 61/90/191 59/89/192 67/91/193 66/92/194
s 5
f 70/93/195 71/94/196 69/78/172 68/77/171
s 6
f 66/92/194 67/91/193 71/94/197 70/93/198
s off
f 55/95/199 56/81/200 73/96/201 72/97/202
f 56/81/203 63/98/204 74/99/205 73/96/206
f 63/98/207 62/100/208 75/101/209 74/99/210
f 62/100/211 69/102/212 76/103/213 75/101/214
f 69/102/215 71/104/216 77/105/217 76/103/218
f 71/104/219 67/106/220 78/107/221 77/105/222
f 67/106/223 59/108/224 79/109/225 78/107/226
f 59/108/227 58/110/228 80/111/229 79/109/230
f 58/110/231 55/95/232 72/97/233 80/111/234
f 77/75/235 74/112/236 75/113/237 76/114/238
f 80/76/239 77/75/240 78/115/241 79/116/242
f 77/75/243 73/74/244 74/112/245
f 64/117/246 70/118/247 68/119/248 65/120/249
f 70/118/250 60/121/251 61/122/252 66/123/253
f 55/95/254 81/124/255 57/82/256 56/81/257
f 70/118/258 81/124/259 60/121/260
f 57/82/261 81/124/262 70/118/263 64/117/264
